<svg width="1024" height="1024" viewBox="0 0 1024 1024" fill="none" xmlns="http://www.w3.org/2000/svg">
<rect width="1024" height="1024" fill="#FFCC00"/>
<mask id="path-2-inside-1_31_104" fill="white">
<rect x="90.6743" y="195.185" width="435.539" height="636.223" rx="20" transform="rotate(-15 90.6743 195.185)"/>
</mask>
<rect x="90.6743" y="195.185" width="435.539" height="636.223" rx="20" transform="rotate(-15 90.6743 195.185)" fill="#FFCC00" stroke="#234867" stroke-width="60" mask="url(#path-2-inside-1_31_104)"/>
<g clip-path="url(#clip0_31_104)">
<path d="M420.554 571.458C497.246 550.908 542.853 471.944 522.275 395.145C501.697 318.345 422.689 272.657 345.997 293.207C269.303 313.757 223.832 392.799 244.41 469.598C264.988 546.398 343.861 592.007 420.554 571.458ZM415.231 551.592C349.417 569.226 281.909 530.187 264.25 464.282C246.591 398.378 285.536 330.816 351.349 313.181C417.162 295.547 484.671 334.585 502.33 400.489C519.989 466.394 481.044 533.957 415.231 551.592Z" fill="#28CD41"/>
<path d="M411.737 375.993C401.924 378.623 395.695 385.672 393.266 401.779C369.169 386.942 332.132 376.717 299.424 383.076C293.55 384.193 293.649 388.402 294.437 392.198C301.45 427.755 336.976 449.833 374.569 442.507C371.044 468.18 360.368 492.335 348.248 511.954C346.523 514.476 347.722 517.246 349.952 519.167C360.973 529.152 387.53 529.706 402.624 519.478C405.616 517.417 405.934 515.615 405.161 512.73L398.034 486.135C417.063 480.349 443.063 460.904 428.209 424.242L425.618 418.411C433.821 414.038 439.588 408.256 442.275 402.499L462.434 400.074C466.764 399.601 466.997 392.784 462.242 392.112L443.181 389.663C439.26 379.724 425.497 372.307 411.737 375.993ZM348.72 375.477C362.86 378.329 376.121 383.018 387.576 388.65C390.729 380.363 395.159 374.711 400.859 371.238C387.734 357.239 373.008 348.362 355.921 343.897C350.405 342.513 346.362 345.771 346.292 351.056C346.162 359.105 346.893 367.38 348.72 375.477ZM419.043 394.299C418.384 391.843 420.081 389.213 422.534 388.556C425.094 387.87 427.771 389.328 428.429 391.784C429.174 394.562 427.555 397.056 424.995 397.742C422.542 398.399 419.787 397.077 419.043 394.299Z" fill="#28CD41"/>
</g>
<path d="M943.217 318.539L786.315 904.105L394.594 799.144L551.496 213.577L943.217 318.539Z" fill="#FFCC00" stroke="#234867" stroke-width="30"/>
<g clip-path="url(#clip1_31_104)">
<rect width="288.289" height="288.289" transform="translate(567.28 382.382) rotate(15)" fill="#FFCC00"/>
<path d="M631.845 698.14C708.596 718.705 787.874 672.975 808.424 596.282C828.945 519.696 783.153 440.454 706.403 419.888C629.758 399.351 550.48 445.082 529.959 521.668C509.409 598.36 555.2 677.603 631.845 698.14Z" fill="#28CD41"/>
<path d="M723.093 523.503C737.203 527.284 745.701 540.894 744.015 551.891L759.735 563.774C763.631 566.764 759.962 572.764 755.856 570.977L736.718 562.873C731.261 566.562 723.226 568.759 713.809 568.411L713.005 574.836C707.397 615.005 674.396 618.87 654.555 614.241L647.257 641.48C646.455 644.469 645.278 645.871 641.542 646.129C622.836 647.528 599.476 633.371 594.779 618.831C593.805 616.051 594.072 612.917 596.939 611.625C617.822 600.392 639.587 584.586 655.882 563.537C618.863 550.756 598.528 512.908 610.546 477.891C611.655 474.181 613.84 470.302 619.74 472.226C652.006 483.505 679.7 511.418 693.475 536.975C703.839 523.953 713.045 520.811 723.093 523.503ZM667.375 490.714C669.842 482.789 673.436 474.936 677.713 467.954C680.476 463.2 685.83 462.459 690.032 466.447C702.864 479.273 711.36 494.6 715.875 513.669C709.081 513.795 702.164 516.521 695.087 522.41C687.805 511.529 678.485 500.56 667.375 490.714ZM720.207 543.68C719.491 546.35 721.192 548.981 723.758 549.669C726.323 550.356 729.112 548.928 729.828 546.258C730.515 543.694 728.842 540.957 726.277 540.269C723.711 539.582 720.894 541.117 720.207 543.68Z" fill="#FFCC00"/>
</g>
<defs>
<clipPath id="clip0_31_104">
<rect width="287.667" height="288.289" fill="white" transform="translate(207.117 330.419) rotate(-15)"/>
</clipPath>
<clipPath id="clip1_31_104">
<rect width="288.289" height="288.289" fill="white" transform="translate(567.28 382.382) rotate(15)"/>
</clipPath>
</defs>
</svg>
