<?xml version="1.0" encoding="UTF-8" standalone="yes"?>
<!DOCTYPE svg PUBLIC "-//W3C//DTD SVG 1.1//EN" "http://www.w3.org/Graphics/SVG/1.1/DTD/svg11.dtd">

<svg width="500" height="500" viewBox="0 0 500 500" xmlns="http://www.w3.org/2000/svg" xmlns:xlink="http://www.w3.org/1999/xlink" version="1.1" baseProfile="full">
    <g transform="scale(0.488281,-0.488281) translate(0,-1024)">
        <path d="M 49.000000 1.000000 L 977.000000 1.000000 C 1003.509668 1.000000 1025.000000 22.490332 1025.000000 49.000000 L 1025.000000 977.000000 C 1025.000000 1003.509668 1003.509668 1025.000000 977.000000 1025.000000 L 49.000000 1025.000000 C 22.490332 1025.000000 1.000000 1003.509668 1.000000 977.000000 L 1.000000 49.000000 C 1.000000 22.490332 22.490332 1.000000 49.000000 1.000000 Z" transform="scale(1.000000,1.000000) translate(-1.000000,-1.000000)" fill="#ecd8bb" opacity="1.000000"></path>
        <path d="M 300.218750 200.609375 Q 298.265625 199.046875 296.507812 197.093750 Q 294.750000 195.140625 292.015625 193.968750 Q 292.406250 192.015625 291.625000 190.257812 Q 290.843750 188.500000 290.843750 185.765625 Q 288.109375 184.203125 287.523437 180.882812 Q 286.937500 177.562500 284.984375 175.218750 Q 285.375000 174.828125 284.593750 173.265625 Q 283.812500 171.703125 282.835937 169.945312 Q 281.859375 168.187500 281.078125 166.234375 Q 280.296875 164.281250 280.296875 162.718750 Q 278.343750 162.718750 276.781250 160.375000 Q 275.218750 158.031250 274.437500 156.078125 Q 272.484375 154.515625 269.554687 153.734375 Q 266.625000 152.953125 265.062500 150.609375 Q 261.546875 150.218750 259.398437 147.484375 Q 257.250000 144.750000 254.515625 142.796875 Q 250.609375 140.843750 246.703125 140.257812 Q 242.796875 139.671875 238.500000 137.718750 L 233.421875 135.765625 Q 221.312500 131.468750 210.765625 130.296875 Q 200.218750 129.125000 187.328125 131.078125 Q 184.203125 130.687500 182.250000 131.078125 Q 180.296875 131.468750 178.343750 129.906250 Q 175.609375 131.859375 172.875000 130.882812 Q 170.140625 129.906250 167.015625 129.906250 Q 162.328125 129.515625 157.445312 130.492187 Q 152.562500 131.468750 147.093750 131.859375 Q 142.015625 131.859375 137.132812 131.664062 Q 132.250000 131.468750 127.953125 132.250000 Q 127.171875 131.468750 126.781250 130.101562 Q 126.390625 128.734375 125.609375 126.781250 Q 126.781250 122.875000 126.390625 121.312500 Q 126.000000 119.750000 127.562500 118.187500 Q 124.828125 113.109375 126.000000 113.304688 Q 127.171875 113.500000 127.953125 112.718750 Q 127.562500 108.031250 127.562500 106.468750 Q 127.562500 104.906250 127.367188 103.148438 Q 127.171875 101.390625 126.976562 99.828125 Q 126.781250 98.265625 127.562500 97.484375 Q 124.828125 92.796875 125.804688 92.796875 Q 126.781250 92.796875 126.390625 92.015625 Q 125.609375 86.546875 126.390625 82.640625 Q 127.171875 78.734375 125.218750 74.046875 Q 126.781250 72.484375 126.781250 70.140625 Q 126.781250 67.796875 126.195312 65.257812 Q 125.609375 62.718750 125.023438 59.984375 Q 124.437500 57.250000 124.437500 54.906250 Q 124.828125 49.437500 125.023438 45.140625 Q 125.218750 40.843750 126.000000 36.546875 Q 124.828125 34.593750 125.218750 32.640625 Q 125.609375 30.687500 126.390625 28.539062 Q 127.171875 26.390625 127.953125 24.632812 Q 128.734375 22.875000 128.343750 21.312500 Q 131.468750 18.187500 135.375000 16.039062 Q 139.281250 13.890625 143.187500 11.546875 Q 146.312500 11.546875 149.437500 12.523438 Q 152.562500 13.500000 156.468750 11.546875 Q 164.671875 12.328125 174.828125 11.546875 Q 184.984375 10.765625 192.015625 8.812500 Q 192.406250 6.859375 191.820312 5.882812 Q 191.234375 4.906250 191.234375 2.953125 Q 186.937500 3.734375 182.640625 4.515625 Q 178.343750 5.296875 174.437500 3.343750 Q 173.656250 4.906250 172.093750 4.515625 Q 170.531250 4.125000 168.578125 3.343750 Q 164.281250 5.687500 159.984375 5.492188 Q 155.687500 5.296875 151.781250 6.078125 Q 148.656250 3.734375 144.164062 4.710938 Q 139.671875 5.687500 135.765625 6.468750 Q 126.781250 5.687500 117.992188 6.273437 Q 109.203125 6.859375 99.437500 6.078125 Q 93.187500 5.296875 89.281250 5.101562 Q 85.375000 4.906250 80.882812 4.710938 Q 76.390625 4.515625 72.093750 4.515625 Q 67.796875 4.515625 63.890625 5.296875 Q 57.250000 4.515625 53.539062 4.515625 Q 49.828125 4.515625 45.531250 5.687500 Q 43.578125 4.515625 40.843750 4.320312 Q 38.109375 4.125000 35.375000 4.125000 Q 32.640625 4.125000 30.101562 3.734375 Q 27.562500 3.343750 26.000000 1.781250 Q 22.093750 2.171875 17.992188 1.585938 Q 13.890625 1.000000 8.421875 1.000000 Q 8.421875 2.562500 6.664062 2.953125 Q 4.906250 3.343750 4.906250 5.296875 Q 4.906250 7.640625 8.421875 9.593750 Q 20.140625 8.031250 33.617188 11.546875 Q 47.093750 15.062500 57.250000 17.406250 Q 61.546875 20.531250 62.328125 24.242187 Q 63.109375 27.953125 63.500000 31.468750 Q 61.546875 34.203125 60.375000 35.765625 Q 62.328125 36.937500 63.695312 39.671875 Q 65.062500 42.406250 65.453125 45.335937 Q 65.843750 48.265625 65.257812 50.804688 Q 64.671875 53.343750 62.718750 54.125000 Q 66.625000 58.812500 65.257812 62.914062 Q 63.890625 67.015625 61.937500 68.187500 Q 65.062500 73.265625 65.062500 78.539062 Q 65.062500 83.812500 64.281250 89.281250 Q 60.765625 95.140625 63.500000 97.679687 Q 66.234375 100.218750 66.625000 105.296875 Q 66.625000 109.203125 65.062500 112.718750 Q 63.109375 112.328125 61.351562 110.960938 Q 59.593750 109.593750 57.640625 110.375000 Q 60.375000 114.281250 59.984375 114.671875 Q 59.593750 115.062500 59.984375 115.843750 Q 60.765625 117.015625 62.718750 117.601562 Q 64.671875 118.187500 65.843750 118.968750 Q 64.671875 120.921875 66.429688 122.289062 Q 68.187500 123.656250 67.406250 125.609375 Q 66.625000 126.390625 65.648437 126.390625 Q 64.671875 126.390625 63.109375 127.171875 Q 63.890625 131.468750 65.843750 134.398437 Q 67.796875 137.328125 65.843750 141.625000 Q 62.718750 142.796875 59.984375 142.796875 Q 59.593750 146.312500 61.937500 147.093750 Q 64.281250 147.875000 65.062500 150.609375 Q 65.843750 156.468750 64.085938 160.765625 Q 62.328125 165.062500 64.671875 168.187500 Q 63.890625 172.484375 64.476562 177.171875 Q 65.062500 181.859375 64.671875 186.156250 Q 61.937500 190.453125 63.304688 191.429687 Q 64.671875 192.406250 65.062500 194.359375 Q 65.062500 201.000000 66.234375 203.539062 Q 67.406250 206.078125 63.890625 207.640625 Q 65.062500 211.937500 66.234375 216.625000 Q 67.406250 221.312500 65.453125 226.390625 Q 62.718750 226.390625 61.546875 224.046875 Q 60.765625 224.437500 59.984375 224.828125 Q 59.203125 225.218750 57.250000 224.828125 Q 58.031250 229.125000 58.812500 229.906250 Q 59.593750 230.687500 60.765625 229.906250 Q 63.500000 232.250000 63.890625 234.593750 Q 64.281250 236.937500 64.476562 239.671875 Q 64.671875 242.406250 64.085938 244.750000 Q 63.500000 247.093750 61.937500 247.875000 Q 63.890625 251.000000 64.671875 253.343750 Q 65.453125 255.687500 66.625000 259.203125 Q 63.890625 260.765625 63.304688 260.375000 Q 62.718750 259.984375 61.546875 259.593750 Q 59.593750 261.156250 59.789062 262.523437 Q 59.984375 263.890625 60.765625 265.062500 Q 61.546875 266.234375 62.718750 267.601562 Q 63.890625 268.968750 64.281250 270.531250 Q 62.718750 271.703125 61.351562 272.875000 Q 59.984375 274.046875 58.031250 274.828125 Q 58.421875 276.390625 58.031250 276.976562 Q 57.640625 277.562500 58.031250 279.515625 Q 57.250000 280.687500 53.343750 280.687500 Q 53.734375 285.375000 49.437500 286.937500 Q 45.140625 288.500000 42.015625 290.453125 Q 40.062500 290.062500 38.109375 290.062500 Q 36.156250 290.062500 34.593750 291.234375 Q 29.125000 290.453125 25.218750 290.843750 Q 21.312500 291.234375 17.796875 287.718750 Q 15.453125 287.328125 13.890625 287.523437 Q 12.328125 287.718750 9.984375 286.937500 Q 8.421875 289.281250 8.031250 291.234375 Q 4.125000 290.843750 1.000000 293.187500 Q 1.781250 296.312500 4.710938 296.703125 Q 7.640625 297.093750 9.593750 298.656250 Q 18.968750 297.093750 27.757812 298.070312 Q 36.546875 299.046875 45.921875 299.046875 Q 49.437500 297.484375 53.539062 298.656250 Q 57.640625 299.828125 61.156250 299.437500 Q 65.453125 299.046875 69.164062 298.070312 Q 72.875000 297.093750 77.171875 297.484375 Q 81.078125 297.484375 84.789062 298.460937 Q 88.500000 299.437500 92.015625 299.046875 Q 94.359375 298.656250 96.312500 298.070312 Q 98.265625 297.484375 100.609375 297.484375 Q 113.109375 300.218750 125.414062 299.437500 Q 137.718750 298.656250 149.046875 299.437500 Q 156.859375 300.218750 162.523437 298.460937 Q 168.187500 296.703125 173.656250 298.656250 Q 176.781250 297.875000 180.687500 296.898437 Q 184.593750 295.921875 187.718750 297.093750 Q 197.093750 296.312500 208.421875 295.531250 Q 219.750000 294.750000 230.296875 292.796875 Q 233.421875 292.406250 235.570312 291.429687 Q 237.718750 290.453125 239.671875 288.890625 Q 242.015625 290.453125 242.992187 288.890625 Q 243.968750 287.328125 245.921875 288.109375 Q 247.875000 283.812500 253.343750 283.031250 Q 258.812500 282.250000 264.281250 281.078125 Q 266.234375 279.125000 267.406250 276.390625 Q 268.578125 273.656250 272.484375 272.875000 Q 274.437500 269.359375 275.414062 269.164062 Q 276.390625 268.968750 277.171875 267.796875 Q 276.781250 265.843750 278.148437 264.281250 Q 279.515625 262.718750 281.078125 261.156250 Q 282.640625 259.593750 283.812500 258.226562 Q 284.984375 256.859375 284.984375 254.906250 Q 289.281250 252.171875 290.453125 246.312500 Q 291.625000 240.453125 293.968750 236.156250 Q 292.406250 233.421875 294.750000 229.125000 Q 292.796875 223.265625 295.531250 218.187500 Q 294.750000 216.625000 294.164062 214.085937 Q 293.578125 211.546875 293.578125 209.593750 Q 293.578125 207.640625 294.554687 206.664062 Q 295.531250 205.687500 298.265625 206.859375 Q 297.875000 204.515625 299.242187 203.734375 Q 300.609375 202.953125 300.218750 200.609375 Z M 246.312500 278.343750 Q 244.359375 278.734375 243.578125 278.734375 Q 242.796875 278.734375 240.453125 278.734375 Q 245.531250 276.000000 246.312500 278.343750 Z M 253.734375 267.015625 Q 250.218750 270.140625 248.656250 265.062500 Q 250.218750 264.281250 251.390625 265.257812 Q 252.562500 266.234375 253.734375 267.015625 Z M 281.468750 250.609375 Q 280.687500 255.296875 277.367187 257.835937 Q 274.046875 260.375000 271.703125 263.890625 Q 269.359375 267.015625 265.257812 270.140625 Q 261.156250 273.265625 256.859375 270.140625 Q 258.812500 270.140625 261.546875 269.359375 Q 264.281250 268.578125 265.453125 265.453125 Q 263.500000 263.890625 261.546875 261.351562 Q 259.593750 258.812500 256.468750 259.203125 Q 254.125000 256.468750 250.804687 254.906250 Q 247.484375 253.343750 244.750000 254.515625 Q 243.968750 249.437500 241.234375 247.875000 Q 238.500000 246.312500 235.375000 247.875000 Q 234.984375 244.359375 233.617187 243.578125 Q 232.250000 242.796875 231.468750 241.625000 Q 234.984375 241.234375 235.960937 242.406250 Q 236.937500 243.578125 238.890625 242.796875 Q 240.843750 245.921875 244.554687 246.703125 Q 248.265625 247.484375 250.609375 249.828125 Q 251.390625 246.703125 253.148437 246.507812 Q 254.906250 246.312500 256.468750 247.093750 Q 256.859375 249.437500 255.687500 249.632812 Q 254.515625 249.828125 254.515625 251.000000 Q 258.812500 252.953125 259.398437 253.343750 Q 259.984375 253.734375 261.546875 253.734375 Q 263.500000 255.296875 266.039062 256.273437 Q 268.578125 257.250000 270.531250 258.421875 Q 270.921875 256.468750 272.289062 255.492187 Q 273.656250 254.515625 273.656250 252.562500 Q 269.359375 250.609375 265.453125 247.289062 Q 261.546875 243.968750 256.859375 243.578125 Q 258.812500 241.234375 262.132812 241.039062 Q 265.453125 240.843750 264.671875 243.968750 Q 264.671875 244.750000 267.601562 245.531250 Q 270.531250 246.312500 273.265625 244.359375 Q 276.390625 247.093750 276.585937 246.312500 Q 276.781250 245.531250 277.562500 245.921875 Q 278.343750 247.484375 278.929687 248.460937 Q 279.515625 249.437500 281.468750 250.609375 Z M 235.375000 284.593750 Q 233.421875 287.718750 228.343750 288.304687 Q 223.265625 288.890625 220.140625 286.937500 Q 220.921875 286.156250 221.117187 284.984375 Q 221.312500 283.812500 222.093750 283.031250 Q 220.531250 280.687500 217.796875 279.515625 Q 215.062500 278.343750 213.500000 275.218750 Q 218.187500 277.562500 220.726562 278.539062 Q 223.265625 279.515625 225.218750 278.343750 Q 227.562500 281.078125 228.929687 281.273437 Q 230.296875 281.468750 231.468750 282.250000 Q 230.296875 283.421875 231.859375 284.203125 Q 233.421875 284.984375 235.375000 284.593750 Z M 254.125000 275.218750 Q 252.171875 275.609375 251.000000 275.414062 Q 249.828125 275.218750 248.265625 275.218750 Q 243.968750 274.437500 241.429687 272.875000 Q 238.890625 271.312500 235.765625 272.093750 Q 231.859375 268.968750 230.296875 268.382812 Q 228.734375 267.796875 227.562500 268.578125 Q 226.781250 267.015625 225.218750 265.648437 Q 223.656250 264.281250 221.703125 265.062500 Q 221.312500 263.109375 220.726562 262.523437 Q 220.140625 261.937500 220.921875 259.203125 Q 229.125000 261.156250 233.421875 262.914062 Q 237.718750 264.671875 242.015625 267.796875 Q 244.359375 269.750000 248.265625 270.921875 Q 252.171875 272.093750 254.125000 275.218750 Z M 217.406250 288.500000 Q 215.062500 289.281250 213.109375 288.890625 Q 214.281250 287.718750 216.039062 287.328125 Q 217.796875 286.937500 217.406250 288.500000 Z M 274.437500 225.609375 Q 273.265625 224.828125 271.898437 225.218750 Q 270.531250 225.609375 269.750000 224.828125 Q 273.265625 224.046875 274.437500 225.609375 Z M 254.125000 260.765625 Q 252.953125 263.500000 250.609375 261.742187 Q 248.265625 259.984375 245.921875 260.765625 Q 245.140625 258.812500 242.210937 258.226562 Q 239.281250 257.640625 238.109375 258.421875 Q 234.984375 256.468750 234.593750 255.296875 Q 234.203125 254.125000 232.640625 254.125000 Q 229.515625 252.171875 229.125000 250.609375 Q 228.734375 249.046875 226.390625 249.046875 Q 228.734375 244.359375 229.710937 246.312500 Q 230.687500 248.265625 233.031250 247.484375 Q 232.640625 249.437500 234.203125 249.632812 Q 235.765625 249.828125 237.718750 249.828125 Q 239.671875 252.953125 242.406250 254.906250 Q 245.140625 256.859375 248.265625 258.812500 Q 249.046875 258.812500 250.804687 260.375000 Q 252.562500 261.937500 254.125000 260.765625 Z M 227.953125 276.000000 Q 225.218750 276.781250 223.460937 276.000000 Q 221.703125 275.218750 220.921875 276.000000 Q 218.578125 274.828125 217.601562 274.632812 Q 216.625000 274.437500 215.453125 274.046875 Q 214.671875 272.093750 214.281250 271.507812 Q 213.890625 270.921875 213.890625 268.968750 Q 218.578125 270.140625 220.335937 270.726562 Q 222.093750 271.312500 224.828125 272.093750 Q 223.656250 274.046875 226.000000 274.046875 Q 228.343750 274.046875 227.953125 276.000000 Z M 211.156250 289.281250 Q 209.593750 288.890625 207.054687 289.281250 Q 204.515625 289.671875 201.781250 290.062500 Q 199.046875 290.453125 196.507812 290.648437 Q 193.968750 290.843750 192.406250 290.062500 Q 195.140625 288.890625 196.898437 287.328125 Q 198.656250 285.765625 201.390625 284.984375 Q 203.343750 285.765625 203.734375 286.156250 Q 204.125000 286.546875 205.687500 285.375000 Q 206.859375 286.546875 208.421875 287.523437 Q 209.984375 288.500000 211.156250 289.281250 Z M 254.515625 238.500000 Q 251.390625 239.671875 250.609375 238.500000 Q 249.828125 237.328125 248.656250 238.500000 Q 248.265625 234.984375 249.242187 235.375000 Q 250.218750 235.765625 251.781250 234.984375 Q 251.781250 236.546875 253.148437 236.742187 Q 254.515625 236.937500 254.515625 238.500000 Z M 279.906250 243.187500 Q 274.437500 245.531250 272.093750 243.382812 Q 269.750000 241.234375 266.234375 242.015625 Q 265.843750 240.062500 264.476562 239.671875 Q 263.109375 239.281250 261.546875 238.890625 Q 254.515625 235.375000 249.046875 232.250000 Q 243.578125 229.125000 236.937500 226.781250 Q 235.375000 225.609375 234.984375 223.656250 Q 234.593750 221.703125 233.421875 220.531250 Q 237.328125 217.796875 237.718750 217.406250 Q 238.109375 217.015625 238.890625 217.015625 Q 240.453125 218.968750 242.992187 219.945312 Q 245.531250 220.921875 246.312500 223.265625 Q 247.484375 222.484375 248.265625 221.703125 Q 249.046875 220.921875 250.609375 220.921875 Q 250.609375 222.484375 249.046875 222.679687 Q 247.484375 222.875000 246.703125 223.656250 Q 247.484375 226.390625 251.000000 227.367187 Q 254.515625 228.343750 256.468750 229.125000 Q 256.859375 231.078125 259.398437 233.226562 Q 261.937500 235.375000 264.671875 234.984375 Q 268.968750 236.937500 268.382812 237.718750 Q 267.796875 238.500000 268.578125 238.500000 Q 272.875000 240.453125 274.828125 241.039062 Q 276.781250 241.625000 279.906250 243.187500 Z M 250.218750 242.406250 Q 249.828125 245.531250 248.070312 244.750000 Q 246.312500 243.968750 244.359375 244.359375 Q 243.578125 242.796875 241.625000 241.625000 Q 239.671875 240.453125 237.718750 239.476562 Q 235.765625 238.500000 234.007812 237.132812 Q 232.250000 235.765625 232.250000 233.812500 Q 236.156250 234.593750 239.085937 236.351562 Q 242.015625 238.109375 245.531250 239.281250 Q 247.875000 242.796875 250.218750 242.406250 Z M 256.859375 223.265625 Q 254.906250 224.046875 254.320312 222.875000 Q 253.734375 221.703125 251.781250 222.093750 Q 254.906250 221.312500 255.882812 221.703125 Q 256.859375 222.093750 256.859375 223.265625 Z M 207.640625 270.921875 Q 206.468750 272.484375 204.320312 271.312500 Q 202.171875 270.140625 202.171875 268.187500 Q 203.734375 267.796875 204.906250 268.968750 Q 206.078125 270.140625 207.640625 270.921875 Z M 289.281250 222.484375 Q 289.281250 228.343750 288.695312 234.203125 Q 288.109375 240.062500 284.984375 243.187500 Q 283.031250 241.234375 281.078125 239.867187 Q 279.125000 238.500000 275.609375 238.500000 Q 275.609375 236.546875 274.242187 235.375000 Q 272.875000 234.203125 269.750000 234.593750 Q 265.843750 231.468750 262.914062 228.539062 Q 259.984375 225.609375 257.250000 224.046875 Q 258.812500 223.656250 259.984375 224.046875 Q 261.156250 224.437500 262.718750 223.265625 Q 262.718750 225.609375 264.671875 226.195312 Q 266.625000 226.781250 268.187500 226.000000 Q 267.796875 227.953125 268.968750 228.539062 Q 270.140625 229.125000 270.921875 229.906250 Q 276.781250 230.687500 276.976562 229.515625 Q 277.171875 228.343750 278.343750 228.343750 Q 277.562500 230.296875 278.929687 231.078125 Q 280.296875 231.859375 281.859375 232.250000 Q 282.640625 231.078125 283.226562 230.296875 Q 283.812500 229.515625 284.593750 228.343750 Q 279.515625 222.484375 275.218750 219.945312 Q 270.921875 217.406250 267.406250 213.890625 Q 263.890625 213.109375 263.500000 212.523437 Q 263.109375 211.937500 263.500000 210.765625 Q 265.062500 210.765625 266.429687 211.546875 Q 267.796875 212.328125 268.578125 210.765625 Q 271.703125 213.109375 272.093750 211.937500 Q 272.484375 210.765625 273.656250 211.546875 L 273.265625 204.906250 Q 268.578125 204.515625 266.234375 206.859375 Q 265.453125 208.812500 263.109375 207.054687 Q 260.765625 205.296875 257.640625 206.078125 Q 255.687500 202.953125 251.390625 201.390625 Q 247.093750 199.828125 244.750000 199.046875 Q 243.578125 196.312500 240.062500 196.703125 Q 237.328125 193.578125 236.156250 192.601562 Q 234.984375 191.625000 234.203125 190.453125 Q 235.375000 189.671875 235.179687 188.695312 Q 234.984375 187.718750 234.593750 186.742187 Q 234.203125 185.765625 234.007812 184.593750 Q 233.812500 183.421875 234.593750 183.031250 Q 234.984375 184.984375 236.546875 185.179687 Q 238.109375 185.375000 238.890625 186.937500 Q 239.671875 185.765625 240.843750 185.570312 Q 242.015625 185.375000 243.578125 184.984375 Q 247.093750 184.203125 248.656250 184.984375 Q 250.218750 185.765625 253.343750 185.765625 Q 254.906250 189.671875 256.468750 190.062500 Q 259.593750 190.453125 260.765625 191.234375 Q 261.937500 192.015625 263.890625 191.234375 Q 265.843750 192.015625 267.015625 192.406250 Q 268.187500 192.796875 269.554687 193.382812 Q 270.921875 193.968750 272.093750 194.164062 Q 273.265625 194.359375 274.437500 193.578125 Q 274.828125 196.312500 270.531250 196.312500 Q 274.437500 198.265625 274.242187 197.484375 Q 274.046875 196.703125 274.828125 196.703125 Q 275.609375 198.265625 277.562500 198.460937 Q 279.515625 198.656250 280.687500 197.875000 Q 283.031250 202.171875 284.593750 202.757812 Q 286.156250 203.343750 288.109375 204.125000 Q 288.890625 208.031250 288.890625 213.109375 Q 288.890625 218.187500 289.281250 222.484375 Z M 252.562500 219.359375 Q 249.437500 218.968750 247.679687 219.164062 Q 245.921875 219.359375 245.531250 219.750000 Q 249.437500 217.796875 250.218750 218.578125 Q 251.000000 219.359375 252.562500 219.359375 Z M 267.406250 222.093750 Q 262.718750 221.312500 262.132812 222.289062 Q 261.546875 223.265625 259.593750 222.875000 Q 259.984375 220.140625 257.640625 219.554687 Q 255.296875 218.968750 254.125000 218.968750 Q 250.218750 216.625000 251.585937 216.039062 Q 252.953125 215.453125 251.390625 214.671875 Q 247.484375 213.500000 245.531250 211.937500 Q 243.578125 210.375000 240.843750 211.546875 Q 240.843750 208.421875 238.500000 206.078125 Q 236.156250 205.296875 235.960937 203.539062 Q 235.765625 201.781250 237.718750 200.609375 Q 239.671875 201.390625 240.843750 203.148437 Q 242.015625 204.906250 244.359375 203.734375 Q 245.140625 205.687500 246.703125 206.468750 Q 248.265625 207.250000 249.828125 208.421875 Q 252.562500 209.593750 253.539062 210.375000 Q 254.515625 211.156250 254.906250 213.109375 Q 260.765625 214.671875 261.156250 214.281250 Q 262.328125 217.015625 263.500000 217.992187 Q 264.671875 218.968750 266.234375 217.015625 Q 266.625000 220.140625 267.406250 222.093750 Z M 279.906250 186.546875 Q 277.953125 185.765625 276.000000 186.937500 Q 274.046875 188.109375 272.484375 186.937500 Q 273.265625 184.984375 274.828125 185.570312 Q 276.390625 186.156250 277.953125 184.984375 Z M 279.515625 178.343750 Q 275.609375 174.828125 273.851562 173.265625 Q 272.093750 171.703125 268.968750 170.921875 Q 271.703125 168.968750 273.460937 169.750000 Q 275.218750 170.531250 277.171875 169.750000 Q 277.562500 172.093750 278.929687 174.046875 Q 280.296875 176.000000 279.515625 178.343750 Z M 270.140625 189.671875 Q 266.625000 190.453125 263.695312 188.695312 Q 260.765625 186.937500 258.421875 185.765625 Q 255.687500 183.812500 254.515625 183.421875 Q 253.343750 183.031250 251.390625 183.812500 Q 248.656250 182.640625 248.265625 182.250000 Q 247.875000 181.859375 246.703125 182.250000 Q 246.312500 179.906250 244.164062 178.539062 Q 242.015625 177.171875 240.062500 176.781250 Q 239.281250 174.437500 236.546875 174.437500 Q 233.812500 174.437500 231.859375 175.218750 Q 231.468750 173.265625 234.007812 174.046875 Q 236.546875 174.828125 236.937500 172.875000 Q 234.203125 171.312500 232.250000 171.312500 Q 231.078125 169.750000 229.906250 168.382812 Q 228.734375 167.015625 227.562500 165.843750 Q 231.078125 163.109375 232.250000 164.867187 Q 233.421875 166.625000 235.375000 167.406250 Q 237.328125 166.625000 238.500000 167.210937 Q 239.671875 167.796875 240.453125 168.578125 Q 241.234375 170.921875 243.187500 171.898437 Q 245.140625 172.875000 246.703125 172.093750 Q 249.437500 175.218750 253.929687 176.781250 Q 258.421875 178.343750 260.375000 182.640625 Q 262.718750 184.984375 265.453125 186.156250 Q 268.187500 187.328125 270.140625 189.671875 Z M 253.343750 156.078125 Q 251.781250 156.078125 251.000000 156.273437 Q 250.218750 156.468750 249.046875 156.468750 Q 251.000000 153.343750 250.218750 152.171875 Q 249.437500 151.000000 247.484375 150.218750 Q 248.656250 149.828125 249.437500 150.414062 Q 250.218750 151.000000 251.781250 150.609375 Q 251.781250 152.562500 252.953125 153.539062 Q 254.125000 154.515625 253.343750 156.078125 Z M 125.609375 283.812500 Q 124.046875 284.203125 122.875000 283.617187 Q 121.703125 283.031250 120.726562 282.250000 Q 119.750000 281.468750 118.578125 280.882812 Q 117.406250 280.296875 115.453125 280.296875 Q 118.187500 279.125000 119.750000 278.929687 Q 121.312500 278.734375 120.921875 276.000000 Q 121.703125 278.734375 123.070312 280.296875 Q 124.437500 281.859375 125.609375 283.812500 Z M 272.484375 180.296875 Q 268.187500 177.953125 267.015625 177.171875 Q 265.843750 176.390625 265.062500 175.609375 Q 261.546875 176.781250 261.546875 175.414062 Q 261.546875 174.046875 260.375000 174.046875 Q 257.640625 175.218750 256.664062 173.070312 Q 255.687500 170.921875 252.171875 171.703125 Q 249.437500 168.578125 249.046875 169.750000 Q 248.656250 170.921875 247.875000 170.140625 Q 245.140625 167.015625 246.117187 167.015625 Q 247.093750 167.015625 246.312500 165.843750 Q 243.968750 166.234375 242.210937 165.062500 Q 240.453125 163.890625 238.890625 162.523437 Q 237.328125 161.156250 235.570312 160.179687 Q 233.812500 159.203125 231.468750 159.203125 Q 232.640625 158.421875 231.859375 157.835937 Q 231.078125 157.250000 229.710937 156.468750 Q 228.343750 155.687500 226.585937 154.906250 Q 224.828125 154.125000 224.046875 153.734375 Q 222.484375 152.953125 221.312500 151.390625 Q 220.140625 149.828125 218.187500 148.656250 Q 216.234375 147.093750 214.281250 146.898438 Q 212.328125 146.703125 211.546875 145.921875 Q 204.906250 142.796875 202.953125 140.648438 Q 201.000000 138.500000 198.265625 136.546875 Q 203.343750 136.937500 209.593750 136.546875 Q 212.718750 141.625000 216.039062 144.554688 Q 219.359375 147.484375 225.218750 148.265625 Q 230.687500 152.562500 236.156250 155.687500 Q 241.625000 158.812500 247.875000 160.765625 Q 251.000000 165.062500 254.125000 165.843750 Q 253.343750 168.578125 256.078125 169.164062 Q 258.812500 169.750000 259.593750 167.796875 Q 261.156250 171.312500 264.476562 173.070312 Q 267.796875 174.828125 272.093750 176.390625 Z M 244.359375 151.000000 Q 240.843750 152.953125 240.062500 151.781250 Q 239.281250 150.609375 238.500000 149.828125 Q 244.359375 149.046875 244.359375 151.000000 Z M 230.296875 204.515625 Q 228.734375 205.296875 227.757812 205.882812 Q 226.781250 206.468750 226.000000 207.250000 Q 229.515625 210.375000 228.539062 210.570312 Q 227.562500 210.765625 227.953125 212.328125 Q 229.125000 213.109375 230.296875 215.843750 Q 231.468750 218.578125 229.515625 220.531250 Q 227.562500 220.921875 226.195312 220.335937 Q 224.828125 219.750000 223.656250 218.773437 Q 222.484375 217.796875 221.312500 217.015625 Q 220.140625 216.234375 218.187500 216.234375 Q 214.281250 217.015625 214.281250 222.875000 Q 217.015625 224.046875 219.164062 225.218750 Q 221.312500 226.390625 223.265625 227.757812 Q 225.218750 229.125000 226.000000 230.492187 Q 226.781250 231.859375 224.828125 234.203125 Q 222.093750 231.859375 220.921875 232.250000 Q 218.578125 229.125000 217.796875 228.929687 Q 217.015625 228.734375 216.234375 229.125000 Q 213.890625 227.171875 212.718750 227.757812 Q 211.546875 228.343750 211.546875 230.101562 Q 211.546875 231.859375 212.914062 233.812500 Q 214.281250 235.765625 216.625000 236.546875 Q 218.578125 236.937500 218.968750 238.304687 Q 219.359375 239.671875 222.093750 239.281250 Q 223.656250 243.187500 221.703125 246.703125 Q 220.140625 246.312500 218.968750 246.898437 Q 217.796875 247.484375 216.625000 246.703125 Q 216.234375 248.265625 215.257812 248.851562 Q 214.281250 249.437500 214.281250 251.390625 Q 217.015625 252.953125 217.015625 254.320312 Q 217.015625 255.687500 215.843750 257.054687 Q 214.671875 258.421875 212.914062 259.593750 Q 211.156250 260.765625 209.984375 261.546875 Q 210.765625 266.625000 209.203125 268.187500 Q 206.078125 267.796875 203.539062 266.625000 Q 201.000000 265.453125 197.875000 264.671875 Q 197.093750 265.453125 196.312500 266.234375 Q 195.531250 267.015625 195.921875 268.578125 Q 199.828125 270.921875 201.781250 275.609375 Q 200.218750 276.390625 198.460937 275.804687 Q 196.703125 275.218750 195.140625 274.828125 Q 192.015625 276.390625 192.406250 280.296875 Q 192.406250 282.640625 189.867187 283.421875 Q 187.328125 284.203125 184.593750 284.593750 Q 181.859375 284.984375 179.125000 285.179687 Q 176.390625 285.375000 174.046875 286.546875 Q 172.093750 286.156250 168.578125 286.546875 Q 165.062500 286.937500 163.109375 287.718750 Q 159.984375 285.375000 156.078125 286.742187 Q 152.171875 288.109375 148.265625 287.328125 Q 146.312500 288.890625 142.992188 287.718750 Q 139.671875 286.546875 136.546875 286.937500 Q 134.984375 284.203125 133.226562 282.445312 Q 131.468750 280.687500 129.906250 278.734375 Q 130.296875 274.046875 130.296875 271.703125 Q 130.296875 269.359375 128.343750 267.015625 Q 128.343750 265.062500 128.929688 263.695312 Q 129.515625 262.328125 128.343750 260.765625 Q 130.296875 259.203125 132.250000 259.203125 Q 134.203125 259.203125 133.812500 256.859375 Q 131.859375 256.468750 132.250000 254.906250 Q 132.640625 253.343750 131.859375 252.171875 Q 127.953125 251.000000 128.148438 250.218750 Q 128.343750 249.437500 127.562500 248.656250 Q 129.515625 245.531250 129.125000 239.867187 Q 128.734375 234.203125 129.906250 230.687500 Q 127.562500 227.171875 128.539062 227.171875 Q 129.515625 227.171875 129.125000 226.000000 Q 128.343750 221.703125 129.515625 217.992187 Q 130.687500 214.281250 128.734375 209.984375 Q 129.906250 203.343750 128.343750 200.023437 Q 126.781250 196.703125 127.562500 192.406250 Q 129.125000 192.406250 129.320312 190.843750 Q 129.515625 189.281250 131.078125 188.890625 Q 131.859375 190.453125 135.375000 191.234375 Q 136.156250 188.109375 134.398437 186.742187 Q 132.640625 185.375000 130.492187 184.007812 Q 128.343750 182.640625 126.976562 180.882812 Q 125.609375 179.125000 127.171875 175.609375 Q 127.953125 176.390625 129.515625 175.609375 Q 131.078125 174.828125 131.859375 174.046875 Q 129.515625 169.750000 126.390625 168.187500 Q 127.171875 165.453125 126.585937 163.695312 Q 126.000000 161.937500 127.953125 159.984375 Q 131.468750 156.468750 129.320312 156.078125 Q 127.171875 155.687500 126.390625 153.734375 Q 125.609375 151.390625 126.390625 148.656250 Q 127.171875 145.921875 125.218750 142.796875 Q 126.000000 142.015625 126.585937 140.843750 Q 127.171875 139.671875 127.953125 138.890625 Q 133.421875 139.281250 139.867187 138.890625 Q 146.312500 138.500000 152.562500 139.281250 Q 160.375000 136.546875 168.382812 138.890625 Q 176.390625 141.234375 184.203125 141.234375 Q 186.937500 142.015625 189.476562 142.992187 Q 192.015625 143.968750 192.796875 147.093750 Q 202.953125 149.046875 210.570312 153.343750 Q 218.187500 157.640625 222.093750 166.234375 Q 222.875000 169.359375 223.460937 170.921875 Q 224.046875 172.484375 224.437500 174.242187 Q 224.828125 176.000000 225.218750 177.757812 Q 225.609375 179.515625 226.781250 180.296875 Q 227.953125 183.421875 229.125000 187.914062 Q 230.296875 192.406250 229.125000 197.875000 Q 231.078125 197.484375 231.078125 200.609375 Q 231.078125 203.734375 230.296875 204.515625 Z M 117.796875 271.312500 Q 114.671875 274.437500 114.085937 274.242187 Q 113.500000 274.046875 113.109375 275.218750 Q 110.375000 277.171875 106.859375 279.515625 Q 109.203125 274.828125 109.203125 272.875000 Q 112.718750 273.265625 113.109375 272.679687 Q 113.500000 272.093750 113.500000 271.312500 Q 116.234375 270.921875 117.210937 270.726562 Q 118.187500 270.531250 117.796875 271.312500 Z M 238.109375 146.312500 Q 238.109375 147.093750 236.156250 147.289062 Q 234.203125 147.484375 233.812500 147.093750 Q 236.156250 146.312500 238.109375 146.312500 Z M 99.046875 288.890625 Q 96.703125 293.187500 95.921875 291.429687 Q 95.140625 289.671875 93.578125 288.890625 Q 92.796875 289.671875 91.039062 289.671875 Q 89.281250 289.671875 88.109375 290.453125 Q 85.375000 286.937500 84.398438 286.937500 Q 83.421875 286.937500 82.640625 286.156250 Q 84.984375 284.984375 87.328125 284.203125 Q 89.671875 283.421875 92.015625 283.812500 Q 92.796875 287.328125 92.992188 288.109375 Q 93.187500 288.890625 93.968750 288.500000 Q 96.703125 290.062500 99.046875 288.890625 Z M 122.093750 293.968750 Q 116.625000 294.359375 113.890625 291.234375 Q 111.156250 288.109375 107.640625 288.109375 Q 102.953125 285.765625 101.976562 285.570312 Q 101.000000 285.375000 99.828125 286.156250 Q 98.265625 284.203125 96.312500 283.226562 Q 94.359375 282.250000 92.796875 280.296875 Q 88.890625 279.515625 88.500000 278.343750 Q 88.109375 277.171875 86.937500 276.781250 Q 84.984375 277.171875 84.398438 278.343750 Q 83.812500 279.515625 81.859375 279.125000 Q 82.250000 277.171875 83.617188 276.976562 Q 84.984375 276.781250 84.203125 274.828125 Q 80.296875 274.828125 79.320312 274.242187 Q 78.343750 273.656250 77.562500 272.875000 Q 80.296875 277.171875 79.515625 279.906250 Q 74.437500 277.953125 73.265625 276.976562 Q 72.093750 276.000000 70.140625 275.218750 Q 74.046875 274.046875 74.046875 274.632812 Q 74.046875 275.218750 74.828125 275.609375 Q 74.046875 270.921875 75.609375 271.703125 Q 77.171875 272.484375 77.171875 270.531250 Q 72.875000 268.187500 73.070312 267.601562 Q 73.265625 267.015625 72.484375 265.453125 Q 73.265625 266.234375 74.828125 266.234375 Q 76.390625 266.234375 77.562500 267.015625 Q 74.437500 262.328125 73.070312 261.742187 Q 71.703125 261.156250 72.484375 258.031250 Q 75.218750 258.421875 76.390625 259.398437 Q 77.562500 260.375000 79.515625 260.375000 Q 81.468750 258.421875 83.617188 259.789062 Q 85.765625 261.156250 87.718750 263.109375 Q 85.765625 263.890625 83.421875 262.328125 Q 81.078125 260.765625 80.296875 260.765625 Q 84.203125 263.109375 84.984375 265.062500 Q 88.890625 264.281250 90.257812 264.476562 Q 91.625000 264.671875 92.015625 266.234375 Q 90.843750 267.015625 91.820312 268.187500 Q 92.796875 269.359375 92.015625 270.531250 Q 95.140625 269.750000 95.726562 271.507812 Q 96.312500 273.265625 98.656250 273.265625 Q 99.437500 277.171875 100.218750 277.562500 Q 101.000000 277.953125 101.781250 278.148437 Q 102.562500 278.343750 103.343750 278.539062 Q 104.125000 278.734375 104.125000 279.906250 Q 102.171875 280.687500 101.390625 279.320312 Q 100.609375 277.953125 99.828125 279.515625 Q 101.000000 281.468750 103.148438 281.664062 Q 105.296875 281.859375 108.031250 282.640625 Q 111.546875 287.718750 113.890625 287.523437 Q 116.234375 287.328125 117.796875 287.328125 Q 118.578125 289.281250 120.335938 290.257812 Q 122.093750 291.234375 122.093750 293.968750 Z M 233.031250 143.187500 Q 229.125000 143.968750 229.125000 145.335937 Q 229.125000 146.703125 227.953125 146.312500 Q 228.343750 143.578125 225.804687 142.992187 Q 223.265625 142.406250 222.484375 140.062500 Q 224.828125 140.062500 228.343750 140.648438 Q 231.859375 141.234375 233.031250 143.187500 Z M 85.765625 279.906250 Q 83.812500 280.687500 82.445312 281.468750 Q 81.078125 282.250000 80.687500 280.687500 Q 82.640625 280.296875 83.617188 280.492187 Q 84.593750 280.687500 85.765625 279.906250 Z M 79.906250 291.234375 Q 77.953125 290.843750 75.609375 290.843750 Q 73.265625 290.843750 71.312500 290.062500 Q 66.234375 293.187500 67.015625 290.453125 Q 67.406250 284.984375 71.312500 285.570312 Q 75.218750 286.156250 79.515625 288.109375 Z M 121.703125 239.671875 L 121.703125 243.968750 Q 117.796875 243.968750 117.406250 243.968750 Q 117.015625 243.968750 116.625000 243.968750 Q 116.234375 243.968750 115.843750 244.164062 Q 115.453125 244.359375 115.453125 245.921875 Q 114.281250 245.140625 113.304688 244.945312 Q 112.328125 244.750000 111.937500 243.187500 Q 111.156250 246.312500 112.914062 246.703125 Q 114.671875 247.093750 116.234375 246.703125 Q 118.968750 244.750000 119.554687 244.554687 Q 120.140625 244.359375 120.921875 244.359375 Q 120.140625 246.312500 120.531250 248.070312 Q 120.921875 249.828125 121.312500 251.390625 Q 121.703125 252.953125 121.703125 254.320312 Q 121.703125 255.687500 119.750000 256.468750 Q 121.312500 257.250000 122.289062 259.398437 Q 123.265625 261.546875 122.875000 263.500000 Q 122.484375 265.453125 120.921875 266.625000 Q 119.359375 267.796875 116.625000 266.625000 Q 114.671875 263.890625 113.500000 262.523437 Q 112.328125 261.156250 111.546875 259.593750 Q 108.421875 256.859375 107.445312 257.054687 Q 106.468750 257.250000 104.515625 258.031250 Q 104.125000 256.859375 104.515625 255.492187 Q 104.906250 254.125000 103.343750 252.953125 Q 100.218750 252.953125 99.046875 251.781250 Q 97.875000 250.609375 95.921875 249.828125 Q 94.359375 251.000000 93.382812 250.609375 Q 92.406250 250.218750 91.625000 249.437500 Q 90.843750 248.656250 89.867187 247.484375 Q 88.890625 246.312500 87.718750 246.312500 Q 87.718750 244.359375 88.500000 243.773437 Q 89.281250 243.187500 89.281250 242.015625 Q 85.765625 240.843750 81.468750 238.109375 Q 84.203125 243.187500 83.031250 245.335937 Q 81.859375 247.484375 84.984375 246.703125 Q 87.328125 249.046875 90.257812 250.414062 Q 93.187500 251.781250 95.531250 254.125000 Q 97.093750 254.125000 98.460938 253.929687 Q 99.828125 253.734375 100.218750 254.906250 Q 100.609375 258.031250 103.734375 260.570312 Q 106.859375 263.109375 111.156250 265.453125 Q 113.109375 267.796875 115.453125 270.140625 Q 112.328125 270.531250 108.421875 269.750000 Q 104.515625 268.968750 100.609375 268.187500 Q 101.390625 270.140625 100.414062 271.312500 Q 99.437500 272.484375 101.000000 272.484375 Q 102.953125 272.875000 104.515625 272.093750 Q 106.078125 271.312500 107.640625 272.093750 Q 106.468750 273.656250 104.125000 273.460937 Q 101.781250 273.265625 102.562500 276.000000 Q 100.609375 274.828125 99.632812 273.070312 Q 98.656250 271.312500 96.312500 270.140625 Q 94.750000 266.234375 93.187500 263.500000 Q 91.625000 260.765625 88.109375 261.546875 Q 87.328125 259.593750 85.765625 259.203125 Q 84.203125 258.812500 83.421875 257.640625 Q 82.250000 254.906250 81.468750 255.687500 Q 80.687500 256.468750 79.125000 256.078125 Q 77.171875 255.296875 76.585938 253.734375 Q 76.000000 252.171875 73.265625 252.562500 Q 73.265625 249.046875 72.289062 246.703125 Q 71.312500 244.359375 69.750000 245.140625 Q 70.921875 243.578125 69.945312 241.429687 Q 68.968750 239.281250 70.921875 238.500000 Q 72.093750 238.500000 73.070312 239.867187 Q 74.046875 241.234375 75.609375 240.062500 Q 76.000000 237.718750 77.562500 238.890625 Q 79.125000 240.062500 81.078125 239.671875 Q 79.906250 235.765625 78.148438 235.375000 Q 76.390625 234.984375 75.218750 234.203125 Q 70.921875 231.078125 71.312500 228.343750 Q 71.703125 225.609375 70.921875 223.656250 Q 72.875000 222.875000 72.484375 220.531250 Q 72.093750 218.187500 74.046875 217.015625 Q 76.000000 217.406250 76.976562 217.210937 Q 77.953125 217.015625 78.734375 216.234375 Q 82.640625 217.406250 82.640625 220.921875 Q 84.593750 224.828125 86.156250 224.242187 Q 87.718750 223.656250 87.718750 224.437500 Q 86.937500 226.000000 87.718750 227.562500 Q 88.500000 229.125000 89.867187 230.296875 Q 91.234375 231.468750 92.992188 232.054687 Q 94.750000 232.640625 95.531250 232.640625 Q 94.750000 231.859375 94.164062 230.296875 Q 93.578125 228.734375 91.625000 229.906250 Q 91.625000 226.390625 91.234375 225.609375 Q 97.093750 227.171875 100.609375 230.687500 Q 101.781250 235.765625 103.539062 236.937500 Q 105.296875 238.109375 107.250000 238.890625 Q 109.593750 241.234375 110.375000 241.234375 Q 111.156250 241.234375 113.109375 241.625000 L 109.984375 238.500000 Q 106.468750 237.328125 105.882812 236.546875 Q 105.296875 235.765625 103.734375 236.546875 Q 102.953125 234.593750 103.734375 233.617187 Q 104.515625 232.640625 105.687500 231.859375 Q 106.078125 233.031250 106.664062 234.007812 Q 107.250000 234.984375 108.031250 235.765625 Q 111.156250 234.984375 114.867188 236.351562 Q 118.578125 237.718750 121.703125 239.671875 Z M 121.703125 222.093750 Q 118.968750 223.265625 117.601562 222.484375 Q 116.234375 221.703125 115.453125 222.875000 Q 112.328125 219.359375 114.281250 219.554687 Q 116.234375 219.750000 116.234375 217.796875 Q 120.140625 220.921875 120.531250 221.507812 Q 120.921875 222.093750 121.703125 222.093750 Z M 123.265625 209.984375 Q 119.359375 209.984375 117.796875 211.546875 Q 117.015625 208.421875 115.062500 206.468750 Q 113.109375 204.515625 108.812500 206.078125 Q 108.812500 202.562500 109.984375 203.929687 Q 111.156250 205.296875 113.109375 203.734375 Q 115.453125 201.781250 116.429687 202.757812 Q 117.406250 203.734375 118.968750 203.734375 Q 120.921875 206.468750 122.484375 207.054687 Q 124.046875 207.640625 123.265625 209.984375 Z M 89.671875 227.562500 Q 88.890625 226.390625 88.109375 225.023437 Q 87.328125 223.656250 88.890625 222.875000 Q 88.890625 224.046875 89.476562 225.414062 Q 90.062500 226.781250 89.671875 227.562500 Z M 120.531250 235.375000 Q 115.843750 233.812500 114.281250 233.812500 Q 112.328125 232.250000 110.765625 232.640625 Q 109.203125 233.031250 108.421875 233.812500 Q 109.203125 231.078125 109.007812 230.492187 Q 108.812500 229.906250 108.031250 229.125000 Q 104.125000 229.125000 103.343750 229.906250 Q 102.562500 227.953125 102.171875 227.171875 Q 101.781250 226.390625 101.000000 224.828125 Q 99.046875 226.781250 98.070312 224.828125 Q 97.093750 222.875000 95.140625 223.656250 Q 93.578125 221.703125 91.429688 220.726562 Q 89.281250 219.750000 87.328125 218.578125 Q 87.718750 216.625000 85.570312 216.625000 Q 83.421875 216.625000 82.640625 216.234375 Q 80.296875 213.500000 79.906250 212.523437 Q 79.515625 211.546875 76.781250 211.937500 Q 76.390625 209.593750 74.828125 208.812500 Q 73.265625 208.031250 73.265625 205.687500 Q 72.875000 204.125000 72.289062 201.781250 Q 71.703125 199.437500 73.656250 198.656250 Q 75.218750 201.000000 78.148438 202.757812 Q 81.078125 204.515625 84.203125 204.125000 Q 86.546875 206.468750 88.304688 209.398437 Q 90.062500 212.328125 93.187500 210.765625 Q 93.968750 213.109375 95.531250 214.671875 Q 97.093750 216.234375 99.437500 215.453125 Q 101.781250 218.578125 102.953125 219.359375 Q 104.125000 220.140625 107.250000 219.359375 Q 111.546875 221.312500 111.546875 223.265625 Q 113.890625 227.171875 115.062500 228.343750 Q 116.234375 229.515625 117.796875 228.734375 Q 117.796875 231.078125 119.554687 231.664062 Q 121.312500 232.250000 120.531250 235.375000 Z M 116.625000 198.656250 Q 115.843750 200.218750 113.304688 199.437500 Q 110.765625 198.656250 109.984375 196.703125 Q 111.156250 195.921875 112.914062 197.093750 Q 114.671875 198.265625 116.625000 198.656250 Z M 123.265625 217.796875 Q 121.703125 218.187500 120.531250 217.796875 Q 119.359375 217.406250 118.382812 216.820312 Q 117.406250 216.234375 116.429687 216.039062 Q 115.453125 215.843750 114.281250 216.625000 Q 111.937500 215.453125 110.570312 214.867187 Q 109.203125 214.281250 108.031250 215.453125 Q 108.031250 217.796875 110.375000 217.210937 Q 112.718750 216.625000 112.718750 219.359375 Q 107.250000 219.359375 101.000000 215.843750 Q 106.078125 217.015625 106.078125 216.234375 Q 106.078125 214.281250 107.250000 213.500000 Q 108.421875 212.718750 109.203125 212.718750 Q 106.078125 210.765625 102.757812 209.789062 Q 99.437500 208.812500 97.484375 206.078125 Q 92.406250 204.125000 91.429688 203.148437 Q 90.453125 202.171875 89.671875 200.218750 Q 87.718750 199.437500 86.351562 200.023437 Q 84.984375 200.609375 83.421875 199.437500 Q 82.640625 197.484375 79.906250 196.507812 Q 77.171875 195.531250 75.609375 192.406250 Q 73.656250 190.062500 72.679687 188.695312 Q 71.703125 187.328125 70.140625 186.156250 Q 74.828125 184.593750 77.562500 184.203125 Q 81.468750 186.937500 81.664062 187.914062 Q 81.859375 188.890625 82.640625 188.890625 Q 83.031250 188.500000 84.203125 188.695312 Q 85.375000 188.890625 86.937500 188.500000 Q 89.281250 189.671875 89.867187 190.257812 Q 90.453125 190.843750 90.648438 192.015625 Q 90.843750 193.187500 90.843750 194.554687 Q 90.843750 195.921875 91.625000 196.312500 Q 95.921875 197.484375 97.679688 199.632812 Q 99.437500 201.781250 103.734375 202.171875 Q 106.859375 204.515625 107.250000 205.492187 Q 107.640625 206.468750 108.421875 207.250000 Q 109.203125 205.296875 110.570312 206.859375 Q 111.937500 208.421875 112.718750 206.468750 Q 111.937500 207.640625 113.304688 209.203125 Q 114.671875 210.765625 113.500000 212.718750 Q 115.843750 212.718750 117.015625 213.500000 Q 118.187500 214.281250 120.531250 214.281250 Q 120.921875 215.453125 121.703125 216.039062 Q 122.484375 216.625000 123.265625 217.796875 Z M 111.546875 191.625000 Q 110.375000 195.140625 107.640625 193.578125 Q 104.515625 194.750000 101.585938 193.968750 Q 98.656250 193.187500 95.921875 192.406250 Q 94.359375 190.843750 91.625000 191.625000 Q 91.625000 188.109375 91.625000 186.937500 Q 93.187500 186.156250 94.359375 185.765625 Q 95.531250 185.375000 97.093750 186.546875 Q 99.828125 185.765625 100.414062 187.132812 Q 101.000000 188.500000 101.000000 190.062500 Q 101.000000 190.843750 102.562500 190.843750 Q 104.125000 190.843750 105.687500 190.843750 Z M 104.125000 190.062500 Q 101.781250 185.375000 103.734375 184.984375 Q 103.734375 185.765625 104.710937 187.523437 Q 105.687500 189.281250 104.125000 190.062500 Z M 96.312500 182.250000 Q 93.968750 181.468750 91.820312 181.273437 Q 89.671875 181.078125 88.890625 179.906250 Q 88.890625 183.421875 88.304688 183.617187 Q 87.718750 183.812500 88.500000 185.765625 Q 84.593750 184.984375 83.226562 182.640625 Q 81.859375 180.296875 77.562500 181.078125 Q 80.296875 178.734375 79.125000 177.562500 Q 77.953125 176.390625 75.609375 176.781250 Q 73.265625 173.265625 72.484375 172.875000 Q 71.703125 172.484375 70.921875 172.484375 Q 70.140625 169.750000 70.140625 167.406250 Q 70.140625 165.062500 70.921875 162.328125 Q 73.656250 164.281250 75.218750 166.625000 Q 76.781250 168.968750 80.296875 169.750000 Q 82.640625 173.656250 83.812500 175.609375 Q 84.593750 173.656250 86.546875 174.828125 Q 88.500000 176.000000 89.281250 176.781250 Q 88.500000 178.734375 87.328125 178.148437 Q 86.156250 177.562500 84.984375 179.125000 Q 87.718750 179.515625 88.500000 179.515625 Q 89.281250 179.515625 89.281250 178.734375 Q 91.234375 178.734375 92.601562 179.320312 Q 93.968750 179.906250 95.921875 179.906250 Z M 123.656250 192.015625 Q 118.187500 190.843750 114.671875 188.695312 Q 111.156250 186.546875 107.640625 183.812500 Q 101.781250 183.812500 100.609375 179.515625 Q 97.484375 177.953125 94.554687 176.781250 Q 91.625000 175.609375 89.671875 172.875000 Q 84.984375 170.921875 81.273438 168.187500 Q 77.562500 165.453125 74.046875 162.328125 Q 76.781250 161.937500 77.757812 162.914062 Q 78.734375 163.890625 80.687500 164.281250 Q 78.734375 162.328125 76.585938 160.765625 Q 74.437500 159.203125 72.093750 159.593750 Q 71.312500 158.031250 70.140625 156.078125 Q 68.968750 154.125000 70.921875 152.171875 Q 73.656250 153.343750 74.828125 154.515625 Q 76.000000 155.687500 78.734375 156.468750 Q 77.171875 155.296875 76.390625 153.929687 Q 75.609375 152.562500 73.656250 152.171875 Q 73.265625 150.218750 75.023437 149.632812 Q 76.781250 149.046875 77.171875 149.046875 Q 74.437500 148.265625 72.875000 145.140625 Q 71.312500 142.015625 73.265625 139.281250 Q 76.390625 139.671875 78.343750 140.843750 Q 80.296875 142.015625 81.468750 140.453125 Q 80.296875 137.718750 76.000000 138.500000 Q 76.390625 136.546875 75.023437 135.960938 Q 73.656250 135.375000 73.265625 133.421875 Q 75.218750 132.640625 76.195312 133.617188 Q 77.171875 134.593750 77.953125 133.812500 Q 76.000000 132.640625 74.828125 130.882812 Q 73.656250 129.125000 73.656250 125.609375 Q 76.781250 127.562500 80.296875 129.320312 Q 83.812500 131.078125 84.984375 133.421875 Q 89.281250 135.765625 90.062500 133.812500 Q 87.328125 130.687500 87.132812 131.273438 Q 86.937500 131.859375 85.765625 131.859375 Q 82.640625 128.734375 79.515625 126.000000 Q 76.390625 123.265625 73.265625 121.312500 Q 72.484375 115.453125 72.679687 111.937500 Q 72.875000 108.421875 72.875000 105.296875 Q 75.609375 105.296875 76.976562 105.687500 Q 78.343750 106.078125 79.515625 106.859375 Q 79.515625 104.906250 80.101562 103.539062 Q 80.687500 102.171875 80.296875 100.218750 Q 76.390625 98.656250 72.875000 95.140625 Q 69.359375 91.625000 72.875000 87.328125 Q 74.828125 88.109375 76.195312 90.062500 Q 77.562500 92.015625 77.953125 93.578125 Q 84.203125 96.703125 88.109375 99.046875 Q 92.015625 101.390625 93.968750 105.296875 Q 95.140625 102.562500 95.921875 103.929687 Q 96.703125 105.296875 99.437500 105.687500 Q 99.828125 103.734375 103.734375 103.734375 Q 105.687500 107.250000 105.687500 108.421875 Q 101.000000 108.031250 100.414062 108.031250 Q 99.828125 108.031250 99.437500 108.421875 Q 101.390625 109.593750 103.148438 110.765625 Q 104.906250 111.937500 106.859375 113.500000 Q 107.640625 112.328125 109.593750 114.671875 Q 111.546875 117.015625 113.500000 115.062500 Q 111.546875 113.890625 109.984375 112.914062 Q 108.421875 111.937500 107.250000 109.593750 Q 112.328125 108.812500 114.671875 111.156250 Q 117.015625 113.500000 121.312500 114.281250 Q 121.703125 117.796875 121.703125 118.968750 Q 118.187500 118.187500 117.210937 117.601562 Q 116.234375 117.015625 115.453125 116.234375 Q 115.062500 118.187500 115.062500 120.531250 Q 115.062500 122.875000 116.625000 123.656250 Q 121.312500 126.781250 121.703125 124.437500 Q 121.703125 126.390625 121.703125 127.953125 Q 121.703125 129.515625 120.921875 131.468750 Q 122.484375 135.765625 121.898437 137.132812 Q 121.312500 138.500000 122.484375 139.671875 Q 119.359375 143.187500 118.968750 142.601562 Q 118.578125 142.015625 117.015625 142.015625 Q 117.406250 144.750000 119.164062 144.359375 Q 120.921875 143.968750 121.703125 145.531250 Q 121.312500 146.703125 121.507812 148.460938 Q 121.703125 150.218750 120.531250 151.000000 Q 117.406250 153.734375 114.867188 152.757812 Q 112.328125 151.781250 111.156250 151.781250 Q 114.281250 154.906250 115.843750 155.101562 Q 117.406250 155.296875 118.968750 156.468750 Q 120.140625 158.031250 121.312500 160.570312 Q 122.484375 163.109375 121.703125 165.062500 Q 117.015625 163.109375 113.304688 161.546875 Q 109.593750 159.984375 106.078125 158.031250 Q 103.734375 154.125000 101.976562 153.734375 Q 100.218750 153.343750 98.656250 152.562500 Q 95.531250 151.000000 95.335938 150.218750 Q 95.140625 149.437500 93.968750 148.656250 Q 92.406250 147.484375 90.062500 146.703125 Q 87.718750 145.921875 85.765625 144.359375 Q 83.812500 143.187500 82.835937 142.015625 Q 81.859375 140.843750 79.125000 142.796875 Q 83.421875 143.187500 82.835937 143.773438 Q 82.250000 144.359375 82.640625 145.921875 Q 85.765625 146.312500 87.328125 146.898438 Q 88.890625 147.484375 91.625000 148.656250 Q 94.359375 154.125000 96.898437 155.882812 Q 99.437500 157.640625 104.125000 157.640625 Q 104.515625 159.593750 105.882812 159.789062 Q 107.250000 159.984375 108.812500 159.984375 Q 110.375000 163.500000 112.328125 164.281250 Q 114.281250 165.062500 115.062500 167.406250 Q 112.718750 167.015625 110.960938 166.234375 Q 109.203125 165.453125 106.078125 165.062500 Q 109.984375 167.406250 110.570312 167.796875 Q 111.156250 168.187500 111.937500 168.968750 Q 113.890625 168.578125 114.867188 169.164062 Q 115.843750 169.750000 117.406250 170.140625 Q 119.359375 172.484375 120.140625 173.070312 Q 120.921875 173.656250 121.703125 174.046875 Q 121.703125 174.828125 121.898437 176.390625 Q 122.093750 177.953125 121.312500 178.734375 Q 117.796875 178.734375 114.867188 176.976562 Q 111.937500 175.218750 109.203125 173.265625 Q 106.468750 171.312500 103.343750 169.945312 Q 100.218750 168.578125 96.312500 168.578125 Q 98.265625 172.484375 98.460938 171.703125 Q 98.656250 170.921875 99.828125 171.312500 Q 99.828125 173.656250 101.976562 174.437500 Q 104.125000 175.218750 105.687500 175.218750 Q 107.640625 176.781250 108.031250 177.562500 Q 108.421875 178.343750 110.375000 178.343750 Q 116.625000 181.078125 120.140625 184.007812 Q 123.656250 186.937500 123.656250 192.015625 Z M 120.531250 105.296875 Q 117.015625 105.687500 116.234375 103.734375 Q 115.453125 101.781250 113.500000 100.609375 Q 117.796875 101.000000 119.359375 101.781250 Q 120.921875 102.562500 120.531250 105.296875 Z M 116.234375 109.593750 Q 113.890625 108.812500 112.328125 107.054687 Q 110.765625 105.296875 107.640625 106.078125 Q 103.343750 104.515625 101.390625 102.171875 Q 99.437500 99.828125 97.093750 100.218750 Q 96.312500 98.265625 94.750000 97.289062 Q 93.187500 96.312500 91.625000 97.875000 Q 90.062500 94.750000 87.328125 92.992188 Q 84.593750 91.234375 81.468750 90.453125 Q 78.343750 85.375000 75.609375 84.984375 Q 72.875000 84.593750 72.093750 85.375000 Q 71.703125 82.640625 70.726562 79.710938 Q 69.750000 76.781250 72.875000 76.390625 Q 74.046875 77.171875 74.828125 78.734375 Q 75.609375 80.296875 77.562500 80.296875 Q 78.343750 81.859375 81.273438 83.421875 Q 84.203125 84.984375 86.937500 84.593750 Q 87.718750 88.500000 89.281250 88.890625 Q 90.843750 89.281250 92.015625 90.453125 Q 92.796875 89.671875 93.578125 88.890625 Q 94.359375 88.109375 95.531250 87.718750 Q 95.921875 90.062500 94.359375 90.257812 Q 92.796875 90.453125 92.796875 92.015625 Q 96.703125 92.796875 99.046875 95.531250 Q 101.390625 98.265625 104.906250 98.656250 Q 106.078125 99.437500 106.859375 101.000000 Q 107.640625 102.562500 109.593750 101.781250 Q 111.156250 102.953125 112.523438 104.320312 Q 113.890625 105.687500 115.843750 106.468750 Z M 120.531250 73.656250 Q 117.796875 73.656250 116.234375 73.460938 Q 114.671875 73.265625 113.109375 74.046875 Q 116.234375 69.750000 110.375000 69.359375 Q 109.203125 67.796875 107.640625 66.234375 Q 106.078125 64.671875 103.734375 65.453125 Q 102.171875 63.890625 100.609375 63.500000 Q 99.046875 63.109375 99.046875 63.890625 Q 99.437500 66.234375 103.343750 66.234375 Q 104.906250 67.796875 106.664062 70.335938 Q 108.421875 72.875000 111.546875 70.921875 Q 112.328125 72.093750 112.328125 73.070312 Q 112.328125 74.046875 112.718750 75.218750 Q 115.062500 76.000000 116.234375 77.171875 Q 117.406250 78.343750 119.750000 78.734375 Q 120.140625 84.593750 120.531250 87.914062 Q 120.921875 91.234375 117.406250 91.234375 Q 116.234375 91.234375 115.453125 89.867187 Q 114.671875 88.500000 113.109375 87.718750 Q 111.546875 86.937500 109.789062 85.765625 Q 108.031250 84.593750 106.078125 85.375000 Q 106.468750 83.421875 104.125000 82.445312 Q 101.781250 81.468750 100.218750 79.906250 Q 104.515625 84.984375 109.203125 87.914062 Q 113.890625 90.843750 117.406250 95.140625 Q 117.015625 97.484375 115.453125 98.460937 Q 113.890625 99.437500 112.328125 100.609375 Q 111.156250 99.828125 110.570312 98.851562 Q 109.984375 97.875000 108.031250 97.875000 Q 110.375000 96.312500 110.765625 97.289062 Q 111.156250 98.265625 113.109375 98.265625 Q 113.109375 95.531250 111.742187 95.531250 Q 110.375000 95.531250 109.203125 95.140625 Q 108.031250 93.578125 106.859375 92.992188 Q 105.687500 92.406250 104.320312 91.429688 Q 102.953125 90.453125 101.781250 89.867187 Q 100.609375 89.281250 99.437500 90.062500 Q 95.531250 86.937500 95.140625 85.570312 Q 94.750000 84.203125 91.625000 84.593750 Q 89.671875 80.687500 84.203125 80.296875 Q 81.859375 75.609375 76.390625 74.437500 Q 76.390625 72.093750 74.828125 71.312500 Q 73.265625 70.531250 71.703125 69.750000 Q 70.921875 64.281250 74.828125 63.890625 Q 77.171875 64.671875 77.757812 63.890625 Q 78.343750 63.109375 79.515625 62.718750 Q 78.734375 61.937500 79.125000 60.570312 Q 79.515625 59.203125 77.562500 58.812500 Q 72.484375 56.859375 72.093750 53.343750 Q 71.703125 49.828125 72.484375 46.312500 Q 74.437500 45.921875 75.218750 46.898437 Q 76.000000 47.875000 77.171875 48.265625 Q 79.906250 47.484375 79.906250 49.046875 Q 79.906250 50.609375 81.078125 51.390625 Q 84.203125 52.171875 85.179687 53.148438 Q 86.156250 54.125000 88.109375 54.515625 Q 87.328125 57.250000 89.281250 58.031250 Q 91.234375 58.812500 93.578125 59.203125 Q 95.140625 60.765625 96.312500 61.546875 Q 97.484375 62.328125 97.484375 63.500000 Q 100.609375 62.718750 103.148438 62.132812 Q 105.687500 61.546875 105.296875 59.593750 Q 100.609375 56.468750 100.414062 57.250000 Q 100.218750 58.031250 99.437500 58.031250 Q 93.187500 53.734375 90.062500 50.218750 Q 86.937500 46.703125 81.078125 45.921875 Q 81.078125 43.968750 79.906250 42.992188 Q 78.734375 42.015625 77.562500 41.429687 Q 76.390625 40.843750 75.609375 40.062500 Q 74.828125 39.281250 75.609375 38.109375 Q 78.734375 40.062500 82.250000 42.406250 Q 85.765625 44.750000 90.062500 43.578125 Q 91.234375 45.921875 92.210937 46.898437 Q 93.187500 47.875000 95.921875 48.265625 Q 97.875000 51.390625 99.828125 51.585937 Q 101.781250 51.781250 101.000000 53.343750 Q 104.125000 53.734375 106.273438 55.687500 Q 108.421875 57.640625 110.375000 59.593750 Q 112.328125 59.984375 113.304688 59.984375 Q 114.281250 59.984375 115.062500 60.375000 L 118.187500 63.890625 Q 117.796875 67.015625 119.164062 68.773438 Q 120.531250 70.531250 120.531250 73.656250 Z M 104.906250 51.000000 Q 102.171875 51.000000 100.804688 50.414062 Q 99.437500 49.828125 100.609375 48.656250 Q 101.390625 49.437500 102.953125 49.632812 Q 104.515625 49.828125 104.906250 51.000000 Z M 120.140625 32.250000 Q 120.140625 37.718750 118.968750 43.382812 Q 117.796875 49.046875 119.750000 55.296875 Q 117.406250 56.078125 118.382812 57.835938 Q 119.359375 59.593750 117.015625 60.375000 Q 115.062500 59.593750 114.281250 58.226562 Q 113.500000 56.859375 110.375000 57.640625 Q 109.984375 56.078125 108.617188 55.492187 Q 107.250000 54.906250 106.859375 53.343750 Q 108.812500 52.171875 109.593750 52.757812 Q 110.375000 53.343750 111.546875 53.539062 Q 112.718750 53.734375 113.890625 53.539062 Q 115.062500 53.343750 115.453125 52.171875 Q 114.671875 49.828125 111.937500 47.875000 Q 110.375000 48.656250 109.007812 49.437500 Q 107.640625 50.218750 105.296875 49.828125 Q 106.078125 47.875000 108.031250 48.265625 Q 109.984375 48.656250 109.984375 46.703125 Q 105.687500 45.140625 104.710937 44.359375 Q 103.734375 43.578125 101.781250 42.796875 Q 103.343750 41.625000 102.953125 40.453125 Q 102.562500 39.281250 103.343750 37.718750 Q 107.640625 39.281250 108.617188 39.281250 Q 109.593750 39.281250 110.375000 38.500000 Q 110.765625 36.156250 109.203125 35.570312 Q 107.640625 34.984375 106.859375 34.203125 Q 105.687500 31.859375 104.515625 30.882812 Q 103.343750 29.906250 101.390625 29.125000 Q 99.046875 27.562500 98.265625 26.781250 Q 97.484375 26.000000 96.703125 26.781250 Q 99.437500 22.484375 100.218750 23.656250 Q 101.000000 24.828125 101.781250 26.000000 Q 104.906250 26.000000 105.492188 26.976562 Q 106.078125 27.953125 108.031250 27.171875 Q 112.328125 30.296875 114.671875 31.468750 Q 117.015625 32.640625 120.140625 32.250000 Z M 100.218750 41.625000 Q 100.609375 40.062500 99.437500 39.085938 Q 98.265625 38.109375 99.437500 36.156250 Q 100.218750 37.328125 100.804688 38.890625 Q 101.390625 40.453125 100.218750 41.625000 Z M 122.484375 20.140625 Q 122.484375 22.093750 121.312500 23.070312 Q 120.140625 24.046875 120.140625 26.000000 Q 117.406250 24.046875 115.843750 22.484375 Q 114.281250 20.921875 112.328125 21.703125 Q 112.718750 18.187500 114.281250 17.406250 Q 115.843750 18.968750 117.601562 19.945312 Q 119.359375 20.921875 122.484375 20.140625 Z M 129.515625 13.500000 Q 127.171875 15.453125 123.460937 15.843750 Q 119.750000 16.234375 117.406250 18.578125 Q 115.453125 15.453125 112.328125 13.890625 Q 115.453125 13.500000 119.164062 12.718750 Q 122.875000 11.937500 126.000000 13.890625 Z M 116.625000 29.515625 Q 113.109375 26.781250 111.156250 26.390625 Q 109.203125 26.000000 108.031250 24.828125 Q 105.296875 24.437500 102.757812 23.656250 Q 100.218750 22.875000 99.437500 20.921875 Q 98.656250 20.531250 95.921875 19.359375 Q 93.187500 18.187500 92.015625 17.015625 Q 88.109375 14.671875 87.718750 14.281250 Q 87.328125 13.890625 85.375000 13.890625 Q 91.234375 11.546875 95.531250 10.960938 Q 99.828125 10.375000 103.343750 13.890625 Q 102.171875 15.843750 103.539062 17.601562 Q 104.906250 19.359375 106.078125 20.921875 Q 106.859375 22.484375 108.812500 23.070312 Q 110.765625 23.656250 111.937500 25.218750 Q 114.281250 25.609375 114.867188 26.781250 Q 115.453125 27.953125 116.625000 29.515625 Z M 99.828125 43.578125 Q 97.484375 45.531250 96.312500 46.117188 Q 95.140625 46.703125 93.968750 45.531250 Q 92.796875 40.843750 92.015625 40.453125 Q 91.234375 40.062500 90.062500 40.062500 Q 88.890625 40.062500 87.523437 40.062500 Q 86.156250 40.062500 85.375000 38.890625 Q 81.078125 37.328125 81.859375 36.351562 Q 82.640625 35.375000 82.640625 34.593750 Q 79.906250 34.203125 77.953125 34.203125 Q 76.000000 34.203125 76.000000 31.078125 Q 73.656250 29.906250 71.703125 27.953125 Q 69.750000 26.000000 68.968750 22.484375 Q 71.312500 22.875000 72.875000 24.437500 Q 74.437500 26.000000 75.609375 27.367187 Q 76.781250 28.734375 78.539062 29.710938 Q 80.296875 30.687500 83.421875 29.906250 Q 83.421875 31.859375 84.593750 33.031250 Q 85.765625 34.203125 87.328125 35.375000 Q 91.234375 38.109375 93.773438 40.453125 Q 96.312500 42.796875 99.828125 43.578125 Z M 105.687500 35.765625 Q 100.218750 36.546875 96.898437 33.226562 Q 93.578125 29.906250 89.281250 29.125000 Q 88.500000 26.781250 86.546875 26.195312 Q 84.593750 25.609375 82.640625 24.828125 Q 81.468750 22.484375 79.320312 21.117188 Q 77.171875 19.750000 74.828125 18.578125 Q 72.484375 17.406250 70.531250 15.843750 Q 68.578125 14.281250 67.796875 11.546875 Q 70.921875 10.765625 72.875000 11.351562 Q 74.828125 11.937500 76.781250 12.328125 Q 76.781250 15.062500 78.148438 16.234375 Q 79.515625 17.406250 80.687500 18.968750 Q 84.203125 19.750000 86.156250 22.875000 Q 88.109375 26.000000 92.406250 24.828125 Q 92.796875 27.171875 94.554687 28.734375 Q 96.312500 30.296875 98.265625 31.273438 Q 100.218750 32.250000 102.367187 33.226562 Q 104.515625 34.203125 105.687500 35.765625 Z M 268.968750 202.171875 Q 263.500000 202.562500 260.375000 198.460937 Q 257.250000 194.359375 252.562500 192.015625 Q 249.046875 194.750000 250.414062 195.531250 Q 251.781250 196.312500 252.562500 197.093750 Q 254.906250 199.046875 256.859375 200.218750 Q 259.203125 199.828125 259.593750 200.414062 Q 259.984375 201.000000 261.156250 200.609375 Q 260.765625 202.562500 262.132812 203.148437 Q 263.500000 203.734375 264.867187 204.320312 Q 266.234375 204.906250 267.406250 204.515625 Q 268.578125 204.125000 268.968750 202.171875 Z M 251.781250 190.453125 Q 247.484375 190.062500 247.484375 186.546875 Q 244.359375 185.375000 243.773437 185.765625 Q 243.187500 186.156250 242.406250 187.328125 Q 245.140625 188.890625 246.312500 192.015625 Q 251.781250 192.796875 251.781250 190.453125 Z M 109.203125 254.515625 Q 110.375000 252.562500 107.250000 252.171875 Q 104.125000 251.781250 103.343750 248.656250 Q 104.515625 252.171875 106.078125 252.562500 Q 107.640625 252.953125 109.203125 254.515625 Z M 87.718750 272.484375 Q 86.937500 271.312500 85.570312 271.117187 Q 84.203125 270.921875 83.031250 270.921875 Q 83.812500 272.484375 84.789062 272.093750 Q 85.765625 271.703125 87.718750 272.484375 Z M 96.312500 247.093750 Q 93.968750 245.140625 93.187500 243.968750 Q 92.406250 242.796875 90.843750 242.406250 Q 91.234375 245.531250 92.210937 245.335937 Q 93.187500 245.140625 92.796875 247.093750 Z M 79.906250 242.015625 Q 77.562500 240.062500 77.171875 240.648437 Q 76.781250 241.234375 75.609375 240.843750 Q 77.953125 241.234375 78.148438 241.429687 Q 78.343750 241.625000 79.906250 242.015625 Z M 110.375000 154.125000 Q 108.812500 150.218750 107.640625 150.023438 Q 106.468750 149.828125 106.078125 147.875000 Q 104.906250 151.000000 106.859375 151.781250 Q 108.812500 152.562500 110.375000 154.125000 Z M 117.796875 149.828125 Q 117.015625 147.093750 113.890625 146.312500 Q 110.765625 145.531250 108.812500 145.921875 Q 108.031250 143.968750 106.273438 142.796875 Q 104.515625 141.625000 101.781250 142.406250 Q 102.562500 143.578125 104.125000 144.945312 Q 105.687500 146.312500 107.250000 144.359375 Q 110.375000 147.093750 112.523438 148.460938 Q 114.671875 149.828125 117.796875 149.828125 Z M 89.281250 167.015625 Q 87.718750 165.843750 85.960938 165.257812 Q 84.203125 164.671875 82.640625 163.500000 Q 85.765625 165.453125 86.546875 166.625000 Q 87.328125 167.796875 89.281250 167.015625 Z M 97.484375 167.015625 Q 95.531250 165.062500 92.992188 163.695312 Q 90.453125 162.328125 87.328125 160.765625 Q 85.375000 159.593750 84.007812 158.226562 Q 82.640625 156.859375 80.296875 156.078125 Q 80.296875 157.250000 80.687500 158.226562 Q 81.078125 159.203125 80.687500 160.375000 Q 84.203125 161.937500 87.328125 163.304687 Q 90.453125 164.671875 92.406250 167.796875 Q 96.312500 168.578125 97.484375 167.015625 Z M 104.125000 141.234375 Q 102.562500 138.109375 99.828125 139.671875 Q 97.484375 138.109375 96.703125 137.328125 Q 95.921875 136.546875 95.335938 135.765625 Q 94.750000 134.984375 93.773438 134.203125 Q 92.796875 133.421875 91.234375 133.812500 Q 92.406250 136.546875 93.187500 136.937500 Q 93.968750 137.328125 95.140625 136.546875 Q 95.921875 138.890625 97.875000 139.867188 Q 99.828125 140.843750 101.000000 142.796875 Z M 112.328125 123.265625 Q 111.937500 121.312500 110.375000 120.921875 Q 108.812500 120.531250 108.031250 118.968750 Q 107.250000 120.531250 108.226562 121.312500 Q 109.203125 122.093750 108.421875 124.046875 Z M 104.515625 120.140625 Q 103.734375 118.578125 102.562500 119.750000 Q 101.390625 120.921875 100.218750 119.750000 Q 101.781250 117.406250 102.171875 117.015625 Q 102.562500 116.625000 103.343750 115.453125 Q 99.828125 114.281250 97.875000 112.328125 Q 95.921875 110.375000 93.578125 112.328125 Q 92.406250 111.546875 92.210937 109.984375 Q 92.015625 108.421875 90.062500 108.031250 Q 90.453125 110.765625 88.695312 109.984375 Q 86.937500 109.203125 85.375000 109.984375 Q 86.156250 112.328125 89.281250 112.914062 Q 92.406250 113.500000 91.625000 115.453125 Q 96.312500 115.062500 96.312500 117.796875 Q 101.781250 122.093750 104.515625 120.140625 Z M 117.406250 81.468750 Q 114.281250 78.734375 113.890625 79.125000 Q 113.500000 79.515625 112.718750 79.515625 Q 110.375000 76.000000 110.179688 75.804688 Q 109.984375 75.609375 109.203125 75.609375 Q 109.984375 77.953125 109.203125 79.906250 Q 110.765625 81.468750 113.109375 80.296875 Q 115.453125 79.125000 115.062500 82.250000 Z M 89.281250 109.203125 Q 88.500000 105.687500 84.984375 104.515625 Q 80.296875 106.078125 79.906250 108.031250 Q 82.250000 109.984375 84.203125 109.398437 Q 86.156250 108.812500 89.281250 109.203125 Z M 107.640625 77.171875 Q 106.859375 75.609375 105.687500 74.437500 Q 104.515625 73.265625 101.390625 74.046875 Q 102.953125 74.828125 104.515625 77.367188 Q 106.078125 79.906250 107.640625 77.171875 Z M 101.390625 72.093750 Q 100.609375 71.703125 99.437500 71.117188 Q 98.265625 70.531250 97.093750 71.312500 Q 99.046875 73.656250 100.023437 74.046875 Q 101.000000 74.437500 101.390625 72.093750 Z M 99.046875 80.687500 Q 95.921875 77.171875 95.140625 77.562500 Q 94.359375 77.953125 93.578125 77.171875 Q 93.187500 74.437500 92.015625 74.046875 Q 90.843750 73.656250 91.234375 71.703125 Q 93.578125 70.921875 94.750000 71.898437 Q 95.921875 72.875000 96.703125 72.093750 Q 90.062500 68.968750 86.937500 63.500000 Q 81.078125 63.109375 81.078125 64.671875 Q 83.031250 64.671875 84.203125 65.648438 Q 85.375000 66.625000 87.328125 67.406250 Q 88.109375 70.140625 87.132812 70.726562 Q 86.156250 71.312500 84.203125 72.093750 Q 84.984375 73.265625 86.742188 73.851562 Q 88.500000 74.437500 89.281250 75.609375 Q 90.843750 75.609375 92.210937 77.171875 Q 93.578125 78.734375 96.312500 79.515625 Z M 84.593750 70.140625 Q 82.640625 68.578125 81.273438 66.820312 Q 79.906250 65.062500 77.953125 64.281250 Q 76.781250 68.578125 79.125000 69.164062 Q 81.468750 69.750000 83.421875 71.312500 Z" transform="scale(1.000000,1.000000) translate(361.347222,361.661058)" fill="#d23610" opacity="1.000000"></path>
        <path d="M 51.500000 6.000000 L 730.030029 6.000000 C 755.158985 6.000000 775.530029 26.371044 775.530029 51.500000 L 775.530029 730.030029 C 775.530029 755.158985 755.158985 775.530029 730.030029 775.530029 L 51.500000 775.530029 C 26.371044 775.530029 6.000000 755.158985 6.000000 730.030029 L 6.000000 51.500000 C 6.000000 26.371044 26.371044 6.000000 51.500000 6.000000 Z M 51.500000 1.000000 C 23.609620 1.000000 1.000000 23.609620 1.000000 51.500000 L 1.000000 730.030029 C 1.000000 757.920409 23.609620 780.530029 51.500000 780.530029 L 730.030029 780.530029 C 757.920409 780.530029 780.530029 757.920409 780.530029 730.030029 L 780.530029 51.500000 C 780.530029 23.609620 757.920409 1.000000 730.030029 1.000000 L 51.500000 1.000000 Z" transform="scale(1.000000,1.000000) translate(121.234985,121.234978)" fill="#d23610" opacity="1.000000"></path>
    </g>
</svg>