<?xml version="1.0" encoding="UTF-8" standalone="yes"?>
<!DOCTYPE svg PUBLIC "-//W3C//DTD SVG 1.1//EN" "http://www.w3.org/Graphics/SVG/1.1/DTD/svg11.dtd">

<svg width="500" height="500" viewBox="0 0 500 500" xmlns="http://www.w3.org/2000/svg" xmlns:xlink="http://www.w3.org/1999/xlink" version="1.1" baseProfile="full">
    <g transform="scale(1.000000,-1.000000) translate(0,-500)">
        <path d="M 194.017029 21.387560 C 195.659440 24.896369 205.607570 18.751756 211.124327 21.387560 C 213.748524 20.607704 204.192770 31.546467 207.073394 30.491977 C 209.287648 32.624253 204.434104 39.814666 208.637623 37.794878 C 211.561506 36.389955 207.748908 30.081296 211.124327 28.029198 C 214.308861 26.093150 205.017883 4.568757 208.637623 2.519635 C 210.622599 0.937456 212.932412 1.279089 216.129961 2.519635 C 219.082318 0.979165 221.976921 1.111920 224.293228 2.519635 C 228.858961 2.743041 232.561417 2.211140 233.004742 7.186324 C 234.025314 2.519635 237.834335 0.267384 241.782277 2.519635 C 244.279351 0.139966 247.916313 0.880499 250.129176 2.519635 C 256.599432 2.144028 258.433795 1.325843 259.370431 3.514462 C 257.327054 19.477883 245.367238 33.018965 245.750509 37.794878 C 250.129176 46.730291 248.446783 55.341365 250.129176 76.718655 C 252.348761 73.815167 255.284840 69.499286 258.257224 72.830313 C 262.372499 66.172377 270.859488 59.410249 277.840639 61.601280 C 281.633581 55.318379 288.320956 55.185699 295.536896 58.712273 C 303.238713 55.801939 310.601506 56.252897 317.169497 58.712273 C 318.927942 57.143806 322.399408 55.534855 325.740602 57.143806 C 328.605449 55.817742 331.806720 55.933442 334.639512 57.143806 C 339.685438 56.004245 344.899561 57.739588 348.816139 60.259305 C 357.797768 58.712273 366.282321 62.694852 372.622824 65.491135 C 377.636053 64.795603 383.839217 59.777501 387.324488 63.767325 C 390.847884 63.287854 394.835793 63.500146 397.232468 65.796658 C 401.386619 66.406666 405.399975 66.179951 408.672521 66.901827 C 419.842500 48.782292 415.787184 69.315946 417.056985 69.166557 C 417.484089 70.333235 421.222275 64.248438 421.013231 66.901827 C 420.554285 72.727202 420.315058 83.033477 414.747703 93.792416 C 426.095542 92.484051 381.623389 136.432033 346.726526 142.718843 C 320.665158 135.364860 278.761701 134.785488 254.153001 135.364860 C 245.162447 134.323787 234.930833 143.044737 222.218972 153.736986 C 237.759860 171.935862 238.156385 220.892073 189.614513 207.745343 C 154.369282 215.824509 159.719098 199.882299 160.908761 203.099697 C 198.965454 201.749714 209.382537 180.444257 209.382537 171.935862 C 188.938911 166.180361 194.017029 148.242047 190.310938 142.322506 C 186.843697 126.955156 124.618522 131.736186 91.858926 137.988141 C 36.433918 125.497851 7.802509 87.966087 2.403408 74.193661 C 3.938433 71.613836 -0.162898 64.428850 1.334998 63.671561 C 5.828714 61.399676 15.597342 71.104692 18.174715 69.567088 C -0.725503 31.629656 19.734084 55.159638 25.014261 57.434588 C 26.741233 56.761020 28.871230 58.005018 30.776761 57.434588 C 31.166171 50.400702 39.588260 55.643900 41.662911 54.052177 C 45.168996 52.422547 50.236537 54.052177 54.819330 55.193132 C 56.666979 48.276564 65.851157 54.030147 69.644645 57.434588 C 72.430960 56.074732 75.897616 58.379981 79.350196 57.320507 C 81.019142 53.418987 86.226209 54.653074 89.837237 55.392098 C 91.858926 52.300761 98.958710 48.472490 103.007517 54.650331 C 103.815165 51.395266 106.814342 49.140530 111.273885 50.180118 C 113.711767 48.557155 116.286631 47.469370 119.284114 51.611755 C 121.891015 49.497890 125.269191 48.876694 126.955419 52.982818 C 132.593023 44.255193 133.085563 54.078435 135.201344 56.187959 C 138.459486 46.539298 140.018615 52.982818 141.966167 54.596236 C 144.673997 48.318636 146.123246 53.618100 148.354346 54.920536 C 149.175656 50.967719 152.933806 49.523369 155.122164 51.715170 C 156.144404 51.795076 158.792775 49.241391 160.072016 49.622102 C 163.666111 50.691691 166.244866 57.327650 166.519855 60.054017 C 174.177726 51.493067 179.434986 55.259288 183.527221 60.054017 C 188.375845 53.099130 192.277116 60.054017 194.017029 61.281513 C 196.985737 50.580191 197.204581 46.452321 200.453743 37.794878 C 204.658315 30.491977 197.472349 25.958063 194.017029 21.387560 Z" transform="scale(1.000000,1.000000) translate(33.750734,180.229417)" fill="#262627" opacity="1.000000"></path>
        <path d="M 30.483639 14.779825 C 14.481344 18.444321 -2.009490 14.173871 1.468939 11.839818 C 4.093021 10.079037 15.532713 7.919622 38.802421 1.000000 Z" transform="scale(1.000000,1.000000) translate(192.881609,373.194934)" fill="#4f4c4a" opacity="1.000000"></path>
        <path d="M 23.645818 1.000000 C 19.101030 16.387314 16.791840 8.897857 1.000000 11.958400 C 11.350048 9.411628 13.519228 5.269940 23.645818 1.000000 Z" transform="scale(1.000000,1.000000) translate(209.804226,370.269581)" fill="#eba047" opacity="1.000000"></path>
        <path d="M 2.586987 8.542642 C 2.586987 8.542642 2.586987 8.542642 2.586987 8.542642 C -2.066689 3.394634 4.843315 0.288811 6.394540 1.139722 C 9.214950 2.256381 9.543997 4.359814 9.214950 6.263645 C 8.990706 8.542642 5.360390 9.442252 2.586987 8.542642 Z" transform="scale(1.000000,1.000000) translate(222.365247,379.087899)" fill="#606139" opacity="1.000000"></path>
        <path d="M 2.197057 6.879586 C 2.197057 6.879586 2.197057 6.879586 2.197057 6.879586 C -1.313189 2.866648 3.898995 0.445619 5.069077 1.108915 C 7.196499 1.979365 7.444698 3.619018 7.196499 5.103078 C 7.027353 6.879586 4.289022 7.580843 2.197057 6.879586 Z" transform="scale(1.000000,1.000000) translate(222.365247,380.826851)" fill="#2e2f31" opacity="1.000000"></path>
        <path d="M 4.669679 1.249921 C 3.060483 0.568726 1.451287 1.249921 1.016369 3.665066 C 0.682895 5.516884 5.565205 3.665066 4.669679 1.249921 Z" transform="scale(1.000000,1.000000) translate(224.860503,382.307410)" fill="#ffffff" opacity="1.000000"></path>
        <path d="M 169.805207 1.066408 C 176.433769 19.001339 176.679822 48.226808 172.207150 68.833583 C 170.402383 77.148620 165.365499 80.557882 163.478497 86.670395 C 161.545558 92.931710 159.162875 92.156549 158.361192 95.844213 C 134.717469 87.109461 93.671473 88.300394 62.846164 95.844213 C 48.589493 95.216561 5.170095 74.603347 1.000000 65.277377 C 1.629714 56.486874 108.758316 22.223410 136.771072 36.878568 C 142.330320 27.992760 153.734062 20.003026 164.854454 16.534381 C 167.378725 15.747016 166.696136 -0.150366 169.805207 1.066408 Z" transform="scale(1.000000,1.000000) translate(62.913309,222.379940)" fill="#333442" opacity="1.000000"></path>
        <path d="M 14.548302 3.395900 C 10.130376 15.947875 11.089671 22.566436 3.229121 25.686093 C -2.449153 24.751514 4.404065 10.367188 5.314018 1.424215 C 8.596322 0.351554 13.396774 1.424215 14.548302 3.395900 Z" transform="scale(1.000000,1.000000) translate(250.108341,361.724953)" fill="#333442" opacity="1.000000"></path>
        <path d="M 173.357396 50.312092 C 170.206575 53.170786 146.325273 80.309832 114.226394 85.033939 C 79.263854 75.147774 21.056600 76.464952 15.779179 77.213354 C 14.095218 78.022296 6.675768 51.853933 5.728798 50.312092 C 6.068191 49.924371 12.471984 45.198510 5.728798 33.723278 C -3.778973 19.828920 2.028007 1.144166 14.462475 1.144167 C 15.579453 -1.015273 15.513595 21.829918 17.046938 19.828920 C 19.439992 16.706003 23.188388 11.814382 26.137677 16.508757 C 31.219108 13.477453 32.699887 7.208813 37.669679 5.002106 C 39.133280 4.352232 44.950072 5.346894 46.204051 5.270318 C 98.388730 11.814382 174.229911 39.192399 173.357396 50.312092 Z" transform="scale(1.000000,1.000000) translate(266.250866,237.914321)" fill="#333442" opacity="1.000000"></path>
        <path d="M 193.028544 24.245677 C 193.866667 26.036225 195.592217 26.614471 197.913753 26.496880 C 199.257906 26.428796 200.031894 26.288151 203.470841 25.573757 C 204.448991 25.370561 205.112850 25.239310 205.778014 25.121683 C 208.890151 24.571332 210.963553 24.573547 212.279761 25.202407 C 212.726673 25.415933 213.236919 25.456031 213.711699 25.314936 C 213.636314 25.337339 213.538018 25.355362 213.402526 25.358998 C 213.121375 25.366544 212.814190 25.304649 212.502346 25.128470 C 211.765531 24.712199 211.522031 24.017613 211.579633 23.426970 C 211.593344 23.286378 211.605082 23.249186 211.602988 23.253907 C 211.559491 23.351992 211.484047 23.495265 211.379497 23.674256 C 210.975135 24.366523 210.416353 25.169603 209.069465 27.032804 C 209.065647 27.038086 209.065647 27.038086 209.061828 27.043369 C 207.564770 29.114295 206.994512 29.933536 206.498875 30.788931 C 206.046274 31.570051 205.808943 32.126295 205.793322 32.786036 C 205.744995 34.827067 207.522674 35.396455 208.991717 34.858692 L 206.916913 34.421204 C 206.999567 34.500798 207.080635 35.291175 206.929533 36.769764 C 206.907395 36.986393 206.883707 37.197709 206.844445 37.534719 C 206.586044 39.752749 206.550520 40.393373 206.815821 41.338005 C 207.418100 43.482489 209.411453 43.965757 211.521457 42.951901 C 211.527589 42.948954 211.830101 42.879427 212.337482 42.795578 C 212.230405 42.813273 213.603329 42.595741 214.021110 42.520341 C 216.776514 42.023049 218.275289 41.394263 218.798843 39.530832 L 218.823675 39.433046 C 219.697306 35.588605 219.033338 30.672931 217.165013 24.113684 C 216.697603 22.472716 216.169271 20.773620 215.490763 18.696611 C 215.229935 17.898180 214.047858 14.337752 213.753784 13.431170 C 213.152375 11.577124 212.743745 10.216599 212.454052 9.069873 C 212.137183 7.815568 211.981553 6.874192 211.982312 6.255671 C 211.982578 6.038952 212.001730 5.907690 212.014323 5.874298 C 211.968157 5.996715 211.840352 6.157232 211.640537 6.270347 C 211.732156 6.218482 211.819537 6.159464 211.901864 6.093842 C 213.033467 5.191867 214.451885 5.241303 217.424201 6.394466 C 217.961255 6.602826 218.562071 6.569499 219.072785 6.303020 C 221.325940 5.127376 223.485726 5.153306 225.272166 6.238998 C 225.556892 6.412038 225.880338 6.511204 226.213124 6.527487 C 226.681735 6.550417 226.995863 6.561357 227.859822 6.587801 C 232.186851 6.720244 232.820440 7.019216 233.030275 9.374078 C 233.233444 11.654127 236.487157 11.860086 236.976206 9.623854 C 237.744836 6.109200 240.182893 4.768979 242.808872 6.267067 C 243.576303 6.704877 244.540079 6.587251 245.179685 5.977718 C 246.632334 4.593368 249.076327 4.744393 250.956372 6.136999 C 251.332773 6.415811 251.795095 6.553662 252.262724 6.526516 C 253.033374 6.481778 253.779322 6.428823 254.577638 6.364207 C 259.506846 5.965239 259.396831 5.955147 259.549372 6.311588 L 259.404257 5.270768 C 258.646490 11.190659 256.493998 17.045236 252.942978 23.940735 C 251.902859 25.960476 248.535988 32.081934 248.046370 33.024963 C 246.365640 36.262129 245.636208 38.241135 245.774558 39.965107 C 245.794646 40.215418 245.861693 40.459706 245.972194 40.685202 C 246.072712 40.890326 246.169902 41.095495 246.263880 41.300918 C 248.321399 45.798410 248.838194 49.604653 249.203849 60.189450 C 249.537384 69.844437 249.667804 72.720909 250.152982 78.885811 C 250.296914 80.714685 252.621571 81.400994 253.735725 79.943545 C 253.719761 79.964427 254.567821 78.846158 254.814078 78.529142 C 255.972395 77.037991 256.819572 76.169599 257.525888 75.791470 C 258.026447 75.523494 258.236213 75.559838 258.782601 76.172151 C 259.673006 77.169990 261.272974 77.029683 261.976116 75.892099 C 266.344099 68.825315 274.051663 63.885307 279.259384 65.519747 C 280.139250 65.795893 281.093868 65.434635 281.570469 64.645158 C 284.514964 59.767687 289.724854 59.122063 296.676361 62.519404 C 297.171931 62.761598 297.745523 62.788374 298.261499 62.593399 C 305.070249 60.020534 311.892435 60.126637 318.485796 62.595513 C 319.181420 62.855989 319.964103 62.709489 320.518426 62.215054 C 322.279804 60.643971 324.839847 59.968506 326.890511 60.956004 C 327.429224 61.215420 328.055747 61.220204 328.598357 60.969043 C 330.842099 59.930473 333.442262 59.955335 335.871338 60.993205 C 336.258212 61.158504 336.687360 61.197595 337.097733 61.104917 C 341.111203 60.198524 345.704009 61.347472 349.751681 63.951529 C 350.172677 64.222376 350.679937 64.325497 351.173268 64.240523 C 356.983708 63.239710 362.628121 64.510818 370.304175 67.785168 C 370.857255 68.021094 371.423617 68.267467 372.105370 68.567707 C 372.449456 68.719240 373.622970 69.238505 373.833425 69.331319 C 374.173047 69.481099 374.547650 69.533411 374.915311 69.482402 C 376.414363 69.274425 377.749660 68.844209 380.166055 67.903837 C 380.326733 67.841256 380.326733 67.841256 380.486455 67.778931 C 385.126809 65.968069 386.691605 65.783395 387.835886 67.093330 C 388.278265 67.599751 388.945520 67.849972 389.611807 67.759302 C 393.315163 67.255342 396.283441 67.734172 397.866393 69.250967 C 398.166388 69.538425 398.548461 69.725316 398.959539 69.785680 C 400.644263 70.033070 401.863952 70.128082 404.824516 70.293874 C 407.670225 70.453233 408.937085 70.573446 410.259347 70.865117 C 411.090250 71.048403 411.946152 70.685901 412.392660 69.961592 C 414.075175 67.232277 415.436711 65.347620 416.474026 64.256954 C 416.884149 63.825738 417.210756 63.554189 417.427026 63.433107 C 417.424075 63.434760 417.281752 63.465779 417.033929 63.410521 C 416.729708 63.342687 416.528707 63.180179 416.448471 63.050578 C 416.483062 63.106450 416.544381 63.276990 416.601927 63.540502 C 416.740377 64.174487 416.808074 65.095583 416.817519 66.322291 C 416.821440 66.831542 416.816899 67.288658 416.802911 68.125579 C 416.780225 69.482868 416.778426 69.909471 416.807644 70.433644 C 416.831390 70.859636 416.875567 71.200534 416.969465 71.522124 C 417.062211 71.839765 417.197544 72.130479 417.435007 72.413567 C 417.876796 72.940238 418.556570 73.251540 419.308308 73.163101 L 419.074626 71.176799 L 417.196520 71.864346 C 417.600243 72.967155 418.717280 73.534730 419.823661 73.257175 C 420.306613 73.136017 420.674062 72.906989 421.073713 72.573039 C 421.465856 72.245363 421.756241 71.942888 422.498633 71.129822 C 422.506365 71.121354 422.506365 71.121354 422.514085 71.112899 C 423.137297 70.430414 423.453955 70.111773 423.566670 70.038038 C 423.480735 70.094254 423.361480 70.151069 423.164081 70.195188 C 422.694967 70.300035 422.147649 70.213944 421.680797 69.847586 C 421.297143 69.546517 421.119711 69.192777 421.056589 68.862362 C 421.038847 68.769492 421.038150 68.741021 421.037049 68.754988 C 421.019594 68.976542 421.001771 69.212968 420.982329 69.479566 C 420.111941 81.414795 419.092251 86.954082 414.989069 94.883501 C 414.253148 96.305671 415.403662 97.972904 416.994419 97.789496 C 417.163885 97.769957 417.272044 97.770920 417.310219 97.777854 C 417.221870 97.761806 417.087328 97.702639 416.942094 97.576274 C 416.617911 97.294211 416.549821 96.992726 416.564274 96.913322 C 416.441432 97.588230 415.642526 98.986083 414.249447 100.788155 C 411.116115 104.841400 405.518961 110.347374 398.823203 115.875388 C 382.278610 129.534591 363.532494 140.032712 348.389567 142.760771 L 349.287315 142.804250 C 327.217438 136.576584 292.388217 134.521864 256.123568 135.375656 L 256.400697 135.388378 C 251.633345 134.836336 246.574202 136.587209 240.517980 140.478569 C 236.026366 143.364606 232.583667 146.112902 222.949220 154.216666 C 222.099449 154.931428 221.994616 156.201594 222.715700 157.046007 C 230.337190 165.971015 233.743202 182.123416 230.056624 193.908927 C 225.751073 207.673213 213.130037 213.505864 192.154983 207.825132 C 191.838206 207.739338 191.505182 207.732817 191.185289 207.806146 C 176.551940 211.160507 168.138340 210.576028 164.938701 207.755602 C 164.154070 207.063963 163.875166 206.349809 163.936994 205.870460 C 163.939528 205.850812 163.937525 205.857963 163.916342 205.902071 C 163.830923 206.079938 163.674209 206.272402 163.384684 206.442250 C 162.843173 206.759924 162.133567 206.757902 161.580572 206.400810 C 161.262823 206.195626 161.115731 205.979891 161.050531 205.803560 C 161.349863 206.613091 162.134746 207.139279 162.997303 207.108682 C 180.628896 206.483237 193.874141 201.627095 202.765002 193.705709 C 209.616094 187.601673 213.400177 179.858905 213.400177 173.946104 C 213.400177 173.050271 212.804480 172.263710 211.942168 172.020943 C 203.582275 169.667379 199.423910 165.259809 197.473619 158.523850 C 196.843932 156.349025 196.645875 155.179020 196.004588 150.562457 C 195.468519 146.703355 195.046195 144.904528 194.023754 143.271437 L 194.279537 143.892565 C 192.370070 135.429510 177.828460 131.992320 154.081646 132.058334 C 135.345589 132.110418 111.706817 134.559500 93.501646 138.033838 L 94.316249 138.047312 C 69.620312 132.481964 48.550834 121.530540 31.691482 107.064122 C 19.007676 96.180594 9.527701 83.750564 6.283080 75.473944 L 6.139806 77.226582 C 7.083751 75.640149 6.930539 73.762992 6.145469 70.848534 C 6.050256 70.495071 5.947986 70.134828 5.814102 69.676582 C 5.199071 67.571512 5.169177 67.464005 5.069846 66.917069 C 5.024815 66.669116 5.013467 66.513625 5.015933 66.494156 C 4.975699 66.811779 4.750484 67.216166 4.255008 67.466664 C 5.095302 67.041837 7.012625 67.587919 9.980620 69.223568 C 10.518897 69.520210 11.081567 69.844097 11.789424 70.261831 C 11.657948 70.184242 13.615628 71.346978 14.134123 71.647289 C 15.020799 72.160848 15.725567 72.543230 16.370944 72.851473 C 18.378073 73.810111 19.849949 74.110469 21.217022 73.294904 C 22.115226 72.759055 22.448889 71.621645 21.982501 70.685490 C 18.728085 64.153069 16.556785 59.272173 15.372998 55.897953 C 14.840660 54.380598 14.518701 53.196538 14.392999 52.348986 C 14.342031 52.005332 14.327065 51.740551 14.339602 51.561979 C 14.343640 51.504462 14.339803 51.519461 14.295044 51.600437 C 14.184592 51.800264 13.984852 51.981702 13.742439 52.080898 C 13.576673 52.148729 13.454576 52.160107 13.389641 52.152061 C 13.555262 52.172581 13.939777 52.326451 14.463245 52.622241 C 15.553035 53.238036 16.936814 54.262195 19.012681 55.943540 C 19.200477 56.095645 19.397117 56.255604 19.615996 56.434224 C 24.208456 60.181972 24.870409 60.691289 26.240533 61.281603 C 26.723410 61.489649 27.268790 61.499176 27.758638 61.308121 C 28.044046 61.196804 28.451956 61.210898 29.616310 61.394623 C 30.005203 61.455987 30.200959 61.485234 30.442085 61.515605 C 31.550286 61.655188 32.446727 61.636599 33.367964 61.360822 C 34.175477 61.119089 34.744750 60.397015 34.791344 59.555384 C 34.895258 57.678383 35.509538 57.405683 38.168319 57.797413 C 38.494924 57.845533 38.817451 57.899988 39.325497 57.990694 C 42.765921 58.604943 43.585822 58.655918 44.897972 57.649204 L 44.523542 57.876080 C 46.269367 57.064620 48.758776 57.241086 53.045251 58.301518 C 53.469206 58.406400 53.881682 58.511373 54.525080 58.677187 C 55.792837 59.003908 55.869415 59.023538 56.353790 59.144131 C 57.412753 59.407776 58.487572 58.773860 58.769216 57.719542 C 59.257622 55.891220 60.400843 55.523052 62.888061 56.351283 C 65.246004 57.136465 68.201153 59.025966 70.326460 60.933309 C 70.932475 61.477173 71.807712 61.599335 72.539486 61.242195 C 73.232262 60.904087 73.978834 60.921771 76.148022 61.283197 C 78.679973 61.705066 79.990579 61.774793 81.675934 61.322825 C 81.769252 61.297800 81.862125 61.271117 81.954562 61.242751 C 82.517180 61.070104 82.975202 60.658424 83.206661 60.117339 C 83.767740 58.805697 85.186672 58.387473 87.935788 58.723941 C 88.666769 58.813407 89.415898 58.945429 90.470704 59.159718 C 90.680354 59.202309 91.377647 59.346126 91.453875 59.361726 C 92.257367 59.526167 93.079819 59.183396 93.528710 58.497001 C 94.349190 57.242416 96.264083 55.924911 98.119722 55.506543 C 100.228694 55.031059 101.985559 55.671293 103.352391 57.756864 C 104.309145 59.216719 106.545965 58.836280 106.966298 57.142210 C 107.575825 54.685632 109.713089 53.409795 112.837468 54.138136 C 113.374992 54.263442 113.940404 54.161043 114.399841 53.855183 C 116.869396 52.211136 117.834834 52.242497 119.681465 54.794459 C 120.354298 55.724283 121.669940 55.898336 122.561416 55.175462 C 124.727479 53.419060 126.205801 53.519385 127.122985 55.752815 C 127.736565 57.246939 129.776648 57.435013 130.653049 56.078249 C 131.495553 54.773961 132.193784 53.947989 132.708199 53.565814 C 132.842727 53.465868 132.916596 53.429533 132.924281 53.427847 C 132.833836 53.447694 132.707589 53.438371 132.598678 53.396327 C 132.680788 53.428025 133.113458 54.165649 133.745876 55.750207 C 133.756733 55.777408 133.965529 56.302712 134.027520 56.457064 C 134.679128 58.079512 135.103780 58.913500 135.806867 59.614507 C 136.856393 60.660930 138.639711 60.242227 139.113867 58.838062 C 139.672448 57.183879 140.178170 56.027392 140.614374 55.338808 C 140.767956 55.096365 140.891326 54.946047 140.967580 54.880535 C 140.932431 54.910732 140.827109 54.963938 140.662384 54.990599 C 140.457227 55.023804 140.262397 54.991663 140.122649 54.926138 C 140.089303 54.910502 140.108370 54.924673 140.161356 54.976657 C 140.358184 55.169763 140.575715 55.457473 141.024335 56.108753 C 141.150855 56.292572 141.212906 56.382458 141.283543 56.483653 C 141.825698 57.260348 142.211615 57.735488 142.707897 58.146625 C 143.735182 58.997663 145.291882 58.623535 145.820246 57.398622 C 146.166556 56.595767 146.478281 56.029929 146.739209 55.690854 C 146.822770 55.582266 146.885798 55.516642 146.921389 55.488690 C 146.897015 55.507832 146.838317 55.539199 146.748249 55.565385 C 146.509024 55.634936 146.279502 55.597371 146.164003 55.533159 C 146.224383 55.566728 146.366713 55.689930 146.571645 55.910501 C 146.734099 56.085352 146.762165 56.118138 147.245505 56.691069 C 148.103597 57.708216 148.613599 58.220136 149.363690 58.658012 C 150.543922 59.346988 152.052149 58.675682 152.330164 57.337644 C 152.829362 54.935094 154.697465 54.109883 155.724480 55.138513 C 156.061584 55.476148 156.508283 55.682148 156.983944 55.719330 C 157.697255 55.775087 158.288879 55.573505 159.029508 55.183848 C 159.246180 55.069854 159.471988 54.939951 159.742806 54.776183 C 159.844222 54.714855 159.948363 54.650998 160.083544 54.567472 C 160.250831 54.463950 160.250831 54.463950 160.414532 54.362781 C 160.561861 54.271929 160.678739 54.200689 160.789313 54.134607 C 161.214346 53.880592 161.523286 53.718857 161.749120 53.632358 C 161.825447 53.603124 161.872073 53.590161 161.878989 53.589193 C 161.795694 53.600844 161.674346 53.595435 161.519172 53.549254 C 163.589005 54.165229 166.235324 59.169005 166.547592 62.264967 C 166.722090 63.995022 168.868862 64.693658 170.028145 63.397663 C 175.648648 57.114344 179.204086 57.715772 184.023603 63.362632 C 184.873915 64.358914 186.436442 64.282522 187.185516 63.208048 C 189.219635 60.290299 190.329698 60.410188 192.576476 62.657386 C 192.748283 62.829225 192.922905 63.010660 193.138446 63.239832 C 193.204575 63.310143 193.580502 63.712590 193.685885 63.824080 C 194.188315 64.355625 194.512449 64.665468 194.881728 64.925991 C 196.012385 65.723662 197.591992 65.159752 197.961885 63.826394 C 199.140491 59.577865 199.531487 57.642012 200.602541 51.510803 C 200.762417 50.595598 200.883571 49.925013 201.009236 49.269701 C 201.617141 46.099619 202.303054 43.558051 203.447798 40.507864 L 203.308584 40.803026 C 205.069897 37.743811 205.256833 34.777693 204.074992 31.902689 C 203.221263 29.825867 201.943549 28.178280 199.478402 25.576977 C 197.200648 23.173418 197.182807 23.154085 196.555294 22.348026 C 196.514287 22.295351 196.474301 22.243247 196.435316 22.191680 C 194.987396 20.276453 192.010689 22.071157 193.028544 24.245677 Z M 196.651309 22.549926 L 193.244536 24.603923 C 193.295022 24.670704 193.346496 24.737778 193.398984 24.805201 C 193.834551 25.364699 194.328895 25.935794 194.947230 26.605849 C 195.186207 26.864815 195.435812 27.130319 195.761224 27.472874 C 195.832758 27.548177 196.407138 28.151253 196.575012 28.328399 C 200.898333 32.890507 201.877357 35.272130 199.842068 38.807214 C 199.787700 38.901645 199.741140 39.000361 199.702854 39.102376 C 198.473053 42.379201 197.729026 45.136101 197.080814 48.516374 C 196.950240 49.197285 196.825553 49.887429 196.662211 50.822471 C 195.612806 56.829752 195.240689 58.672132 194.107453 62.757117 L 197.187611 61.657520 C 197.032654 61.548199 195.454020 59.878085 195.405168 59.829224 C 191.604671 56.028015 187.615371 55.597161 183.904207 60.920471 L 187.066120 60.765886 C 180.831447 53.460937 174.506867 52.391089 167.046846 60.730856 L 170.527399 61.863552 C 170.070343 57.332094 166.673876 50.909906 162.660124 49.715428 C 161.385290 49.336029 160.371846 49.724199 158.737304 50.701057 C 158.608398 50.778097 158.476779 50.858321 158.314994 50.958087 C 157.414365 51.513469 157.410387 51.515874 157.167077 51.643883 C 157.048071 51.706494 156.962543 51.745094 156.920654 51.759367 C 156.988515 51.736245 157.101620 51.716326 157.295664 51.731494 L 157.139804 53.725412 L 158.555129 52.312310 C 155.055934 48.807611 149.507868 51.258400 148.413809 56.523911 L 151.380284 55.203544 C 151.162489 55.076403 150.863064 54.775852 150.302856 54.111805 C 150.119024 53.893272 150.019826 53.775618 149.923317 53.662877 C 149.768905 53.482494 149.634929 53.330888 149.502047 53.187866 C 148.319358 51.914925 147.171420 51.276728 145.631543 51.724426 C 144.179815 52.146496 143.155088 53.478124 142.147369 55.814334 L 145.259717 55.066331 C 145.125161 54.954860 144.907112 54.686398 144.563506 54.194146 C 144.499844 54.102943 144.444254 54.022417 144.318459 53.839668 C 143.718304 52.968398 143.408874 52.559142 142.962663 52.121367 C 142.132733 51.307127 141.171061 50.856217 140.023297 51.041983 C 138.016730 51.366748 136.727798 53.401437 135.324102 57.558341 L 138.631102 56.781895 C 138.460424 56.611722 138.175223 56.051606 137.739350 54.966318 C 137.680534 54.819873 137.474112 54.300543 137.460918 54.267484 C 136.340198 51.459459 135.652846 50.287648 134.039218 49.664726 C 131.706993 48.764398 129.608372 50.323531 127.293069 53.907872 L 130.823133 54.233306 C 128.727122 49.129322 124.057645 48.812430 120.042092 52.068533 L 122.922042 52.449536 C 119.641774 47.916353 116.267178 47.806731 112.183209 50.525537 L 113.745582 50.242584 C 108.510329 49.022165 104.225042 51.580261 103.084017 56.178937 L 106.697924 55.564283 C 104.384716 52.034693 100.924595 50.773761 97.239974 51.604486 C 94.376014 52.250188 91.573605 54.178333 90.181045 56.307678 L 92.255881 55.442953 C 92.185031 55.428453 91.483754 55.283815 91.267055 55.239792 C 90.117976 55.006351 89.278938 54.858483 88.421728 54.753568 C 84.108820 54.225705 80.982080 55.147298 79.529012 58.544159 L 80.781111 57.418747 C 80.734361 57.433092 80.687284 57.446618 80.639848 57.459339 C 79.683713 57.715749 78.789526 57.668177 76.805431 57.337591 C 73.787869 56.834810 72.512118 56.804590 70.785085 57.647465 L 72.998111 57.956351 C 70.496566 55.711356 67.094381 53.536023 64.151816 52.556164 C 59.724596 51.081922 56.089350 52.252633 54.904726 56.687206 L 57.320152 55.262618 C 56.851558 55.145954 56.776112 55.126614 55.523327 54.803751 C 54.868328 54.634948 54.445388 54.527312 54.005853 54.418575 C 48.855153 53.144342 45.695540 52.920368 42.837561 54.248757 C 42.704825 54.310453 42.579263 54.386534 42.463132 54.475633 C 42.566695 54.396177 42.635630 54.369303 42.649301 54.366995 C 42.554202 54.383046 42.390526 54.387800 42.165096 54.373785 C 41.707181 54.345316 41.358860 54.290476 40.028535 54.052962 C 39.483521 53.955655 39.127793 53.895594 38.751362 53.840133 C 34.083263 53.152363 31.065535 54.492037 30.797460 59.334276 L 32.794402 59.444830 L 32.220840 57.528838 C 31.932605 57.615122 31.546646 57.623126 30.941954 57.546962 C 30.755081 57.523424 30.588478 57.498532 30.239761 57.443508 C 28.353050 57.145801 27.498096 57.116262 26.305165 57.581539 L 27.031902 59.444830 L 27.823270 57.608057 C 26.990520 57.249269 26.129584 56.586851 22.145016 53.335183 C 21.922569 53.153651 21.722209 52.990666 21.530271 52.835206 C 19.285817 51.017314 17.775161 49.899252 16.431056 49.139753 C 14.029950 47.782987 11.975428 47.528437 10.794241 49.665398 C 9.327879 52.318286 11.624669 58.864962 18.402210 72.469171 L 19.167689 69.859757 C 19.293780 69.784534 19.409972 69.750525 19.494686 69.744007 C 19.493029 69.744135 19.446792 69.740314 19.362297 69.723072 C 19.072326 69.663899 18.644581 69.504580 18.094873 69.242031 C 17.562561 68.987790 16.941832 68.651005 16.138914 68.185958 C 15.642769 67.898592 13.708832 66.749957 13.822377 66.816965 C 13.083563 66.380961 12.489409 66.038952 11.911242 65.720327 C 7.788374 63.448232 4.941565 62.637419 2.450268 63.896942 C 0.980205 64.640160 0.820243 65.902977 1.134225 67.631829 C 1.271868 68.389722 1.290999 68.458521 1.974619 70.798351 C 2.101277 71.231865 2.196490 71.567252 2.283142 71.888933 C 2.780041 73.733599 2.874564 74.891695 2.702292 75.181223 C 2.386487 75.711977 2.333605 76.358863 2.559017 76.933861 C 6.061377 85.867939 15.936401 98.815953 29.086703 110.099765 C 46.428145 124.979847 68.084014 136.236064 93.436883 141.949454 C 93.704617 142.009789 93.981904 142.014375 94.251487 141.962927 C 112.222210 138.533332 135.615495 136.109683 154.092765 136.058318 C 175.680798 135.998306 189.114270 139.173566 190.377620 144.772931 C 190.427253 144.992914 190.513734 145.202918 190.633403 145.394059 C 191.240361 146.363521 191.589449 147.850407 192.042630 151.112814 C 192.713566 155.942808 192.926873 157.202903 193.631424 159.636297 C 195.953287 167.655599 201.117076 173.128847 210.858186 175.871265 L 209.400177 173.946104 C 209.400177 178.666456 206.136393 185.344619 200.104096 190.719143 C 191.943842 197.989589 179.594043 202.517431 162.855501 203.111196 L 164.802272 204.416318 C 164.286498 203.021425 162.869961 202.106708 161.360683 202.992117 C 160.520830 203.484812 160.098004 204.365254 159.969857 205.358768 C 159.735656 207.174528 160.525883 209.197963 162.293683 210.756248 C 166.714480 214.653104 176.310073 215.319695 192.079018 211.705024 L 191.109323 211.686038 C 214.051219 217.899455 228.888195 211.042735 233.874211 195.103091 C 237.974312 181.995605 234.266712 164.412979 225.757524 154.448449 L 225.524005 157.277790 C 235.007983 149.300590 238.391999 146.599141 242.680253 143.843769 C 248.031878 140.405141 252.273510 138.937193 255.940586 139.361827 C 256.032556 139.372477 256.125156 139.376727 256.217715 139.374548 C 292.101694 138.529718 326.628496 140.566597 348.201018 146.653919 C 348.493093 146.736337 348.800094 146.751205 349.098766 146.697398 C 365.044152 143.824773 384.343757 133.016690 401.369834 118.959973 C 408.276521 113.257818 414.075651 107.553157 417.414104 103.234571 C 419.173490 100.958648 420.230229 99.109660 420.499618 97.629606 C 420.963562 95.080648 419.161927 93.513091 416.536268 93.815820 L 418.541618 96.721815 C 421.059655 91.855696 422.690943 86.803292 423.681058 81.424663 C 424.069273 79.315752 424.349685 77.214970 424.566771 74.954955 C 424.651464 74.073242 424.724450 73.193018 424.799808 72.176279 C 424.838567 71.653333 424.954553 70.006098 424.971735 69.770498 C 424.990648 69.511145 425.007903 69.282260 425.024693 69.069150 C 425.197084 66.881001 423.328044 65.414288 421.376917 66.690654 C 420.851779 67.034183 420.482113 67.406163 419.560301 68.415649 C 419.552514 68.424176 419.552514 68.424176 419.544740 68.432690 C 418.949760 69.084312 418.702910 69.341439 418.508866 69.503583 C 418.536121 69.480808 418.602121 69.439671 418.850350 69.377398 C 419.701345 69.163911 420.642632 69.642186 420.952731 70.489252 C 420.634375 69.619632 419.760661 69.082296 418.840943 69.190498 C 419.511437 69.111617 420.119906 69.390265 420.499590 69.842900 C 420.676664 70.053996 420.760236 70.233517 420.809141 70.401012 C 420.820188 70.438845 420.809581 70.357003 420.801444 70.211022 C 420.780056 69.827313 420.781753 69.424874 420.802352 68.192425 C 420.816860 67.324402 420.821645 66.842759 420.817401 66.291494 C 420.805992 64.809777 420.721079 63.654446 420.509828 62.687092 C 420.148213 61.031200 419.412357 59.842620 417.904449 59.506395 C 415.361904 58.939473 412.879146 61.549923 408.987663 67.862545 L 411.120975 66.959020 C 409.515255 66.604822 408.113003 66.471761 405.048165 66.300131 C 402.209083 66.141143 401.065919 66.052091 399.540678 65.828120 L 400.633824 66.362833 C 397.964302 63.804877 393.865190 63.143626 389.072450 63.795832 L 390.848371 64.461803 C 389.283267 62.670124 387.218774 62.031945 384.794959 62.317998 C 383.190181 62.507391 381.950427 62.913839 379.032291 64.052618 C 378.873389 64.114623 378.873389 64.114623 378.715383 64.176164 C 376.585880 65.004887 375.455165 65.369189 374.365619 65.520352 L 375.447504 65.671435 C 375.240434 65.580114 374.065621 65.060274 373.717530 64.906977 C 373.022705 64.600981 372.442863 64.348744 371.873619 64.105923 C 363.549023 60.554927 357.246323 59.135574 350.494290 60.298571 L 351.915877 60.587565 C 347.034309 57.447024 341.389569 56.034921 336.216573 57.203180 L 337.442967 57.314892 C 334.002752 55.844995 330.223971 55.808863 326.918128 57.339053 L 328.625974 57.352093 C 324.923967 55.569392 320.714679 56.680008 317.855849 59.229977 L 319.888479 58.849518 C 312.408409 56.048615 304.587295 55.926975 296.847574 58.851632 L 298.432712 58.925627 C 289.816214 54.714572 282.333309 55.641874 278.146089 62.577885 L 280.457175 61.703296 C 273.087795 59.390420 263.789974 65.349672 258.573614 73.789011 L 261.767129 73.508959 C 259.986595 71.513590 257.761669 71.128101 255.637990 72.265021 C 254.284404 72.989669 253.144165 74.158461 251.655164 76.075316 C 251.392049 76.414035 250.529421 77.551513 250.557909 77.514248 L 254.140652 78.571982 C 253.661649 72.485543 253.532952 69.647078 253.201465 60.051351 C 252.817855 48.946813 252.251216 44.773473 249.901312 39.636860 C 249.792563 39.399148 249.680196 39.161942 249.564105 38.925039 L 249.761740 39.645133 C 249.706542 38.957313 250.277320 37.408746 251.596402 34.868132 C 252.055478 33.983929 255.426639 27.854671 256.499130 25.772070 C 260.244559 18.499060 262.544297 12.243987 263.371885 5.778639 C 263.417156 5.424967 263.367055 5.065621 263.226770 4.737820 C 262.527636 3.104167 261.312725 2.263314 259.524991 2.099309 C 258.901238 2.042087 258.208636 2.056700 257.210892 2.128965 C 256.712235 2.165082 254.645055 2.345670 254.254935 2.377246 C 253.485201 2.439548 252.769016 2.490390 252.030909 2.533239 L 253.337261 2.922755 C 250.031876 0.474355 245.453370 0.191430 242.420150 3.082037 L 244.790963 2.792687 C 239.662461 -0.133059 234.380447 2.770511 233.068559 8.769279 L 237.014489 9.019055 C 236.771191 6.288662 235.634807 4.444921 233.604476 3.486868 C 232.201011 2.824614 230.984095 2.681556 227.982198 2.589674 C 227.143737 2.564010 226.843994 2.553571 226.408614 2.532267 L 227.349572 2.820756 C 224.338888 0.991039 220.690372 0.947237 217.222417 2.756735 L 218.871002 2.665288 C 214.708718 1.050456 211.933128 0.953719 209.408663 2.965912 L 209.669990 2.789407 C 207.604850 3.958475 207.602106 6.194943 208.575890 10.049596 C 208.891803 11.300114 209.322550 12.734275 209.948951 14.665368 C 210.248328 15.588298 211.432180 19.154073 211.688504 19.938716 C 212.352499 21.971297 212.866723 23.625027 213.318028 25.209453 C 215.013657 31.162404 215.605477 35.543931 214.923120 38.546662 L 216.873397 38.989854 L 214.947951 38.448876 C 215.002571 38.254476 215.096799 38.118782 215.179042 38.048867 C 215.162953 38.062544 215.086905 38.106331 214.956374 38.161093 C 214.598105 38.311399 214.057621 38.449128 213.310672 38.583937 C 212.942751 38.650339 211.616231 38.860518 211.685299 38.849104 C 210.774852 38.999562 210.269327 39.115749 209.789074 39.346509 C 209.626881 39.424443 209.513307 39.465823 209.457785 39.477795 C 209.517149 39.464994 209.631046 39.462635 209.793841 39.502103 C 210.280824 39.620167 210.587814 39.975121 210.666825 40.256449 C 210.612134 40.061715 210.643955 39.487879 210.817574 37.997589 C 210.858860 37.643204 210.884282 37.416414 210.908808 37.176421 C 211.187577 34.448564 211.020512 32.819750 209.691501 31.539943 C 209.140479 31.009322 208.335052 30.839492 207.616697 31.102455 C 207.649567 31.090422 207.703717 31.075797 207.791159 31.063477 C 208.002221 31.033741 208.242848 31.043851 208.520294 31.132717 C 209.376237 31.406874 209.808915 32.174851 209.792201 32.880721 C 209.787445 33.081598 209.766065 33.157316 209.751866 33.190594 C 209.788787 33.104061 209.859204 32.968037 209.959863 32.794313 C 210.357782 32.107566 210.906115 31.319822 212.303512 29.386760 C 212.307334 29.381474 212.307334 29.381474 212.311156 29.376187 C 213.750693 27.384821 214.335080 26.544941 214.833441 25.691746 C 215.261147 24.959513 215.502150 24.416063 215.560746 23.815222 C 215.742197 21.954627 214.099762 21.026718 212.572236 21.480667 L 214.004174 21.593196 C 211.714456 20.499212 208.963639 20.496273 205.081461 21.182798 C 204.368463 21.308884 203.671192 21.446740 202.657266 21.657369 C 199.492442 22.314818 198.752562 22.449265 197.711405 22.502002 C 197.169522 22.529449 196.785688 22.495137 196.575053 22.424551 C 196.545338 22.414593 196.614708 22.471734 196.651309 22.549926 Z" transform="scale(1.000000,1.000000) translate(31.733094,178.219175)" fill="#2e2f31" opacity="1.000000"></path>
        <path d="M 39.207319 2.092550 C 32.115733 16.012591 18.545095 32.246301 1.854470 43.911216 C 0.949099 44.543970 0.728100 45.790867 1.360855 46.696237 C 1.993609 47.601608 3.240506 47.822607 4.145876 47.189852 C 21.398129 35.132421 35.393265 18.390911 42.771452 3.908303 C 43.272858 2.924095 42.881470 1.719766 41.897262 1.218360 C 40.913054 0.716954 39.708725 1.108342 39.207319 2.092550 Z" transform="scale(1.000000,1.000000) translate(401.433870,243.673039)" fill="#2e2f31" opacity="1.000000"></path>
        <path d="M 27.318374 2.440379 C 22.534821 18.836658 16.439365 29.595728 1.563929 44.942008 C 0.795142 45.735129 0.814869 47.001305 1.607990 47.770092 C 2.401111 48.538879 3.667287 48.519153 4.436074 47.726032 C 19.776073 31.900484 26.196542 20.567733 31.158291 3.560661 C 31.467649 2.500297 30.858837 1.389919 29.798473 1.080561 C 28.738109 0.771204 27.627731 1.380015 27.318374 2.440379 Z" transform="scale(1.000000,1.000000) translate(391.836890,240.996221)" fill="#2e2f31" opacity="1.000000"></path>
        <path d="M 22.608744 2.473247 C 18.689661 16.813320 13.701991 26.211389 1.519344 39.628140 C 0.776810 40.445892 0.837787 41.710753 1.655539 42.453286 C 2.473291 43.195819 3.738152 43.134842 4.480685 42.317090 C 17.100660 28.418711 22.386802 18.458244 26.467242 3.527758 C 26.758437 2.462263 26.130743 1.362449 25.065249 1.071254 C 23.999754 0.780058 22.899939 1.407752 22.608744 2.473247 Z" transform="scale(1.000000,1.000000) translate(382.177598,244.785624)" fill="#2e2f31" opacity="1.000000"></path>
        <path d="M 9.034406 2.806447 C 7.557204 17.987479 5.669369 27.978261 1.097520 42.119650 C 0.757734 43.170659 1.334293 44.298121 2.385302 44.637907 C 3.436310 44.977694 4.563772 44.401134 4.903559 43.350126 C 9.572492 28.908440 11.512400 18.642080 13.015603 3.193840 C 13.122578 2.094463 12.318078 1.116521 11.218701 1.009545 C 10.119324 0.902569 9.141382 1.707069 9.034406 2.806447 Z" transform="scale(1.000000,1.000000) translate(371.541853,239.175642)" fill="#2e2f31" opacity="1.000000"></path>
        <path d="M 3.343839 2.625898 C 0.701771 16.487397 0.276688 27.028780 2.153447 42.390112 C 2.287401 43.486529 3.284814 44.266759 4.381231 44.132805 C 5.477648 43.998851 6.257878 43.001439 6.123924 41.905022 C 4.298558 26.964343 4.706890 16.838347 7.273101 3.374834 C 7.479914 2.289799 6.767974 1.242548 5.682938 1.035735 C 4.597903 0.828922 3.550652 1.540862 3.343839 2.625898 Z" transform="scale(1.000000,1.000000) translate(361.595552,237.423754)" fill="#2e2f31" opacity="1.000000"></path>
        <path d="M 39.133317 2.255849 C 33.489338 16.324000 19.652309 33.154921 1.966175 43.838742 C 1.020720 44.409871 0.717270 45.639305 1.288399 46.584760 C 1.859528 47.530215 3.088963 47.833666 4.034418 47.262537 C 22.484713 36.117102 36.886388 18.599364 42.845701 3.745214 C 43.256978 2.720068 42.759338 1.555616 41.734191 1.144340 C 40.709045 0.733063 39.544594 1.230702 39.133317 2.255849 Z" transform="scale(1.000000,1.000000) translate(408.988300,247.324991)" fill="#2e2f31" opacity="1.000000"></path>
        <path d="M 8.189296 37.410000 C 7.741042 36.200827 7.596423 34.170638 7.497053 28.748281 C 7.282395 17.035002 6.821710 10.894771 4.951900 2.562511 C 4.710042 1.484745 3.640277 0.807108 2.562511 1.048965 C 1.484745 1.290822 0.807108 2.360588 1.048965 3.438354 C 2.842515 11.430780 3.287780 17.365492 3.497724 28.821573 C 3.608618 34.872752 3.757500 36.962786 4.438718 38.800382 C 4.822661 39.836075 5.973504 40.364424 7.009198 39.980480 C 8.044891 39.596537 8.573239 38.445694 8.189296 37.410000 Z" transform="scale(1.000000,1.000000) translate(246.259680,179.919104)" fill="#2e2f31" opacity="1.000000"></path>
        <path d="M 5.059762 33.975480 C 4.891617 31.699005 5.050578 29.920525 6.473697 16.354836 C 6.687129 14.320334 6.855462 12.665032 7.009103 11.070979 C 7.295856 8.095850 7.513626 5.505556 7.669329 3.130932 C 7.741600 2.028729 6.906675 1.076630 5.804473 1.004359 C 4.702270 0.932088 3.750171 1.767013 3.677900 2.869216 C 3.525182 5.198304 3.310687 7.749655 3.027554 10.687223 C 2.875152 12.268426 2.707883 13.913261 2.495528 15.937503 C 1.008810 30.109430 0.874392 31.613325 1.070629 34.270126 C 1.151994 35.371695 2.110950 36.198734 3.212519 36.117369 C 4.314088 36.036005 5.141127 35.077048 5.059762 33.975480 Z" transform="scale(1.000000,1.000000) translate(260.907680,183.273957)" fill="#2e2f31" opacity="1.000000"></path>
        <path d="M 5.013697 34.281790 C 4.879708 32.467746 4.694617 33.457203 7.553260 19.537773 C 8.169506 16.537124 8.633952 14.100017 9.023859 11.743820 C 9.549762 8.565804 9.903623 5.725432 10.073743 3.130932 C 10.146014 2.028729 9.311090 1.076630 8.208887 1.004359 C 7.106685 0.932088 6.154585 1.767013 6.082314 2.869216 C 5.921721 5.318414 5.583527 8.033040 5.077528 11.090775 C 4.697339 13.388243 4.241813 15.778544 3.635037 18.733084 C 3.482668 19.475006 3.326991 20.223156 3.120049 21.210555 C 3.060165 21.496284 2.992955 21.816546 2.867620 22.413714 C 2.766575 22.895320 2.692957 23.246859 2.621609 23.588784 C 2.232250 25.454728 1.970236 26.753680 1.747213 27.945910 C 1.163802 31.064700 0.916957 33.119579 1.024564 34.576436 C 1.105928 35.678005 2.064885 36.505044 3.166454 36.423679 C 4.268022 36.342315 5.095061 35.383358 5.013697 34.281790 Z" transform="scale(1.000000,1.000000) translate(266.588401,181.616471)" fill="#2e2f31" opacity="1.000000"></path>
        <path d="M 5.005082 36.737870 C 4.892023 35.207202 4.176817 37.423760 9.495493 21.985332 C 10.361233 19.472364 11.054447 17.348780 11.661510 15.310536 C 13.074377 10.566765 13.923054 6.580807 14.149261 3.130932 C 14.221532 2.028729 13.386608 1.076630 12.284405 1.004359 C 11.182203 0.932088 10.230103 1.767013 10.157832 2.869216 C 9.954657 5.967829 9.162846 9.686710 7.827929 14.168757 C 7.239187 16.145487 6.562485 18.218491 5.713630 20.682446 C 5.807488 20.410006 3.035735 28.299862 2.438092 30.152069 C 1.378916 33.434651 0.904298 35.520915 1.015949 37.032516 C 1.097313 38.134085 2.056270 38.961124 3.157838 38.879760 C 4.259407 38.798395 5.086446 37.839439 5.005082 36.737870 Z" transform="scale(1.000000,1.000000) translate(271.091189,181.139102)" fill="#2e2f31" opacity="1.000000"></path>
        <path d="M 4.993727 35.201332 C 5.558234 28.149337 5.707464 12.883226 4.995073 2.858318 C 4.916778 1.756527 3.960128 0.926820 2.858337 1.005116 C 1.756546 1.083411 0.926839 2.040060 1.005135 3.141852 C 1.702729 12.958532 1.555458 28.024171 1.006481 34.882156 C 0.918343 35.983203 1.739468 36.947228 2.840516 37.035367 C 3.941563 37.123505 4.905589 36.302379 4.993727 35.201332 Z" transform="scale(1.000000,1.000000) translate(255.043859,181.139091)" fill="#2e2f31" opacity="1.000000"></path>
        <path d="M 42.150899 43.922205 C 29.289601 34.750273 12.042925 16.760169 4.792879 2.113213 C 4.302875 1.123279 3.103148 0.718006 2.113213 1.208010 C 1.123279 1.698014 0.718006 2.897741 1.208010 3.887675 C 8.793075 19.211456 26.476362 37.656991 39.828414 47.178899 C 40.727725 47.820236 41.976667 47.611106 42.618004 46.711795 C 43.259341 45.812483 43.050211 44.563541 42.150899 43.922205 Z" transform="scale(1.000000,1.000000) translate(47.780947,246.395530)" fill="#2e2f31" opacity="1.000000"></path>
        <path d="M 43.070186 48.552084 C 42.836032 48.275432 27.329636 31.012451 21.356649 23.926827 C 18.921309 21.037836 16.657045 18.271580 14.560908 15.614768 C 10.581586 10.571058 7.267461 5.996860 4.689521 1.929563 C 4.098194 0.996608 2.862519 0.719663 1.929563 1.310990 C 0.996608 1.902318 0.719663 3.137993 1.310990 4.070948 C 3.971331 8.268252 7.362630 12.948966 11.420603 18.092365 C 13.545104 20.785127 15.836430 23.584444 18.298312 26.504922 C 24.324519 33.653681 39.834467 50.920615 40.016988 51.136264 C 40.730590 51.979381 41.992560 52.084374 42.835677 51.370773 C 43.678794 50.657171 43.783787 49.395201 43.070186 48.552084 Z" transform="scale(1.000000,1.000000) translate(56.881035,235.914065)" fill="#2e2f31" opacity="1.000000"></path>
        <path d="M 39.102349 45.652207 C 28.983315 36.757203 12.843015 17.200881 4.764986 2.059004 C 4.245070 1.084447 3.033561 0.715887 2.059004 1.235803 C 1.084447 1.755719 0.715887 2.967228 1.235803 3.941785 C 9.554235 19.534286 25.999264 39.459833 36.461468 48.656496 C 37.291080 49.385755 38.554794 49.304403 39.284053 48.474792 C 40.013312 47.645180 39.931960 46.381466 39.102349 45.652207 Z" transform="scale(1.000000,1.000000) translate(72.111391,233.211759)" fill="#2e2f31" opacity="1.000000"></path>
        <path d="M 25.337279 41.442904 C 24.550442 40.218687 23.785508 38.703584 22.917253 36.688871 C 22.774302 36.357166 18.435790 25.384942 16.635931 21.482693 C 13.385541 14.435568 9.584771 8.069937 4.565730 1.755597 C 3.878423 0.890911 2.620283 0.747117 1.755597 1.434425 C 0.890911 2.121733 0.747117 3.379872 1.434425 4.244558 C 6.242041 10.292911 9.880481 16.386665 13.003676 23.158021 C 14.746853 26.937378 19.059423 37.843994 19.243853 38.271949 C 20.191511 40.470910 21.048177 42.167706 21.972366 43.605624 C 22.569584 44.534820 23.806987 44.803940 24.736183 44.206721 C 25.665378 43.609503 25.934498 42.372100 25.337279 41.442904 Z" transform="scale(1.000000,1.000000) translate(99.565030,233.838957)" fill="#2e2f31" opacity="1.000000"></path>
        <path d="M 15.114026 41.813602 C 13.517194 39.358080 12.535988 36.125897 11.352956 29.984255 C 11.204294 29.212484 11.053748 28.408218 10.842475 27.262959 C 10.786487 26.959461 10.591866 25.902085 10.577375 25.823429 C 10.469590 25.238373 10.385114 24.781645 10.301306 24.331584 C 9.838696 21.847322 9.451028 19.870137 9.020145 17.843749 C 7.883894 12.500113 6.583817 7.531025 4.901750 2.379733 C 4.558888 1.329724 3.429742 0.756468 2.379733 1.099331 C 1.329724 1.442193 0.756468 2.571339 1.099331 3.621348 C 2.734402 8.628717 3.999212 13.463007 5.107618 18.675694 C 5.530390 20.663936 5.911980 22.610123 6.368905 25.063860 C 6.452170 25.510999 6.536216 25.965403 6.643577 26.548156 C 6.657939 26.626112 6.852686 27.684176 6.908848 27.988617 C 7.121866 29.143336 7.274100 29.956617 7.425162 30.740846 C 8.702058 37.369779 9.795835 40.972782 11.760715 43.994268 C 12.362890 44.920259 13.601713 45.182765 14.527704 44.580590 C 15.453695 43.978416 15.716201 42.739593 15.114026 41.813602 Z" transform="scale(1.000000,1.000000) translate(120.219312,232.037715)" fill="#2e2f31" opacity="1.000000"></path>
        <path d="M 11.723854 39.319399 C 11.751500 36.216445 11.259699 32.429711 10.247299 27.298184 C 9.847938 25.273954 9.382751 23.103798 8.717606 20.122709 C 8.683669 19.970612 7.362181 14.093574 6.970597 12.317083 C 6.164563 8.660365 5.529763 5.612453 4.965534 2.628743 C 4.760294 1.543409 3.714077 0.829951 2.628743 1.035191 C 1.543409 1.240431 0.829951 2.286648 1.035191 3.371983 C 1.607869 6.400373 2.250398 9.485395 3.064368 13.178116 C 7.909718 35.159904 7.767190 34.437476 7.724013 39.283762 C 7.714172 40.388288 8.601590 41.291661 9.706115 41.301501 C 10.810641 41.311342 11.714013 40.423924 11.723854 39.319399 Z" transform="scale(1.000000,1.000000) translate(133.758091,231.879276)" fill="#2e2f31" opacity="1.000000"></path>
    </g>
</svg>