<?xml version="1.0" encoding="UTF-8" standalone="yes"?>
<!DOCTYPE svg PUBLIC "-//W3C//DTD SVG 1.1//EN" "http://www.w3.org/Graphics/SVG/1.1/DTD/svg11.dtd">

<svg width="500" height="500" viewBox="0 0 500 500" xmlns="http://www.w3.org/2000/svg" xmlns:xlink="http://www.w3.org/1999/xlink" version="1.1" baseProfile="full">
    <g transform="scale(1.000000,-1.000000) translate(0,-500)">
        <path d="M 55.744448 14.683750 C 52.218627 24.760978 55.265061 20.925887 52.706513 25.660479 C 51.533417 26.730513 64.867255 67.370155 63.178139 76.916854 C 64.261425 81.857985 57.994324 81.177734 53.347516 81.857985 C 56.316224 71.156663 49.216002 30.821720 43.486835 20.925887 C -43.289358 -2.311557 24.713478 -6.302603 55.744448 14.683750 Z" transform="scale(1.000000,1.000000) translate(154.964432,107.640224)" fill="#de9799" opacity="1.000000"></path>
        <path d="M 44.850944 6.361603 C 45.676787 15.433029 44.850944 20.742714 45.146494 26.436079 C 43.973398 27.506113 45.623951 72.035330 50.166858 81.582029 C 51.250144 86.523161 46.217563 89.616520 40.611982 84.675388 C 39.907109 75.210354 38.726126 32.292387 36.033056 23.189626 C -27.082599 5.059408 7.107663 -6.264785 44.850944 6.361603 Z" transform="scale(1.000000,1.000000) translate(187.060235,99.881690)" fill="#de9799" opacity="1.000000"></path>
        <path d="M 1.000000 7.054271 C 16.091519 10.855875 67.670136 -4.288150 61.372517 3.023560 C 54.471958 7.054271 58.862098 13.285500 64.358181 14.220872 C 69.224314 18.941954 24.079770 30.866710 16.091519 35.959369 C 22.760369 21.682085 9.132128 12.288343 1.000000 7.054271 Z" transform="scale(1.000000,1.000000) translate(350.241911,166.797362)" fill="#2e2f31" opacity="1.000000"></path>
        <path d="M 87.536835 137.248726 C 67.662798 144.950056 46.836378 132.740722 32.352633 127.637330 C 37.459021 134.828126 42.641670 164.448418 34.727540 170.548652 C 32.485766 167.692893 22.748815 169.286887 20.597357 163.182305 C -72.015724 -6.190796 190.756447 7.956020 244.381374 1.000000 C 265.278813 12.707593 264.685187 9.236924 248.638124 27.118416 C 224.425696 78.903870 105.939812 134.265851 87.536835 137.248726 Z" transform="scale(1.000000,1.000000) translate(117.695306,175.638315)" fill="#fdfdfd" opacity="1.000000"></path>
        <path d="M 74.236648 27.698481 C 57.990101 22.690641 58.588426 15.184048 1.000000 18.328024 C 33.041562 -3.927496 151.763165 -7.184673 175.099534 23.038715 C 147.539304 79.594665 65.210887 127.145702 42.383827 127.309831 C -3.314477 56.434322 56.824139 52.069406 74.236648 27.698481 Z" transform="scale(1.000000,1.000000) translate(176.142377,182.594335)" fill="#b1b7bc" opacity="1.000000"></path>
        <path d="M 58.517482 30.354136 C 50.780183 26.187469 40.035220 12.929298 1.000000 17.397637 C 16.020179 -5.108226 82.573414 -2.534842 93.402673 13.562546 C 82.093829 46.373303 18.615619 30.354136 62.709078 113.125784 C 58.003233 114.242509 49.319238 115.436967 43.927320 117.966707 C 43.927320 107.029207 22.865858 79.266625 32.240858 53.221617 C 40.180633 41.048447 44.132323 42.998639 58.517482 30.354136 Z" transform="scale(1.000000,1.000000) translate(155.817125,196.778383)" fill="#797ea4" opacity="1.000000"></path>
        <path d="M 38.955837 30.525685 C 30.111702 26.414610 -7.599815 14.472492 2.797907 1.000000 C 9.608797 4.816951 20.072149 4.422783 38.955837 8.879629 C 48.543565 19.390110 52.210259 22.061841 38.955837 30.525685 Z" transform="scale(1.000000,1.000000) translate(86.382558,337.820620)" fill="#e9ad30" opacity="1.000000"></path>
        <path d="M 61.019708 13.798940 C 64.854800 21.435653 93.489815 96.487889 29.713531 87.577855 C 23.633590 85.839207 5.475714 79.167224 3.653956 68.081156 C 3.653956 59.355688 3.610635 56.194632 1.000000 45.921818 C 13.954268 38.555471 15.407576 35.635806 28.084451 45.921818 C 31.364976 28.131742 23.304153 6.167199 23.633590 3.593536 C 36.619003 -6.615831 43.561558 16.817380 61.019708 13.798940 Z" transform="scale(1.000000,1.000000) translate(124.338395,300.265149)" fill="#939293" opacity="1.000000"></path>
        <path d="M 96.073337 91.076886 C 114.270047 83.537996 164.972951 34.524240 170.220486 17.684217 C 170.336521 17.311847 170.341144 16.913676 170.233789 16.538713 C 167.498299 6.984420 158.592410 2.315579 143.470758 1.258133 C 131.398223 0.413910 116.560694 1.625320 89.776154 5.115546 C 89.561137 5.143564 89.352108 5.206362 89.157250 5.301480 C 84.263253 7.690437 79.899151 9.739522 71.358697 13.692365 C 70.326525 14.170052 69.741994 14.440571 69.294327 14.647796 C 50.283769 23.447809 41.244082 27.919657 31.852991 33.545469 C 19.457127 40.971317 10.824100 48.285991 5.699305 56.321066 C 1.008240 63.676103 -0.037929 71.699499 1.970145 81.499700 C 3.549458 89.207379 6.344902 96.501124 13.251213 112.174726 C 13.696602 113.185519 14.877071 113.643869 15.887864 113.198480 C 16.898657 112.753091 17.357007 111.572622 16.911618 110.561829 C 10.124942 95.159733 7.390122 88.024168 5.888730 80.696777 C 4.076286 71.851328 4.985420 64.878908 9.071751 58.472022 C 13.801009 51.057103 21.997461 44.112333 33.908598 36.976865 C 43.136415 31.448864 52.094301 27.017482 70.974637 18.277749 C 71.422115 18.070611 72.006445 17.800186 73.038816 17.322406 C 81.603519 13.358340 85.985581 11.300822 90.911918 8.896079 L 90.293014 9.082013 C 116.809224 5.626752 131.477094 4.429194 143.191723 5.248389 C 156.824701 6.201733 164.224110 10.080813 166.388298 17.639715 L 166.401601 16.494210 C 161.537599 32.103423 111.713826 80.267336 94.542332 87.381480 C 93.521874 87.804256 93.037356 88.974228 93.460131 89.994686 C 93.882907 91.015144 95.052879 91.499662 96.073337 91.076886 Z" transform="scale(1.000000,1.000000) translate(182.930867,191.229053)" fill="#2e2f31" opacity="1.000000"></path>
        <path d="M 2.639992 9.529271 C 2.639992 9.529271 2.639992 9.529271 2.639992 9.529271 C -2.169115 3.707869 4.971680 0.195783 6.574716 1.157998 C 9.489326 2.420725 9.829364 4.799300 9.489326 6.952165 C 9.257592 9.529271 5.506025 10.546555 2.639992 9.529271 Z" transform="scale(1.000000,1.000000) translate(144.400201,366.776632)" fill="#2e2f31" opacity="1.000000"></path>
        <path d="M 4.792245 1.282612 C 3.129303 0.512312 1.466360 1.282612 1.016916 4.013675 C 0.672304 6.107723 5.717681 4.013675 4.792245 1.282612 Z" transform="scale(1.000000,1.000000) translate(146.978798,370.417277)" fill="#ffffff" opacity="1.000000"></path>
        <path d="M 77.156026 11.129073 C 78.470955 9.533702 81.948657 9.657004 87.987123 11.434907 C 88.779277 11.668141 89.598198 11.921671 90.659274 12.259252 C 95.866713 13.915999 95.929178 13.935125 97.549942 14.299559 C 100.233061 14.902867 102.066296 14.899761 103.434661 13.829099 L 101.573915 14.152708 C 119.426590 20.060157 125.514194 22.572048 127.147439 24.703900 C 127.917638 25.709229 127.458565 26.462097 122.026623 32.646515 C 121.589683 33.143983 121.427264 33.825454 121.592849 34.466525 C 122.108972 36.464729 125.822167 49.348620 126.986244 53.742828 C 130.156119 65.708605 132.190971 76.194232 132.992844 86.383209 C 133.031022 86.868326 133.244758 87.322883 133.594012 87.661731 C 134.328393 88.374230 135.052216 88.469269 136.689269 88.469254 C 137.461019 88.469246 137.556893 88.465500 140.244438 88.345753 C 142.041712 88.265673 143.250560 88.228314 144.519511 88.226291 C 145.416695 88.224865 145.988838 87.740533 146.303642 87.144354 C 146.414737 86.933960 146.471639 86.750427 146.510336 86.557932 C 146.543986 86.390543 146.558268 86.235435 146.564996 86.056890 C 146.573361 85.834884 146.568768 85.556729 146.553435 85.203321 C 146.527396 84.603122 146.468576 83.759652 146.377779 82.656109 C 146.237381 80.949699 146.090033 79.366170 145.684191 75.119721 C 145.680052 75.076415 145.680052 75.076415 145.675914 75.033110 C 145.297505 71.073442 145.126107 69.217832 144.987629 67.498421 C 144.902064 66.436013 144.847992 65.629429 144.826979 65.088485 C 144.817111 64.834442 144.815251 64.651347 144.819468 64.562819 C 144.818385 64.585566 144.814295 64.624289 144.793817 64.716630 C 144.758829 64.874395 144.705056 65.033499 144.594473 65.227365 C 144.281112 65.776727 143.719630 66.219764 142.879163 66.220454 C 143.637404 66.219831 144.330090 65.790477 144.667972 65.111679 C 146.536659 61.357526 146.133626 55.642650 144.051385 43.253099 C 143.980441 42.830975 143.907450 42.398993 143.810770 41.828505 C 142.081600 31.624992 141.620029 27.989806 141.927315 24.941100 L 139.864923 26.739218 C 140.202147 26.751446 140.479575 26.739413 140.762402 26.679135 C 141.090708 26.609165 141.396669 26.487298 141.708534 26.230320 C 142.311426 25.733535 142.596809 24.927293 142.392674 24.134388 C 142.209908 23.424485 141.878748 23.114698 141.355998 22.784438 C 141.166988 22.665026 140.950344 22.553183 140.689708 22.434481 C 139.898681 22.074222 138.536848 21.583350 136.575322 20.939528 C 133.401951 19.897947 128.997648 18.560682 122.174572 16.544015 C 121.836639 16.444152 121.836639 16.444152 121.498616 16.344327 C 120.572691 16.070924 114.801810 14.371021 113.240482 13.909056 C 110.276294 13.032014 108.131265 12.388731 106.434384 11.864967 C 104.491301 11.265209 103.202416 10.841229 102.617470 10.608222 C 102.522470 10.570379 102.467670 10.545716 102.487969 10.557245 C 102.617179 10.630625 102.737669 10.716104 102.898119 10.892305 C 103.147116 11.173668 103.147116 11.173668 103.385820 11.926998 C 103.327697 13.015523 103.327697 13.015523 102.714685 13.719800 C 102.205235 14.055809 102.205235 14.055809 101.929901 14.128090 C 101.732096 14.168931 101.732096 14.168931 101.630040 14.177179 C 101.561881 14.182080 101.527864 14.181573 101.508854 14.180320 C 101.571207 14.184430 101.705832 14.201009 101.896945 14.230525 C 105.484970 14.784668 107.755224 14.238046 108.452263 11.957498 C 108.891872 10.519199 108.596568 9.583885 107.418280 6.972607 C 107.401270 6.934907 107.401270 6.934907 107.384345 6.897383 C 106.928617 5.886788 106.733549 5.397957 106.631994 4.974441 C 106.591596 4.805971 106.580734 4.698633 106.584143 4.664148 C 106.575790 4.748630 106.524695 4.878005 106.424828 4.994522 C 106.352019 5.079470 106.305425 5.107683 106.338966 5.097478 C 106.523913 5.041212 106.833618 5.004461 107.266421 5.006955 C 108.395916 5.013464 110.088801 5.283823 112.377706 5.854379 C 113.993552 6.257162 116.038689 6.353907 121.769123 6.435890 C 126.220756 6.499579 127.984927 6.539216 130.417613 6.658555 C 139.878256 7.122663 145.638186 8.617554 146.976154 11.223054 C 147.041572 11.350447 147.120484 11.470446 147.211532 11.580985 C 148.979767 13.727759 148.899515 14.675968 147.395148 17.319177 C 147.129322 17.786240 147.107783 17.824268 147.002960 18.014068 C 145.387339 20.939442 145.177682 23.214051 147.136230 25.914695 L 146.763522 24.921857 C 146.914114 26.576030 147.012544 29.391495 147.134120 34.870752 C 147.147907 35.492152 147.162000 36.143570 147.180918 37.030038 C 147.204757 38.150042 147.218185 38.780760 147.229461 39.306228 C 147.270528 41.219946 147.303238 42.679088 147.338576 44.142723 C 147.431499 47.991488 147.530595 51.317234 147.652799 54.490667 C 148.382056 73.428378 149.726835 83.947125 152.947384 86.768028 C 153.312069 87.087458 153.780366 87.263551 154.265166 87.263551 C 188.600907 87.263551 221.650722 84.831255 260.358758 80.262357 C 269.279554 79.209392 297.944999 75.575846 303.344680 74.951312 C 316.245941 73.459134 323.817051 72.974244 328.232127 73.477282 L 326.847322 70.305236 C 326.547201 70.713336 326.215652 71.195901 325.794961 71.830469 C 325.551467 72.197754 324.654568 73.569376 324.680134 73.530432 C 324.545093 73.736133 324.424400 73.919060 324.309352 74.092238 C 323.482066 75.337526 322.883938 76.167277 322.408468 76.706709 C 322.201117 76.941954 322.048068 77.083429 322.005670 77.109591 C 322.094415 77.054831 322.226397 77.001083 322.426166 76.972842 C 322.790737 76.921303 323.192505 77.003507 323.533929 77.232644 L 322.419413 78.893322 L 322.219900 80.883346 C 324.086792 81.070514 325.488767 81.331387 326.419860 81.646051 C 326.795549 81.773015 327.065555 81.899272 327.227440 82.008822 C 327.272870 82.039565 327.252421 82.017693 327.208181 81.925892 C 327.126893 81.757215 327.107492 81.560813 327.141373 81.412748 C 327.146999 81.388161 327.122065 81.436903 327.043520 81.540603 C 326.741379 81.939502 326.115106 82.478396 325.192697 83.102364 C 321.733327 85.442472 315.691726 88.173495 304.124701 92.870207 C 303.551381 93.102999 302.950598 93.346460 302.244787 93.632106 C 292.083330 97.744500 289.583633 98.777060 285.730651 100.526078 C 285.402400 100.675084 285.120524 100.910039 284.914841 101.206089 C 266.104160 128.281288 230.506303 158.593884 191.245210 182.291834 C 153.281258 205.206831 118.666636 217.715965 102.679055 213.790982 C 101.078032 213.397927 99.715698 215.001852 100.362649 216.518170 C 116.159036 253.541637 112.524362 278.172714 95.536353 287.029904 C 80.907137 294.657268 59.829478 287.892303 50.680011 272.156478 L 50.618994 272.058195 C 49.293689 270.055121 46.577503 268.375680 42.175195 266.502635 C 40.099960 265.619688 37.742465 264.728935 34.330804 263.513077 C 33.703333 263.289457 33.053441 263.059356 32.185322 262.753082 C 32.216632 262.764129 30.490566 262.155582 29.997177 261.981264 C 28.198313 261.345709 26.866082 260.869185 25.557668 260.390425 C 17.067872 257.283934 11.487813 254.702859 7.555797 251.761409 C 6.687366 251.132721 6.089776 249.462262 5.761953 246.754261 C 5.658827 245.902381 5.643466 245.719956 5.478797 243.578907 C 5.316850 241.473249 5.196661 240.572779 4.853327 239.732983 L 2.990301 242.489802 C 5.920255 242.507035 7.023879 242.777277 16.914676 245.589349 C 29.944860 249.293987 38.143957 250.106640 47.175925 246.968803 C 50.357012 245.863648 53.404768 244.253990 56.324469 242.098989 C 57.205400 241.448783 57.399757 240.211097 56.760521 239.322175 C 33.144169 206.481278 28.849771 174.253214 42.982562 147.636410 C 56.785745 121.640368 87.441916 102.551674 129.106989 94.602713 C 129.950565 94.441773 130.597229 93.760256 130.713704 92.909400 C 132.267315 81.560224 123.135438 39.785528 117.026227 29.233254 C 116.724291 28.711728 116.203294 28.354147 115.608082 28.259925 C 96.393762 25.218287 83.153270 20.176494 76.680431 14.735041 C 75.521699 13.760942 74.685927 12.843239 74.194616 12.056399 C 73.857867 11.517092 73.750995 11.156717 73.764260 11.067387 C 73.733034 11.277678 73.534314 11.485348 73.438059 11.510507 C 73.686503 11.445569 74.228832 11.499426 74.969956 11.750939 C 75.757072 12.018059 76.627359 11.770491 77.156026 11.129073 Z M 74.069344 8.584982 L 76.255414 7.963116 C 73.087529 6.888044 70.230084 7.634922 69.807641 10.479875 C 69.479907 12.687009 71.084012 15.256000 74.106479 17.796866 C 81.216763 23.774193 95.111496 29.065111 114.982667 32.210729 L 113.564522 31.237399 C 119.241941 41.043851 128.179465 81.929459 126.750664 92.366892 L 128.357380 90.673580 C 38.859921 107.748116 4.182163 173.058012 53.513020 241.657498 L 53.949071 238.880684 C 51.352515 240.797176 48.662870 242.217699 45.863230 243.190334 C 37.824972 245.982941 30.303628 245.237464 18.008571 241.741832 C 7.559752 238.771107 6.494846 238.510345 3.013827 238.489871 C 1.587393 238.481481 0.610992 239.926314 1.150801 241.246689 C 1.265817 241.528019 1.368305 242.295865 1.490575 243.885642 C 1.661230 246.104521 1.677534 246.298147 1.790944 247.234981 C 2.245017 250.985869 3.147529 253.508686 5.185346 254.983202 C 9.492468 258.205576 15.347123 260.913666 24.183159 264.146849 C 25.508152 264.631676 26.852974 265.112703 28.664663 265.752789 C 29.159534 265.927632 30.886937 266.536649 30.854509 266.525208 C 31.718971 266.830192 32.365251 267.059014 32.987998 267.280951 C 36.330173 268.472045 38.624676 269.338997 40.609171 270.183337 C 44.311280 271.758469 46.533527 273.132504 47.283068 274.265364 L 47.222052 274.167080 C 57.421305 291.708392 80.814568 299.216560 97.385613 290.576767 C 116.592771 280.562560 120.561546 253.667377 104.041772 214.948440 L 101.725366 217.675628 C 138.668602 226.745267 248.714490 160.321698 288.199840 103.488365 L 287.384031 104.168376 C 291.163467 102.452744 293.650414 101.425450 303.745377 97.339966 C 304.452502 97.053789 305.054645 96.809777 305.629551 96.576340 C 317.510407 91.752199 323.642328 88.980349 327.433899 86.415522 C 330.448119 84.376537 331.903479 82.455111 330.811574 80.189357 C 329.877678 78.251477 327.267425 77.369340 322.618925 76.903299 C 320.548522 76.695728 319.577141 79.394468 321.304896 80.554001 C 322.880213 81.611229 324.058268 80.884294 325.409197 79.351633 C 326.039087 78.637008 326.718294 77.694781 327.641137 76.305654 C 327.760574 76.125868 327.885170 75.937026 328.023947 75.725635 C 328.004726 75.754913 328.893611 74.395548 329.128860 74.040700 C 329.516733 73.455634 329.815709 73.020478 330.069747 72.675040 C 330.980334 71.436838 330.212044 69.676987 328.684942 69.502994 C 323.852584 68.952413 316.108170 69.448402 302.885098 70.977801 C 297.457835 71.605526 268.786151 75.239863 259.889873 76.289934 C 221.324450 80.841998 188.420615 83.263551 154.265166 83.263551 L 155.582949 83.759075 C 153.695331 82.105696 152.298403 71.179042 151.649836 54.336748 C 151.528461 51.184824 151.429908 47.877298 151.337411 44.046177 C 151.302174 42.586743 151.269537 41.130858 151.228540 39.220411 C 151.217273 38.695346 151.203855 38.065055 151.180007 36.944693 C 151.161067 36.057193 151.146953 35.404766 151.133135 34.782020 C 151.009093 29.191583 150.909545 26.344141 150.747049 24.559206 C 150.714416 24.200752 150.585653 23.857747 150.374341 23.566368 C 149.495898 22.355082 149.560184 21.657629 150.504449 19.947866 C 150.597072 19.780156 150.617306 19.744432 150.871537 19.297743 C 153.107186 15.369652 153.331482 12.719516 150.299039 9.037896 L 150.534417 9.395826 C 148.232773 4.913704 141.647671 3.204654 130.613604 2.663360 C 128.118196 2.540943 126.325814 2.500672 121.826344 2.436300 C 116.564116 2.361015 114.511716 2.263926 113.345183 1.973144 C 107.920668 0.620973 104.920022 0.603680 103.387740 2.391429 C 102.541975 3.378202 102.423395 4.577403 102.742261 5.907167 C 102.923530 6.663113 103.175204 7.293796 103.737957 8.541722 C 103.755153 8.579849 103.755153 8.579849 103.772275 8.617795 C 104.427282 10.069398 104.640385 10.744360 104.626952 10.788311 C 104.705390 10.531680 104.900039 10.369847 104.893061 10.371527 C 104.480076 10.470964 103.681186 10.458664 102.507476 10.277393 C 102.211043 10.231612 101.971896 10.202160 101.771901 10.188979 C 101.623276 10.179184 101.486830 10.177150 101.343162 10.187480 C 100.902360 10.219176 100.548619 10.308494 100.113033 10.681477 C 99.073075 11.571971 99.258595 12.836505 99.940595 13.585454 C 100.130033 13.793488 100.304555 13.917298 100.512633 14.035469 C 100.688325 14.135248 100.885344 14.223917 101.137230 14.324253 C 101.856751 14.610866 103.205596 15.054571 105.254653 15.687038 C 106.969965 16.216492 109.127577 16.863549 112.105599 17.744684 C 113.669744 18.207482 119.442114 19.907823 120.365862 20.180584 C 120.703403 20.280267 120.703403 20.280267 121.040795 20.379970 C 127.825704 22.385356 132.204886 23.714994 135.327897 24.740045 C 137.152721 25.338998 138.416856 25.794655 139.031821 26.074730 C 139.141416 26.124643 139.209920 26.160008 139.219553 26.166094 C 139.172004 26.136054 139.115026 26.093907 139.039090 26.022872 C 138.814925 25.813174 138.626578 25.549566 138.518992 25.131676 C 138.325605 24.380520 138.598290 23.610151 139.164835 23.143316 C 139.440043 22.916544 139.685293 22.818859 139.928625 22.766998 C 140.039405 22.743388 140.045335 22.743131 140.009872 22.741845 C 138.955818 22.703624 138.053254 23.490534 137.947480 24.539963 C 137.586649 28.119903 138.053017 31.792870 139.867001 42.496848 C 139.963402 43.065696 140.036118 43.496046 140.106707 43.916058 C 141.992452 55.136436 142.386178 60.719345 141.087068 63.329230 L 142.877520 64.220455 L 142.875876 62.220456 C 142.020466 62.221158 141.445459 62.674867 141.119976 63.245479 C 140.997369 63.460425 140.932954 63.651017 140.888692 63.850601 C 140.849899 64.025532 140.832829 64.187136 140.823999 64.372484 C 140.813142 64.600409 140.816023 64.884101 140.829994 65.243746 C 140.853636 65.852378 140.910884 66.706341 141.000539 67.819535 C 141.141240 69.566538 141.313564 71.432179 141.694055 75.413639 C 141.698195 75.456958 141.698195 75.456958 141.702335 75.500275 C 142.106172 79.725747 142.252913 81.302755 142.391250 82.984110 C 142.478149 84.040278 142.533897 84.839701 142.557195 85.376698 C 142.568233 85.631118 142.571270 85.815047 142.567832 85.906272 C 142.568495 85.888695 142.571577 85.855222 142.588791 85.769589 C 142.619167 85.618490 142.666405 85.466128 142.766480 85.276604 C 143.070175 84.701463 143.629831 84.227701 144.513144 84.226297 C 143.173697 84.228431 141.916412 84.267287 140.066390 84.349717 C 137.484416 84.464760 137.369602 84.469247 136.689231 84.469254 C 136.293825 84.469257 136.004200 84.456054 135.829641 84.433134 C 135.792420 84.428247 135.783558 84.426432 135.814926 84.436481 C 135.984162 84.490695 136.170844 84.588568 136.379345 84.790857 L 134.986679 86.226294 L 136.980513 86.069379 C 136.156858 75.603620 134.079196 64.897394 130.852868 52.718514 C 129.672806 48.263965 125.964222 35.396076 125.465743 33.466182 L 125.031969 35.286192 C 125.277210 35.006978 125.525875 34.725384 125.840201 34.370566 C 125.901781 34.301053 126.454585 33.677544 126.612118 33.499546 C 127.225741 32.806211 127.642750 32.329197 128.032539 31.871551 C 129.051056 30.675721 129.755396 29.754565 130.285023 28.885990 C 131.742344 26.496023 131.876103 24.298898 130.322708 22.271275 C 127.923701 19.139885 122.033922 16.709621 102.830506 10.355211 C 102.195179 10.144981 101.496807 10.266437 100.969760 10.678819 C 100.555408 11.003025 98.335366 10.503841 91.871979 8.447514 C 90.785708 8.101917 89.941539 7.840571 89.116890 7.597770 C 81.504847 5.356558 76.865825 5.192081 74.069344 8.584982 Z" transform="scale(1.000000,1.000000) translate(83.155893,98.330784)" fill="#2e2f31" opacity="1.000000"></path>
    </g>
</svg>