<?xml version="1.0" encoding="UTF-8" standalone="yes"?>
<!DOCTYPE svg PUBLIC "-//W3C//DTD SVG 1.1//EN" "http://www.w3.org/Graphics/SVG/1.1/DTD/svg11.dtd">

<svg width="500" height="500" viewBox="0 0 500 500" xmlns="http://www.w3.org/2000/svg" xmlns:xlink="http://www.w3.org/1999/xlink" version="1.1" baseProfile="full">
    <g transform="scale(1.000000,-1.000000) translate(0,-500)">
        <path d="M 18.506740 2.251663 C 12.891631 14.247579 -2.340152 31.999781 1.661411 38.239412 C 5.415298 41.663512 15.050245 43.012311 21.475448 38.239412 C 18.506740 27.538090 22.517115 20.378714 28.246282 10.482881 C 110.707997 2.944842 30.287733 -1.249667 18.506740 2.251663 Z" transform="scale(1.000000,1.000000) translate(237.235986,108.774370)" fill="#fc403f" opacity="1.000000"></path>
        <path d="M 60.494599 1.000000 C 47.463674 3.363445 18.683773 1.000000 1.970845 10.708641 C -5.989574 18.715262 37.668558 25.338221 35.986165 46.715510 C 31.120032 51.436592 92.691573 44.662277 83.837406 43.620611 C 90.146097 30.790506 69.140995 6.713459 60.494599 1.000000 Z" transform="scale(1.000000,1.000000) translate(89.912769,160.041741)" fill="#2e2f31" opacity="1.000000"></path>
        <path d="M 1.128810 16.850097 C -0.986828 26.964925 23.679249 40.693404 22.241604 62.088547 C 32.159930 72.362282 93.535383 102.047513 144.153706 117.764130 C 195.951844 112.080896 271.974247 -0.005422 87.366606 1.006814 C 63.983393 11.180473 37.014303 15.696422 1.128810 16.850097 Z" transform="scale(1.000000,1.000000) translate(148.932728,145.593099)" fill="#8a766c" opacity="1.000000"></path>
        <path d="M 238.981828 1.000000 C 250.554218 29.141750 275.644270 53.341442 195.791667 95.681306 C 185.085965 73.175443 113.905941 41.883109 93.026347 37.716442 C 84.024261 45.723062 72.337954 35.121003 28.604167 41.883109 C 23.738034 46.604191 9.854167 42.924775 1.000000 41.883109 C 14.481047 52.412734 126.013844 104.827093 195.791667 103.862275 C 197.160627 107.786265 195.822338 113.095457 198.737499 116.456533 C 220.511235 122.579784 230.903470 125.928393 241.625000 129.383109 C 241.625000 118.445609 290.062500 79.386449 280.687500 53.341442 C 275.776515 25.896615 253.366987 13.644503 238.981828 1.000000 Z" transform="scale(1.000000,1.000000) translate(97.294767,164.874143)" fill="#380808" opacity="1.000000"></path>
        <path d="M 11.500216 22.932775 C 17.333683 14.603273 98.474493 -11.767746 1.000000 8.477515 Z" transform="scale(1.000000,1.000000) translate(345.688440,328.573960)" fill="#de8417" opacity="1.000000"></path>
        <path d="M 5.162647 1.000000 C 13.194304 32.606032 -26.187691 108.635599 41.903070 99.246179 C 67.126342 91.754894 73.331683 67.659416 59.333691 58.490894 C 22.778746 50.611646 48.503844 19.330877 47.983011 15.261859 C 34.997598 5.052493 22.620797 4.018440 5.162647 1.000000 Z" transform="scale(1.000000,1.000000) translate(289.204197,278.473187)" fill="#3e9442" opacity="1.000000"></path>
        <path d="M 9.508367 10.904662 C 9.508367 10.904662 9.508367 10.904662 9.508367 10.904662 C 15.390183 4.144527 6.656577 0.066099 4.695972 1.183477 C 1.131235 2.649824 0.715349 5.411958 1.131235 7.911984 C 1.414658 10.904662 6.003042 12.085989 9.508367 10.904662 Z" transform="scale(1.000000,1.000000) translate(324.274431,355.402574)" fill="#2e2f31" opacity="1.000000"></path>
        <path d="M 1.138883 1.328185 C 3.172758 0.433670 5.206634 1.328185 5.756330 4.499646 C 6.177810 6.931371 0.007022 4.499646 1.138883 1.328185 Z" transform="scale(1.000000,1.000000) translate(326.857799,359.630288)" fill="#ffffff" opacity="1.000000"></path>
        <path d="M 2.529267 2.910022 C 9.416319 9.158537 21.726925 12.242220 31.454887 13.621762 C 33.138848 14.430704 33.348826 10.538079 34.295796 8.996238 C 28.386041 2.244993 -6.668937 -1.508614 2.529267 2.910022 Z" transform="scale(1.000000,1.000000) translate(305.234110,280.087542)" fill="#f6f1db" opacity="1.000000"></path>
        <path d="M 27.448168 21.611515 C 46.587004 26.978723 64.235126 28.411036 83.016002 25.095921 C 82.386288 16.305417 36.694958 -4.710257 3.074725 2.468266 C -6.275217 4.464646 18.491189 18.424214 27.448168 21.611515 Z" transform="scale(1.000000,1.000000) translate(90.490829,168.010554)" fill="#f6f1db" opacity="1.000000"></path>
        <path d="M 166.018600 3.404033 C 164.509027 6.629032 162.748758 9.578074 158.388636 16.456204 C 153.928091 23.492752 152.124236 26.514816 150.514304 29.954215 C 148.183826 34.932964 147.566844 38.615094 149.301114 41.319339 L 150.326929 38.350906 C 135.922936 43.366812 121.785359 46.686178 106.606961 48.876991 C 95.216106 50.521118 86.809522 51.239639 66.986879 52.540462 C 53.655739 53.415293 47.265284 53.914966 39.640265 54.783192 C 26.291192 56.303190 14.735594 58.551051 3.379554 62.065675 C 3.067118 62.162372 2.783164 62.334215 2.552569 62.566147 C 1.524807 63.599875 0.972105 64.778504 1.001084 66.060564 C 1.059875 68.661472 3.170774 70.637733 7.500390 73.200730 C 9.321892 74.279002 17.597724 78.662443 19.527717 79.760646 C 31.055970 86.320440 36.585202 92.293209 35.992354 99.826217 L 36.593531 98.547686 C 34.528953 100.550723 29.667524 100.796546 21.464001 99.629770 C 20.368493 99.473957 19.265276 99.304098 17.715283 99.056239 C 12.752195 98.262591 12.352115 98.201114 10.615705 97.996830 C 8.606960 97.760507 7.556914 100.314298 9.150911 101.559319 C 18.337046 108.734322 53.618169 125.562035 88.344814 138.520136 C 134.418243 155.712241 175.849056 165.450645 205.274892 163.959736 L 203.315367 162.701649 C 205.099962 167.187144 205.706861 173.314198 205.334307 181.456731 C 205.048306 187.707557 204.475718 192.727476 202.695950 206.126019 C 202.382401 208.486495 202.189932 209.950024 201.992350 211.487853 C 199.064230 234.278098 198.952363 247.011103 203.117285 257.322855 C 208.629569 270.970485 221.576554 276.469850 243.514038 272.919559 L 243.675749 272.886488 C 259.050141 269.075236 263.364228 265.466537 266.265680 256.535597 C 268.174579 250.659830 268.785253 249.134653 270.949392 245.827814 C 271.996386 244.334555 277.149353 241.486806 287.091732 236.756722 C 287.551195 236.538133 288.032839 236.309553 288.569996 236.055090 C 298.042887 231.567564 299.222728 230.998263 302.141888 229.425511 C 304.126954 228.356019 305.589366 227.461845 306.579108 226.684498 C 308.341148 225.300587 309.212951 223.920245 308.015552 222.241072 C 306.708971 220.408786 303.121789 220.434692 294.737188 221.588511 C 286.948989 222.660258 275.030127 224.858658 258.368978 228.319146 L 259.272098 228.339938 C 245.618229 224.841557 240.933269 217.886838 243.050668 206.954242 C 244.839674 197.717208 250.991479 186.603521 262.570656 170.050465 C 264.042429 167.946487 265.588430 165.768487 267.561172 163.012777 C 281.179205 143.989839 283.467374 140.671458 287.467497 133.477127 C 293.164859 123.230268 294.905139 115.790632 291.799438 110.437776 L 292.035988 111.076757 C 287.780692 88.132648 271.485613 69.367865 246.619636 56.271540 C 224.570774 44.658923 196.848197 38.239663 170.798689 38.239663 L 172.725905 39.705024 C 170.370006 31.212699 171.893388 26.279091 179.300375 13.485204 L 177.751588 14.474827 C 197.193080 12.697630 208.728268 11.010498 213.172284 9.405613 C 214.507355 8.923474 215.381055 8.416390 215.899669 7.619701 C 216.836592 6.180409 216.178732 4.742751 214.884447 3.942061 C 213.701680 3.210360 211.536337 2.690610 208.313824 2.246487 C 196.345357 0.597005 173.290251 0.542652 167.260209 2.334791 C 166.712630 2.497532 166.260776 2.886658 166.018600 3.404033 Z M 169.641361 5.099794 L 168.399753 6.169036 C 173.753610 4.577861 196.318094 4.631058 207.767710 6.209031 C 210.424869 6.575238 212.243345 7.011729 212.780044 7.343750 C 212.700098 7.294293 212.577493 7.175225 212.453274 6.903764 C 212.227275 6.409876 212.285429 5.839870 212.547368 5.437482 C 212.642667 5.291085 212.676631 5.262563 212.640727 5.283401 C 212.467091 5.384178 212.188743 5.507959 211.813630 5.643425 C 207.817534 7.086551 196.455153 8.748408 177.387456 10.491436 C 176.741217 10.550510 176.163809 10.919455 175.838670 11.481059 C 171.802236 18.453080 170.215369 21.570203 169.011428 25.469275 C 167.461880 30.487623 167.362051 35.333279 168.871473 40.774301 C 169.111704 41.640263 169.900023 42.239663 170.798689 42.239663 C 196.217736 42.239663 223.300529 48.510778 244.755651 59.810686 C 268.622242 72.380658 284.095786 90.199394 288.103056 111.806173 C 288.144777 112.031129 288.224788 112.247258 288.339606 112.445154 C 290.497298 116.164061 289.030460 122.434741 283.971544 131.533340 C 280.081138 138.530340 277.800920 141.837191 264.308683 160.684404 C 262.328200 163.450929 260.774418 165.639891 259.292988 167.757674 C 247.394650 184.766988 241.055481 196.219162 239.123643 206.193665 C 236.593958 219.254987 242.621670 228.202991 258.279291 232.214772 C 258.574806 232.290488 258.883725 232.297600 259.182411 232.235564 C 275.762040 228.792007 287.603452 226.607893 295.282495 225.551167 C 298.864668 225.058218 301.524956 224.813202 303.302199 224.800367 C 304.084821 224.794715 304.665670 224.834961 305.026837 224.907380 C 305.130041 224.928074 305.184285 224.944810 305.182437 224.943931 C 305.055888 224.883769 304.904345 224.767582 304.758775 224.563441 C 304.358317 224.001859 304.419283 223.396839 304.627611 223.066989 C 304.595214 223.118284 304.415604 223.297492 304.108428 223.538749 C 303.340303 224.142036 302.044013 224.934637 300.244650 225.904078 C 297.417481 227.427269 296.231638 227.999466 286.857536 232.440192 C 286.318510 232.695541 285.834921 232.925044 285.373295 233.144662 C 274.295038 238.415140 269.341303 241.152785 267.637707 243.585319 C 265.179520 247.339661 264.479181 249.088779 262.461406 255.299678 C 261.207826 259.158314 260.250803 260.911811 258.097909 262.712690 C 255.299184 265.053801 250.546786 267.062112 242.713296 269.004004 L 242.875006 268.970934 C 222.629018 272.247479 211.560347 267.545947 206.826182 255.824830 C 203.013468 246.385094 203.121503 234.088237 205.959739 211.997588 C 206.156411 210.466840 206.348271 209.007939 206.661121 206.652724 C 208.457496 193.129164 209.036810 188.050273 209.330126 181.639556 C 209.726353 172.979652 209.068946 166.342687 207.032011 161.222948 C 206.715482 160.427367 205.927624 159.921533 205.072485 159.964860 C 176.326058 161.421346 135.345035 151.788666 89.743214 134.772540 C 55.377315 121.949050 20.387337 105.260202 11.613133 98.406944 L 10.148340 101.969433 C 11.802452 102.164034 12.202100 102.225445 17.083668 103.006057 C 18.654512 103.257251 19.777745 103.430192 20.900755 103.589916 C 30.407477 104.942044 36.040728 104.657193 39.378846 101.418577 C 39.728106 101.079729 39.941845 100.625168 39.980024 100.140047 C 40.736500 90.527896 34.278570 83.551930 21.505954 76.284070 C 19.493126 75.138733 11.258800 70.777276 9.538010 69.758622 C 6.444281 67.927232 5.014033 66.588208 5.000063 65.970172 C 4.997820 65.870953 5.078548 65.698802 5.389169 65.386378 L 4.562184 65.886851 C 15.658909 62.452483 26.975466 60.251122 40.092802 58.757511 C 47.634405 57.898783 53.980012 57.402617 67.248808 56.531877 C 87.174251 55.224308 95.651145 54.499778 107.178390 52.835964 C 122.599734 50.610085 136.984964 47.232572 151.642374 42.128419 C 152.863490 41.703189 153.366220 40.248425 152.668189 39.159986 C 151.141538 36.779482 153.682221 31.351659 161.767030 18.597805 C 166.227575 11.561257 168.031430 8.539193 169.641361 5.099794 Z" transform="scale(1.000000,1.000000) translate(87.912745,106.774120)" fill="#2e2f31" opacity="1.000000"></path>
        <path d="M 64.423276 47.813630 C 47.184305 39.328932 14.089471 25.178292 3.478142 22.571044 L 4.853129 25.267830 C 10.481884 11.450931 68.975992 1.374094 115.333136 6.224523 C 139.594630 8.763045 156.632701 15.033107 162.472476 24.254907 C 169.016140 34.588243 161.573341 49.291732 137.261033 68.309028 C 136.391011 68.989567 136.237404 70.246547 136.917943 71.116569 C 137.598483 71.986592 138.855462 72.140199 139.725485 71.459660 C 165.460153 51.329781 173.852911 34.749617 165.851868 22.114881 C 159.147749 11.528165 141.146247 4.903558 115.749391 2.246240 C 93.366154 -0.095756 66.667139 0.923378 44.183730 4.796616 C 20.528414 8.871740 4.526274 15.467859 1.148726 23.758723 C 0.688320 24.888883 1.338618 26.164326 2.523713 26.455509 C 12.758932 28.970345 45.678573 43.046076 62.656905 51.402493 C 63.647942 51.890263 64.846752 51.482284 65.334522 50.491247 C 65.822292 49.500210 65.414313 48.301400 64.423276 47.813630 Z" transform="scale(1.000000,1.000000) translate(180.758615,174.376249)" fill="#2e2f31" opacity="1.000000"></path>
    </g>
</svg>