<?xml version="1.0" encoding="UTF-8" standalone="yes"?>
<!DOCTYPE svg PUBLIC "-//W3C//DTD SVG 1.1//EN" "http://www.w3.org/Graphics/SVG/1.1/DTD/svg11.dtd">

<svg width="500" height="500" viewBox="0 0 500 500" xmlns="http://www.w3.org/2000/svg" xmlns:xlink="http://www.w3.org/1999/xlink" version="1.1" baseProfile="full">
    <g transform="scale(1.000000,-1.000000) translate(0,-500)">
        <path d="M 43.710883 3.122340 C 65.433849 16.931561 132.249230 -13.395612 122.264101 20.649428 C 141.068929 24.363135 147.492485 36.317581 138.835166 46.302710 C 158.042247 51.801108 158.274299 67.547664 149.829430 72.912015 C 161.229283 77.930541 163.691762 98.246623 148.395395 105.416795 C 155.234293 107.150514 167.568967 130.114055 140.109863 132.185438 C 169.033317 156.911230 215.104552 70.575070 221.531151 69.406598 C 232.841897 96.175240 132.251076 253.027760 34.469328 96.175240 C 23.957879 88.514974 8.644650 79.134671 2.751028 64.598343 C -6.500977 41.778730 22.930409 -10.087741 43.710883 3.122340 Z" transform="scale(1.000000,1.000000) translate(233.340123,216.694158)" fill="#404143" opacity="1.000000"></path>
        <path d="M 10.218527 24.261124 C 5.456622 32.991282 16.885194 41.721441 15.218527 49.737314 C 18.859803 43.262606 19.875670 42.200806 20.104241 53.332552 C 28.396879 36.544150 24.507019 59.844184 27.008408 63.600000 C 30.932264 32.188655 34.241741 62.733333 37.408408 64.600000 C 39.769419 54.850701 39.008408 51.233333 45.808408 66.300000 C 62.655781 46.103003 41.310489 42.890662 40.708408 39.451649 C 42.090460 35.573286 43.595188 31.561601 42.938578 27.616577 C 53.286483 31.295410 58.628739 7.107016 35.123819 10.052235 C 31.462625 3.674126 26.653220 -0.013087 18.773373 4.368238 C 19.105418 3.176140 18.581856 1.758187 17.708408 1.200000 C 17.195429 0.872175 16.246000 1.420052 15.908408 1.000000 C 14.356891 2.936240 11.341741 11.300000 13.408408 15.600000 C 11.717680 17.212676 4.975075 14.733333 1.008408 12.300000 C 0.655665 23.361124 11.526236 22.030323 10.218527 24.261124 Z" transform="scale(1.000000,1.000000) translate(52.529025,313.129070)" fill="#cc0916" opacity="1.000000"></path>
        <path d="M 48.703809 73.205111 C 110.059973 50.624428 62.765753 52.988619 23.961908 38.851248 C 6.620522 29.022952 6.605206 11.312546 1.000000 2.005395 C 2.031249 -1.906704 8.514745 6.603601 10.429413 10.334852 L 12.614128 14.592365 C 16.013700 16.146455 17.703915 -1.045673 19.863375 2.005395 C 20.546055 12.752117 23.205998 20.358792 30.387940 25.970762 C 36.345713 28.750944 38.131378 14.711276 38.573459 12.164241 C 44.176583 15.526464 33.118828 31.369763 47.534949 34.895200 C 49.691423 35.954263 53.012633 18.034790 61.163759 20.517321 C 32.352107 54.159187 113.751946 31.067727 97.297615 63.415150 Z" transform="scale(1.000000,1.000000) translate(91.087052,115.084249)" fill="#3a2119" opacity="1.000000"></path>
        <path d="M 2.995983 88.128574 C 47.764760 68.104346 31.301782 66.236046 41.538698 17.731933 C 41.872414 16.150734 39.655375 15.967624 38.868708 14.883944 C 35.459817 10.187998 20.094869 10.896393 14.815943 5.198963 C 16.610177 3.658337 43.322081 9.281984 28.864238 1.000000 C 68.389845 4.069967 50.182023 17.731933 53.791688 22.752425 C 54.658432 23.209434 59.635262 24.428197 63.788609 24.851905 C 70.751040 22.752425 74.319570 27.063540 51.347162 28.194295 L 48.124671 38.557850 C 53.791688 41.076652 60.398901 48.525810 62.264034 56.713777 C 62.264034 61.196890 53.791688 44.572401 46.481690 43.841691 C 43.265264 59.415986 41.538698 91.879591 48.124671 89.465646 C 51.040964 97.280461 -10.741920 94.273278 2.995983 88.128574 Z" transform="scale(1.000000,1.000000) translate(187.607814,89.923744)" fill="#3a2119" opacity="1.000000"></path>
        <path d="M 20.824896 119.054619 C -32.089936 66.869846 34.904482 12.860142 59.839607 1.000000 C 93.679232 12.624946 164.864476 64.480123 149.092762 91.768855 C 69.890399 116.041427 72.753121 150.222825 45.135750 153.502781 C 41.350056 154.584125 45.970346 145.672929 46.387645 141.758004 C 46.466766 141.015702 48.991778 141.517596 50.898245 140.630354 C 53.136280 139.588829 54.783613 137.157822 54.506725 136.345284 C 52.988737 131.890679 54.957988 124.488887 38.268768 125.743951 C 33.183147 124.373041 27.797198 117.504137 20.824896 119.054619 Z" transform="scale(1.000000,1.000000) translate(47.364689,198.130016)" fill="#a12212" opacity="1.000000"></path>
        <path d="M 81.455029 93.533435 C 89.219698 71.251660 38.975754 42.714302 1.000000 26.435957 C 10.999395 11.600900 54.044233 -2.441039 76.285621 1.752142 C 118.593217 14.733132 107.469528 61.392455 128.450909 84.900904 Z" transform="scale(1.000000,1.000000) translate(105.889198,197.377879)" fill="#1e3930" opacity="1.000000"></path>
        <path d="M 2.284740 23.906070 C -3.984032 27.087533 14.382963 36.511360 20.886689 33.842886 C 33.518018 28.660260 66.966144 18.232441 90.481950 28.660260 C 102.558046 34.015268 76.250295 9.413147 62.100904 1.000000 C 45.576828 4.851061 15.298725 17.301345 2.284740 23.906070 Z" transform="scale(1.000000,1.000000) translate(105.103982,174.665872)" opacity="1.000000"></path>
        <path d="M 15.340173 118.710303 C 15.340173 105.954818 7.118362 105.203038 7.963407 94.629991 C 48.656390 58.233448 38.674948 26.483854 1.000000 4.044441 C 26.227458 -5.108642 88.423084 7.766083 116.354729 24.206664 C 112.988999 38.523678 89.431128 86.024448 67.856062 106.735523 C 53.004051 110.681732 19.856484 119.848161 15.340173 118.710303 Z" transform="scale(1.000000,1.000000) translate(168.235072,174.665872)" fill="#a12212" opacity="1.000000"></path>
        <path d="M 5.357280 94.598587 C 3.305840 72.503024 10.138053 48.070242 24.634189 30.888260 C 42.050482 10.245073 68.932850 0.986476 104.487245 6.619777 L 104.241381 6.564755 C 114.068861 9.424680 118.020231 17.431562 116.199733 28.786494 C 114.466178 39.599134 107.548928 51.979907 98.148649 61.043385 L 100.925021 63.922927 C 110.923622 54.282563 118.271720 41.130642 120.149294 29.419714 C 122.264539 16.226371 117.318786 6.204515 105.359067 2.724081 C 105.278350 2.700591 105.196233 2.682214 105.113203 2.669059 C 68.211001 -3.177792 39.921492 6.565441 21.576921 28.308897 C 6.358258 46.347276 -0.772280 71.846902 1.374410 94.968373 L 5.357280 94.598587 Z" transform="scale(1.000000,1.000000) translate(83.807589,196.127844)" fill="#2e2f31" opacity="1.000000"></path>
        <path d="M 2.263470 92.507972 C 23.418625 86.982882 33.028805 73.834322 36.275175 53.039298 C 36.984926 48.492899 37.254543 45.428719 37.835850 36.899788 C 38.494797 27.231697 39.073259 23.135752 40.567525 19.803304 C 40.933780 18.986498 40.835364 18.036203 40.309495 17.311788 C 38.501269 14.820851 35.337825 13.617606 27.764273 11.680666 C 27.388877 11.584658 25.318569 11.059734 24.726663 10.907722 C 17.784408 9.124823 14.235590 7.763976 12.602098 6.000983 L 10.768262 7.700115 L 12.396893 9.596839 C 12.129487 9.826448 11.921685 9.918124 11.746223 9.962982 C 11.754762 9.960799 11.824306 9.950259 11.938407 9.940501 C 12.271816 9.911990 12.775065 9.907994 13.433669 9.930565 C 14.538994 9.968446 15.334633 10.026384 18.442091 10.277082 C 18.943547 10.317538 19.319806 10.347465 19.689322 10.376082 C 24.814242 10.772971 27.402877 10.803362 29.162956 10.190492 C 31.447330 9.395059 32.374032 7.072150 30.848965 4.970241 C 30.054169 3.874820 28.524615 2.744137 26.059207 1.331861 L 24.622965 5.993644 C 42.437010 7.377267 48.344651 10.572885 48.376223 15.015504 C 48.383383 16.022882 48.177924 17.042312 47.652264 18.883214 C 47.033995 21.048442 46.925050 21.471245 46.803979 22.440417 C 46.600794 24.066918 46.830654 25.484111 47.714196 26.712983 C 47.940055 27.027118 48.235744 27.284545 48.577986 27.465000 C 49.990412 28.209731 55.522670 29.435702 59.487205 29.840148 C 59.815353 29.873624 60.146882 29.841831 60.462687 29.746602 C 61.758517 29.355852 62.966323 29.220067 63.636091 29.308880 C 63.697070 29.316966 63.719055 29.322068 63.687531 29.310213 C 63.486981 29.234795 63.259935 29.093998 63.020634 28.813965 C 62.122532 27.762989 62.456408 26.486106 63.112877 25.919857 C 62.276454 26.641329 56.507059 27.739201 47.176574 28.198469 C 46.128298 28.250067 45.223858 28.950930 44.912226 29.953142 L 41.689735 40.316697 C 41.313229 41.527544 41.902868 42.828492 43.061601 43.343511 C 48.448833 45.737959 54.198957 52.834667 55.778793 59.770179 L 55.716352 59.214928 C 55.716352 59.062869 55.760883 58.835281 56.040541 58.434587 C 56.657941 57.549975 57.733181 57.302937 58.560397 57.595288 C 58.781899 57.673571 58.827197 57.704719 58.816330 57.694977 C 58.678896 57.571770 58.484488 57.370979 58.239231 57.095540 C 57.753981 56.550572 54.657259 52.709176 53.625337 51.514990 C 50.980149 48.453861 48.666590 46.315013 46.302298 45.037037 C 45.093686 44.383744 43.890820 43.976007 42.682670 43.855240 C 41.408812 43.727904 40.244602 44.583460 39.985676 45.837209 C 38.290936 54.043329 37.089929 66.248800 37.079601 75.897734 C 37.073898 81.225306 37.421143 85.586233 38.159791 88.635200 C 39.220318 93.012807 41.400931 95.610287 44.937340 94.314093 L 43.216640 89.619502 C 43.443707 89.536275 43.838713 89.659842 43.898298 89.730818 C 43.631570 89.413099 43.303078 88.629636 43.019222 87.457945 C 42.393494 84.875086 42.074286 80.866253 42.079598 75.903086 C 42.089572 66.585230 43.257460 54.716336 44.882342 46.848476 L 42.185347 48.830445 C 42.679023 48.879793 43.262263 49.077495 43.924742 49.435586 C 45.624053 50.354118 47.563057 52.146696 49.842130 54.784141 C 50.789740 55.880756 53.918079 59.761373 54.505027 60.420553 C 55.423581 61.452149 56.045253 62.009468 56.894304 62.309536 C 58.044301 62.715964 59.360901 62.413473 60.140677 61.296210 C 60.587789 60.655587 60.716352 59.998524 60.716352 59.214928 C 60.716352 59.028093 60.695408 58.841847 60.653912 58.659678 C 58.726993 50.200464 51.932358 41.814637 45.092380 38.774491 L 46.464245 41.801305 L 49.686735 31.437750 L 47.422387 33.192423 C 57.963978 32.673542 64.346282 31.459037 66.378661 29.705969 C 67.573512 28.675328 68.019981 26.967845 66.821798 25.565711 C 66.173954 24.807592 65.327999 24.489465 64.293353 24.352268 C 62.859339 24.162113 60.952706 24.376463 59.019168 24.959510 L 59.994650 24.865964 C 56.621467 24.521846 51.610188 23.411326 50.910027 23.042152 L 49.744007 25.253576 L 51.773818 23.794169 C 51.736198 23.741846 51.704601 23.547035 51.765416 23.060209 C 51.839906 22.463916 51.934638 22.096271 52.460099 20.256066 C 53.110358 17.978811 53.387632 16.603049 53.376097 14.979971 C 53.319433 7.006797 45.118093 2.570449 25.010150 1.008658 C 22.351577 0.802166 21.260073 4.344992 23.573908 5.670442 C 25.454130 6.747503 26.547395 7.555670 26.801996 7.906571 C 26.753509 7.839745 26.693115 7.720838 26.644306 7.529040 C 26.554222 7.175053 26.572163 6.764684 26.729206 6.371032 C 26.869085 6.020406 27.084274 5.760583 27.317536 5.588557 C 27.420904 5.512325 27.486715 5.479721 27.518753 5.468565 C 26.728625 5.743692 24.254402 5.714645 20.075382 5.391008 C 19.712178 5.362881 19.340742 5.333337 18.844166 5.293275 C 15.635456 5.034408 14.822959 4.975242 13.604925 4.933498 C 11.214405 4.851572 10.141254 4.943343 9.139632 5.803390 C 8.063996 6.726990 7.970846 8.359275 8.934427 9.399246 C 11.499086 12.167227 15.491826 13.698303 23.482932 15.750565 C 24.084071 15.904949 26.157681 16.430710 26.525396 16.524754 C 32.611232 18.081209 35.482234 19.173221 36.263217 20.249072 L 36.005188 17.757556 C 34.169890 21.850557 33.551543 26.228927 32.847423 36.559791 C 32.276495 44.936444 32.014192 47.917497 31.335011 52.268075 C 28.370157 71.259814 20.003410 82.707122 1.000000 87.670241 L 2.263470 92.507972 Z" transform="scale(1.000000,1.000000) translate(191.655495,87.422592)" fill="#2e2f31" opacity="1.000000"></path>
        <path d="M 142.816924 5.988570 C 160.596709 7.707862 177.802601 14.172172 191.583112 24.029065 L 190.538708 21.919373 C 190.231830 31.967935 182.928458 47.163129 169.705436 67.126042 C 166.617871 71.787366 163.232011 76.676299 159.436159 81.982660 C 156.893420 85.537248 154.230790 89.191401 151.102350 93.433263 C 149.237039 95.962442 142.758847 104.697280 143.286811 103.984256 L 144.899745 103.003558 C 99.600559 110.275053 71.041635 121.676778 49.302416 138.296905 C 45.083744 141.522176 41.184671 144.869373 36.771301 148.961978 C 34.871723 150.723494 27.912757 157.360968 26.254344 158.896321 C 17.609679 166.899521 11.100490 171.486075 2.570157 174.906868 C 1.288648 175.420773 0.666381 176.876244 1.180286 178.157754 C 1.694191 179.439264 3.149662 180.061530 4.431171 179.547625 C 13.623283 175.861449 20.597295 170.947367 29.651128 162.565361 C 31.345431 160.996782 38.306374 154.357422 40.171092 152.628233 C 44.476908 148.635364 48.260426 145.387367 52.339208 142.269046 C 73.382606 126.180888 101.170224 115.087096 145.692207 107.940359 C 146.337351 107.836799 146.916313 107.484778 147.305141 106.959660 C 146.773539 107.677596 153.256342 98.936542 155.126334 96.401015 C 158.268038 92.141168 160.944283 88.468331 163.502798 84.891689 C 167.331310 79.539671 170.750454 74.602678 173.873917 69.887158 C 187.607386 49.153621 195.191192 33.374963 195.536378 22.071999 C 195.561829 21.238607 195.170131 20.447378 194.491973 19.962307 C 179.997373 9.594641 161.954364 2.815824 143.298176 1.011784 C 141.923874 0.878890 140.702051 1.885250 140.569157 3.259551 C 140.436263 4.633853 141.442623 5.855676 142.816924 5.988570 Z" transform="scale(1.000000,1.000000) translate(91.282556,176.016757)" fill="#2e2f31" opacity="1.000000"></path>
        <path d="M 1.000000 43.061646 C 6.407658 55.752160 25.867587 65.840168 38.015503 73.941837 C 41.509767 76.272226 31.002817 68.091502 32.227712 62.749571 C 34.769687 60.238680 42.138137 66.561273 47.093349 64.178959 C 49.294854 60.238680 40.708748 60.238680 39.660530 55.888508 C 44.365204 53.643237 50.066477 62.749571 54.812046 62.749571 C 47.363052 57.317896 52.283970 49.563423 41.661674 43.024014 C 39.613650 40.528277 40.746392 37.714519 39.660530 35.781825 C 44.356281 34.563675 47.363052 41.181706 52.810902 43.024014 C 45.435189 32.418969 30.368124 17.191622 15.216609 20.864763 C 9.080193 19.925724 18.255182 22.652886 16.323468 19.136586 L 20.935797 11.935198 C 25.936228 16.434459 38.475517 18.850708 47.363052 13.864494 C 50.698131 13.897262 31.929592 14.150372 43.948695 4.144654 C 41.661674 1.000000 32.132419 6.622260 27.939547 1.000000 Z" transform="scale(1.000000,1.000000) translate(237.226753,240.465839)" fill="#b1afb3" opacity="1.000000"></path>
        <path d="M 22.713404 132.497885 C 0.376558 111.114479 -0.269856 85.381210 17.612665 59.539413 C 33.675988 36.326515 63.583043 15.434719 95.027971 4.896891 C 96.075295 4.545911 96.639793 3.412363 96.288814 2.365039 C 95.937835 1.317715 94.804286 0.753216 93.756962 1.104195 C 61.533969 11.902770 30.908447 33.296455 14.323423 57.263257 C -4.612037 84.626642 -3.910667 112.547693 19.947316 135.387306 C 20.745208 136.151140 22.011237 136.123531 22.775071 135.325639 C 23.538905 134.527748 23.511296 133.261719 22.713404 132.497885 Z" transform="scale(1.000000,1.000000) translate(46.952960,181.086480)" fill="#2e2f31" opacity="1.000000"></path>
        <path d="M 42.781106 5.817101 C 46.980891 8.952435 52.860687 10.333143 60.605471 10.430460 C 66.461327 10.504043 72.533309 9.934928 82.697789 8.573544 C 83.441373 8.473952 84.157748 8.377141 85.281849 8.224621 C 102.156107 5.935091 108.685809 5.446518 114.807258 6.640601 C 122.055742 8.054529 124.783700 11.971499 123.258084 20.608559 C 123.047798 21.799063 123.719515 22.969473 124.853519 23.388467 C 137.414138 28.029392 143.349683 38.623490 137.512066 45.356446 C 136.314700 46.737456 136.955700 48.894573 138.712921 49.397612 C 146.759133 51.700996 151.527253 55.995156 152.851012 60.989578 C 153.962171 65.181881 152.396990 69.370156 149.054750 71.493214 C 147.367221 72.565167 147.558186 75.086048 149.387939 75.891556 C 153.975630 77.911183 157.074957 83.201358 157.189760 89.097650 C 157.312456 95.399301 154.081652 100.946991 147.900102 103.844593 C 145.773761 104.841315 146.070499 107.954509 148.346849 108.531583 C 150.930418 109.186539 154.795677 114.745129 155.188416 119.568813 C 155.672229 125.511075 151.415647 129.559606 140.487601 130.383965 C 138.263292 130.551756 137.355645 133.327706 139.051167 134.777156 C 148.164923 142.568233 159.219972 141.107231 171.458333 132.331669 C 179.743132 126.391025 188.387317 117.328702 197.929614 105.256456 C 200.897956 101.501119 203.867453 97.567034 207.195058 93.020520 C 209.112044 90.401339 215.030025 82.196710 214.916051 82.353826 C 217.550009 78.722866 219.247222 76.467125 220.602695 74.830464 C 221.343352 73.936160 221.948646 73.271432 222.413450 72.838714 C 222.609591 72.656113 222.765337 72.529440 222.866569 72.462495 C 222.841936 72.478786 222.752674 72.519805 222.544155 72.557717 L 219.794078 71.071088 C 222.227447 76.830036 218.184948 91.060977 209.232747 106.369004 C 199.042996 123.793210 184.397364 139.849230 168.130559 150.233038 C 148.889165 162.515655 128.412057 166.431864 107.827291 160.226961 C 83.642431 152.936876 59.830476 131.915421 37.156640 95.544130 C 36.987016 95.272035 36.766634 95.035110 36.507506 94.846270 C 36.615568 94.925021 27.515280 88.454125 24.804799 86.395809 C 15.002298 78.951870 8.833914 72.243773 5.633639 64.350454 L 1.000000 66.229121 C 4.611285 75.136178 11.326001 82.438408 21.780919 90.377786 C 24.565711 92.492535 33.726700 99.006592 33.562732 98.887100 L 32.913598 98.189239 C 56.178833 135.509197 80.898488 157.331980 106.384264 165.014202 C 128.463258 171.669512 150.419997 167.470326 170.820873 154.447562 C 187.797928 143.610371 202.978929 126.967424 213.548876 108.893095 C 223.245743 92.311708 227.648331 76.813137 224.399806 69.124997 C 223.944200 68.046734 222.801414 67.428970 221.649728 67.638368 C 219.366517 68.053497 217.321325 70.522958 210.868800 79.417883 C 210.973784 79.273160 205.065052 87.464965 203.160282 90.067457 C 199.866394 94.567903 196.932504 98.454814 194.007031 102.155918 C 184.729924 113.892663 176.369413 122.657589 168.544700 128.268328 C 157.969835 135.851074 149.336753 136.991996 142.300142 130.976608 L 140.863708 135.369800 C 154.354372 134.352129 160.901591 128.124921 160.171926 119.163061 C 159.618684 112.368067 154.437830 104.917533 149.575524 103.684897 L 150.022271 108.371887 C 158.045893 104.610815 162.348893 97.222030 162.188813 89.000316 C 162.038080 81.258691 157.884407 74.168875 151.402503 71.315364 L 151.735692 75.713706 C 156.944389 72.405037 159.345984 65.978599 157.684129 59.708572 C 155.875952 52.886487 149.728648 47.350235 140.088993 44.590697 L 141.289848 48.631864 C 149.951234 38.642047 141.959852 24.378574 126.586427 18.698368 L 128.181862 21.478276 C 130.184374 10.141343 125.674820 3.666247 115.764542 1.733095 C 108.867609 0.387743 102.145563 0.890707 84.609599 3.270019 C 83.488123 3.422183 82.774103 3.518675 82.034038 3.617796 C 61.551890 6.361081 51.702008 6.237312 45.772242 1.810469 L 42.781106 5.817101 Z" transform="scale(1.000000,1.000000) translate(232.774332,216.111615)" fill="#2e2f31" opacity="1.000000"></path>
        <path d="M 86.521651 44.199537 C 53.877991 33.010473 27.788723 19.947885 4.236327 1.427919 C 3.368043 0.745161 2.110676 0.895559 1.427919 1.763843 C 0.745161 2.632126 0.895559 3.889493 1.763843 4.572251 C 25.711686 23.403169 52.188693 36.659893 85.224670 47.983429 C 86.269563 48.341580 87.406955 47.784866 87.765107 46.739973 C 88.123258 45.695080 87.566544 44.557688 86.521651 44.199537 Z" transform="scale(1.000000,1.000000) translate(292.389433,305.399443)" fill="#2e2f31" opacity="1.000000"></path>
        <path d="M 88.020688 32.215203 C 53.506601 25.701277 26.817177 16.426121 4.107158 1.334479 C 3.187197 0.723131 1.945827 0.973312 1.334479 1.893272 C 0.723131 2.813233 0.973312 4.054604 1.893272 4.665952 C 25.120061 20.101006 52.284521 29.541247 87.278854 36.145811 C 88.364262 36.350663 89.410224 35.636831 89.615075 34.551424 C 89.819927 33.466016 89.106095 32.420054 88.020688 32.215203 Z" transform="scale(1.000000,1.000000) translate(294.943075,288.039326)" fill="#2e2f31" opacity="1.000000"></path>
        <path d="M 17.019650 1.000000 C 15.140688 2.666263 13.964482 4.674662 13.381024 6.960905 C 12.873808 8.948396 12.839536 10.639489 13.038007 13.363843 C 13.124946 14.557219 13.137791 14.773729 13.133561 15.119022 C 13.131689 15.271822 13.123313 15.372229 13.115352 15.413316 C 13.130491 15.335186 13.175657 15.212562 13.283167 15.049991 L 15.368435 16.428997 L 15.758970 13.959689 C 12.382160 13.425627 9.494508 12.667209 4.304415 10.903414 C 2.682945 10.352376 1.000000 11.557918 1.000000 13.270462 C 1.000000 18.809424 3.978471 23.319641 11.518966 27.035501 L 10.129355 24.955915 C 10.500082 30.632833 11.740231 36.633345 13.508597 42.390331 C 14.155337 44.495816 14.838218 46.443185 15.458687 48.006980 C 15.718666 48.662216 15.955964 49.219029 16.146693 49.623567 C 16.254141 49.851468 16.349589 50.037907 16.444363 50.197616 C 16.545017 50.367233 16.643430 50.511379 16.793846 50.678086 C 17.001968 50.917062 17.001968 50.917062 17.723604 51.332873 C 19.404985 51.622914 19.404985 51.622914 20.834717 50.279843 C 21.525168 49.102864 22.006499 48.383473 22.295080 48.074300 C 22.319560 48.048073 22.323604 48.044364 22.296551 48.064328 C 22.183429 48.147804 22.028747 48.229768 21.813104 48.292021 C 21.059562 48.509557 20.239392 48.251303 19.761528 47.712674 C 19.652075 47.589303 19.591945 47.490999 19.559379 47.418480 C 19.564587 47.430075 19.581837 47.480429 19.604476 47.564890 C 19.677851 47.838645 19.750378 48.260705 19.814557 48.824231 C 19.953578 50.044918 20.044642 51.835578 20.096360 54.354337 C 20.150082 56.970662 23.678365 57.756443 24.837299 55.410187 C 26.057164 52.940577 27.003820 51.375206 27.619195 50.702357 C 27.698719 50.615406 27.748316 50.570317 27.754775 50.565788 C 27.653347 50.636906 27.494948 50.710648 27.264203 50.756181 C 26.524130 50.902220 25.821172 50.577254 25.472962 50.109090 C 25.420728 50.038863 25.403883 50.006868 25.404596 50.008687 C 25.431563 50.077521 25.464444 50.186893 25.498490 50.331548 C 25.581020 50.682192 25.653283 51.165527 25.712597 51.773953 C 25.814949 52.823834 25.861101 53.859783 25.932435 56.254950 C 25.939852 56.504118 25.939852 56.504118 25.947377 56.754439 C 26.114257 62.275746 26.330691 64.321814 27.419238 65.956258 C 28.703632 67.884765 31.693507 67.179548 31.980720 64.880350 C 32.613347 59.816030 33.243651 56.273111 33.861722 54.137132 C 34.110836 53.276222 34.340693 52.709695 34.500865 52.463136 C 34.487654 52.483472 34.425870 52.551590 34.278993 52.651982 C 33.962189 52.868522 33.534751 52.989409 33.080333 52.944364 C 32.479778 52.884833 32.248888 52.698975 32.180665 52.601385 C 32.342180 52.832424 32.558692 53.259411 32.802801 53.851774 C 33.254083 54.946869 33.672868 56.228949 34.442983 58.778906 C 36.532107 65.696279 36.908607 66.709139 38.630469 67.724131 C 40.076359 68.576446 41.934721 67.790135 42.329765 66.158884 C 42.615447 64.979223 43.622798 60.359605 43.841313 59.591323 C 43.941322 59.239696 44.027631 58.992920 44.091232 58.857561 C 44.059190 58.925755 43.963162 59.059003 43.686114 59.250461 C 43.110635 59.648152 42.353591 59.703516 41.761778 59.436525 C 41.539943 59.336446 41.488277 59.290913 41.511075 59.318852 C 42.231466 60.201682 43.528003 62.774459 46.021330 68.298889 C 46.780446 69.980854 49.037740 70.288906 50.219780 68.871851 C 60.328791 56.752948 59.055945 48.592549 50.387438 42.656754 C 49.401860 41.981876 46.280829 40.084562 46.581884 40.275027 C 46.092357 39.965323 45.761892 39.732018 45.557025 39.554063 C 45.490411 39.496199 45.453923 39.458986 45.447884 39.451298 C 45.498237 39.515391 45.556872 39.618551 45.607624 39.771759 C 45.630453 39.840672 45.649054 39.913926 45.662545 39.990984 L 40.737455 40.853238 C 40.766724 41.020421 40.808306 41.184171 40.861270 41.344056 C 41.289387 42.636429 42.166051 43.397935 43.908661 44.500412 C 43.709532 44.374431 46.709413 46.198097 47.562491 46.782245 C 50.317981 48.669078 51.826722 50.509346 52.182018 52.787196 C 52.671249 55.923727 50.998607 60.132451 46.380220 65.669074 L 50.578670 66.242036 C 47.845137 60.185384 46.510515 57.537032 45.384997 56.157724 C 44.178962 54.679744 42.561357 53.949976 40.843527 55.137104 C 39.888985 55.796753 39.466554 56.695792 39.032051 58.223476 C 38.762770 59.170252 37.723522 63.936145 37.470235 64.982040 L 41.169531 63.416793 C 41.340386 63.517507 41.431501 63.602677 41.479555 63.663049 C 41.454159 63.631143 41.403743 63.552788 41.338977 63.434371 C 41.165403 63.117009 40.959122 62.641295 40.727776 62.018930 C 40.336926 60.967462 40.084201 60.163511 39.229457 57.333338 C 38.410084 54.620284 37.961574 53.247200 37.425655 51.946722 C 36.407309 49.475576 35.486477 48.158372 33.573550 47.968750 C 29.812047 47.595884 28.560871 51.919796 27.019280 64.260575 L 31.580762 63.184666 C 31.290019 62.748119 31.067132 60.641050 30.945095 56.603385 C 30.937630 56.355060 30.937630 56.355060 30.930219 56.106104 C 30.754481 50.205368 30.600399 48.624847 29.484911 47.125089 C 27.935340 45.041712 25.598830 45.502779 23.929592 47.327919 C 22.914956 48.437319 21.768130 50.333687 20.354368 53.195841 L 25.095306 54.251692 C 24.969624 48.130771 24.697613 45.742359 23.501735 44.394414 C 21.945882 42.640720 20.003817 43.201365 18.639920 44.662585 C 18.023455 45.323037 17.392372 46.266246 16.522028 47.749879 C 17.943456 46.415899 17.943456 46.415899 19.611772 46.703097 C 20.318001 47.110140 20.318001 47.110140 20.506103 47.328586 C 20.628278 47.463993 20.689376 47.553483 20.744264 47.645979 C 20.746027 47.648950 20.714920 47.588188 20.669243 47.491306 C 20.528396 47.192568 20.330470 46.728140 20.106226 46.162970 C 19.535127 44.723604 18.896215 42.901622 18.288195 40.922188 C 16.625517 35.509273 15.461327 29.876293 15.118728 24.630087 C 15.060494 23.738353 14.530707 22.945514 13.729117 22.550501 C 7.851718 19.654193 6.000000 16.850187 6.000000 13.270462 L 2.695585 15.637510 C 8.136890 17.486677 11.292177 18.315386 14.977899 18.898305 C 15.945507 19.051338 16.913334 18.625123 17.453703 17.808003 C 18.246071 16.609821 18.252068 16.120301 18.024792 13.000552 C 17.863154 10.781800 17.888772 9.517706 18.225746 8.197297 C 18.569165 6.851633 19.230657 5.722119 20.337101 4.740925 L 17.019650 1.000000 Z" transform="scale(1.000000,1.000000) translate(50.037433,312.158608)" fill="#2e2f31" opacity="1.000000"></path>
        <path d="M 50.649733 74.246788 C 67.904275 69.869299 77.394549 66.588570 81.181872 63.615475 C 83.806852 61.554833 84.504870 58.835172 82.537811 56.485507 C 81.289326 54.994183 79.055710 53.826207 75.586870 52.609279 C 71.290137 51.101913 44.345286 44.432473 36.931206 42.184800 C 33.518269 41.150125 30.327148 40.095991 27.317711 38.999565 L 27.694591 39.173551 C 20.765250 35.246321 16.417202 29.888333 13.152528 22.387315 C 12.448787 20.770380 11.797611 19.069959 11.085221 17.032852 C 10.674149 15.857375 9.349713 11.907798 9.302810 11.770265 C 7.956962 7.823857 6.955062 5.393808 5.641614 3.212896 L 5.917428 5.139917 C 5.774593 5.681767 4.764884 6.166952 4.228927 5.957432 C 4.539289 6.078761 5.235257 6.638680 6.066367 7.518199 C 7.758963 9.309380 9.767086 12.145381 10.705169 13.973490 L 12.889884 18.231003 C 13.146381 18.730858 13.563772 19.129745 14.074736 19.363329 C 16.495597 20.470008 18.262805 19.071979 19.518462 16.654201 C 20.174478 15.391036 20.718696 13.859313 21.467029 11.388862 C 22.874281 6.743139 22.845249 6.833450 23.217557 6.135204 C 23.256090 6.062937 23.276982 6.030540 23.263069 6.047196 C 23.137165 6.197918 22.944096 6.355584 22.630134 6.484696 C 21.610752 6.903902 20.700300 6.480344 20.322781 5.946953 L 19.868412 4.661165 C 20.638812 16.788782 23.912058 24.627000 31.348654 30.437957 C 31.497663 30.554393 31.659403 30.653546 31.830769 30.733514 C 34.623022 32.036513 37.247812 31.162774 39.127573 28.786313 C 40.381426 27.201147 41.324605 24.983266 42.090956 22.218259 C 42.473103 20.839467 42.791196 19.393397 43.073940 17.844979 C 43.234249 16.967066 43.568730 14.904159 43.536640 15.089044 L 39.787129 16.805192 C 40.360972 17.149533 40.475630 18.418558 40.023890 22.709484 C 39.869788 24.173249 39.795617 24.996533 39.747590 25.932947 C 39.372573 33.245003 41.918621 37.981311 49.441086 39.820917 L 50.034957 37.392478 L 48.932913 39.636470 C 50.484204 40.398322 51.813881 39.774039 52.779812 38.632753 C 53.218458 38.114476 53.611625 37.456406 54.079404 36.530515 C 54.357822 35.979435 56.041193 32.341108 56.600959 31.245092 C 58.951492 26.642771 60.946236 24.800317 62.935392 25.406140 L 61.764950 21.388409 C 54.179863 30.245119 52.835965 36.748565 58.044198 40.955110 C 61.489222 43.737561 65.947284 44.704616 77.398210 46.072717 C 77.934007 46.136687 78.223827 46.171293 78.469758 46.200728 C 78.876149 46.249368 79.215358 46.290181 79.540079 46.329569 C 88.818239 47.455007 93.549914 48.496604 96.733507 50.506563 C 100.245570 52.723902 100.839805 55.954719 97.792480 61.945429 L 102.249044 64.212373 C 106.391515 56.068725 105.272462 49.984501 99.402778 46.278680 C 95.346486 43.717743 90.211451 42.587354 80.142164 41.365952 C 79.814477 41.326204 79.472767 41.285090 79.063952 41.236160 C 78.817211 41.206628 78.526537 41.171920 77.991367 41.108025 C 67.747117 39.884092 63.547979 38.973203 61.185836 37.065366 C 58.835669 35.167201 59.563348 31.645784 65.562584 24.640789 C 66.735428 23.271321 66.116973 21.148377 64.392142 20.623057 C 61.500334 19.742320 58.820137 20.566893 56.541729 22.671354 C 54.920057 24.169219 53.553676 26.218775 52.148094 28.970890 C 51.530989 30.179175 49.841478 33.830772 49.616628 34.275826 C 49.313112 34.876584 49.084263 35.259625 48.963258 35.402597 C 49.021852 35.333366 49.136960 35.234953 49.375687 35.122871 C 49.897429 34.877914 50.556860 34.863574 51.137001 35.148486 C 50.974775 35.068815 50.804388 35.006971 50.628828 34.964038 C 45.786556 33.779869 44.476685 31.343171 44.741027 26.189049 C 44.783160 25.367542 44.851223 24.612057 44.996410 23.232981 C 45.317879 20.179453 45.387761 19.132825 45.258553 17.702753 C 45.050443 15.399410 44.178754 13.609328 42.359805 12.517845 C 40.854108 11.614333 38.910584 12.503882 38.610294 14.233993 C 38.634309 14.095629 38.304703 16.128469 38.155271 16.946821 C 37.897387 18.359093 37.610120 19.665024 37.272601 20.882801 C 36.106453 25.090278 34.881145 26.639357 33.945126 26.202565 L 34.427241 26.498122 C 28.266794 21.684348 25.545997 15.169042 24.858354 4.344181 C 24.828979 3.881760 24.671669 3.436600 24.403984 3.058393 C 22.567700 0.463935 20.015514 1.513484 18.805555 3.782707 C 18.430411 4.486272 18.089109 5.381961 17.685839 6.636421 C 17.537372 7.098260 17.385950 7.590949 17.184274 8.262821 C 17.190074 8.243500 16.795326 9.564400 16.681752 9.939337 C 16.021734 12.118237 15.548791 13.449354 15.081186 14.349731 C 14.887916 14.721873 14.737150 14.929922 14.718652 14.944555 C 15.042099 14.688678 15.645089 14.583524 16.153535 14.815956 L 17.338388 15.948282 L 15.153672 11.690769 C 13.999490 9.441529 11.716982 6.218027 9.700497 4.084090 C 8.401789 2.709739 7.218244 1.757554 6.049396 1.300621 C 3.849221 0.440515 1.715088 1.466005 1.082588 3.865429 C 0.910395 4.518652 1.009885 5.213755 1.358402 5.792449 C 2.438626 7.586105 3.332439 9.753997 4.570436 13.384153 C 4.608175 13.494813 5.941763 17.471684 6.365497 18.683370 C 7.115519 20.828087 7.808866 22.638626 8.567929 24.382674 C 12.235802 32.810093 17.268441 39.011687 25.229241 43.523500 C 25.349827 43.591842 25.475889 43.650038 25.606121 43.697486 C 28.706565 44.827068 31.983867 45.909670 35.480589 46.969746 C 43.108254 49.282170 69.907050 55.915458 73.931684 57.327368 C 76.587917 58.259219 78.213489 59.109244 78.703941 59.695092 C 78.679518 59.665919 78.609344 59.420366 78.674560 59.166269 C 78.679954 59.145251 78.524040 59.345325 78.094471 59.682542 C 75.084696 62.045254 65.910456 65.216731 49.420182 69.400325 L 50.649733 74.246788 Z" transform="scale(1.000000,1.000000) translate(88.587044,112.586972)" fill="#2e2f31" opacity="1.000000"></path>
        <path d="M 86.551006 14.083630 C 61.400415 15.493251 35.081513 11.029130 3.602529 1.093286 C 2.549184 0.760814 1.425757 1.345197 1.093286 2.398543 C 0.760814 3.451888 1.345197 4.575315 2.398543 4.907786 C 34.300157 14.977027 61.071826 19.517945 86.774844 18.077363 C 87.877682 18.015552 88.721602 17.071416 88.659791 15.968578 C 88.597980 14.865739 87.653845 14.021819 86.551006 14.083630 Z" transform="scale(1.000000,1.000000) translate(298.705830,273.869521)" fill="#2e2f31" opacity="1.000000"></path>
        <path d="M 74.807310 8.404310 C 38.281857 8.579872 21.048398 6.602508 3.602799 1.093371 C 2.549501 0.760750 1.425991 1.344975 1.093371 2.398273 C 0.760750 3.451572 1.344975 4.575081 2.398273 4.907701 C 20.295207 10.559366 37.920223 12.581656 74.826536 12.404264 C 75.931093 12.398955 76.822209 11.499231 76.816900 10.394674 C 76.811591 9.290118 75.911867 8.399001 74.807310 8.404310 Z" transform="scale(1.000000,1.000000) translate(299.446201,252.916717)" fill="#2e2f31" opacity="1.000000"></path>
        <path d="M 57.689966 1.226490 C 45.739110 7.449358 20.487973 7.983432 3.393179 4.559392 C 2.310121 4.342459 1.256271 5.044591 1.039337 6.127649 C 0.822404 7.210706 1.524536 8.264557 2.607594 8.481491 C 20.516621 12.068619 46.587845 11.517199 59.537344 4.774333 C 60.517054 4.264194 60.897716 3.056432 60.387577 2.076722 C 59.877437 1.097012 58.669675 0.716350 57.689966 1.226490 Z" transform="scale(1.000000,1.000000) translate(299.446355,233.330860)" fill="#2e2f31" opacity="1.000000"></path>
        <path d="M 7.882477 9.806665 C 7.882477 9.806665 7.882477 9.806665 7.882477 9.806665 C 12.640319 3.795936 5.575645 0.169628 3.989697 1.163137 C 1.106157 2.466930 0.769744 4.922863 1.106157 7.145745 C 1.335420 9.806665 5.046996 10.857034 7.882477 9.806665 Z" transform="scale(1.000000,1.000000) translate(69.845197,342.223502)" fill="#2e2f31" opacity="1.000000"></path>
        <path d="M 1.121423 1.200477 C 2.899607 0.654047 4.677790 1.200477 5.158380 3.137820 C 5.526874 4.623281 0.131855 3.137820 1.121423 1.200477 Z" transform="scale(1.000000,1.000000) translate(71.934902,347.231765)" fill="#ffffff" opacity="1.000000"></path>
    </g>
</svg>