<?xml version="1.0" encoding="UTF-8" standalone="yes"?>
<!DOCTYPE svg PUBLIC "-//W3C//DTD SVG 1.1//EN" "http://www.w3.org/Graphics/SVG/1.1/DTD/svg11.dtd">

<svg width="500" height="500" viewBox="0 0 500 500" xmlns="http://www.w3.org/2000/svg" xmlns:xlink="http://www.w3.org/1999/xlink" version="1.1" baseProfile="full">
    <g transform="scale(1.000000,-1.000000) translate(0,-500)">
        <path d="M 13.363484 1.000000 C 13.363484 11.458498 20.234232 28.845877 28.655075 35.922215 C 32.629271 34.064206 39.310752 27.522830 43.791039 28.845877 C 15.935516 45.906334 43.791039 50.321250 49.988777 57.077655 C 51.023287 62.434945 44.663939 65.614441 39.310752 60.257150 C 30.573100 50.321250 23.064214 48.104861 15.935516 42.772648 C -11.272882 38.604049 8.151562 41.409098 13.411029 37.846890 C 11.536935 37.303175 10.257039 35.106808 8.151562 33.639317 C 2.804048 29.912126 -2.428107 24.847053 3.898948 18.938392 C 6.854352 18.062284 10.893273 30.095736 13.363484 27.995012 C 10.216032 18.449068 9.832149 7.705691 13.363484 1.000000 Z" transform="scale(1.000000,1.000000) translate(180.511780,125.280262)" fill="#9a9a9a" opacity="1.000000"></path>
        <path d="M 8.940540 1.000000 C 9.842503 6.909155 19.049995 30.222837 24.702156 19.526143 C 25.652119 24.608238 27.781972 31.251235 34.063904 32.347342 C 38.897912 29.324958 38.897912 25.221145 48.265560 23.467989 C 34.063904 32.347342 45.378080 56.934690 52.601499 58.444384 C 53.636009 63.801674 50.731267 64.613222 45.378080 59.255932 C 36.640428 49.320032 41.851101 49.641299 34.722403 44.309086 C 29.599878 41.101391 24.702156 39.053349 19.478357 36.845672 C 17.604263 36.301957 17.523019 38.313164 15.417542 36.845672 C 10.070028 33.118481 -1.380501 30.222837 1.440243 23.467989 C 4.395647 22.591881 16.579783 32.323562 19.049995 30.222837 C 12.229888 21.027525 3.305419 7.355060 8.940540 1.000000 Z" transform="scale(1.000000,1.000000) translate(218.382288,116.189247)" fill="#9a9a9a" opacity="1.000000"></path>
        <path d="M 87.660334 78.574579 C 73.648603 78.574579 63.871357 94.423769 53.075230 95.490647 C 45.344261 93.054214 44.102009 74.467950 34.165694 62.667699 C -6.549135 95.490647 1.344945 62.667699 2.105647 46.687213 C 10.015566 32.918743 64.104579 3.986963 96.943469 8.086435 C 109.810567 16.505050 125.960519 24.462209 142.148732 25.543076 C 162.398230 21.328632 171.257110 13.690414 183.920422 4.438227 C 200.975309 -2.888857 212.405194 3.134393 216.589905 7.382375 C 212.510404 16.886863 177.474411 41.530652 171.257110 50.961460 C 146.301375 106.843852 86.998500 154.555255 68.578134 154.705620 C 56.943971 154.957879 39.089749 151.583923 35.746678 143.139928 C 66.544754 129.140528 81.537276 105.127471 87.660334 78.574579 Z" transform="scale(1.000000,1.000000) translate(174.247583,168.219138)" fill="#745d54" opacity="1.000000"></path>
        <path d="M 31.753448 1.499785 C 30.309538 3.998164 27.700008 6.945664 24.038742 10.332105 C 22.112506 12.113752 19.926556 13.989607 17.407620 16.043095 C 14.689661 18.258832 6.339243 24.762983 6.054727 24.989979 C 1.442662 28.669637 0.385958 29.704241 1.301090 30.983197 C 1.536499 31.312197 1.946943 31.466951 2.340965 31.375272 C 9.171214 29.786044 16.168391 25.901798 23.679850 19.928094 C 29.277814 15.476151 34.021454 10.949753 42.099542 2.699791 C 42.485934 2.305178 42.479269 1.672048 42.084656 1.285656 C 41.690043 0.899264 41.056913 0.905929 40.670521 1.300542 C 32.648023 9.493731 27.948926 13.977626 22.434971 18.362758 C 15.135620 24.167777 8.383770 27.915839 1.887723 29.427306 L 2.927598 29.819380 C 3.064233 30.010336 3.091903 30.217669 3.056000 30.375813 C 3.048896 30.407106 3.056875 30.390165 3.086385 30.344485 C 3.207928 30.156344 3.455989 29.873786 3.821515 29.515904 C 4.539934 28.812510 5.655340 27.867168 7.302050 26.553368 C 7.570414 26.339259 15.932507 19.826014 18.671344 17.593257 C 21.220201 15.515377 23.436562 13.613425 25.396776 11.800350 C 29.192817 8.289250 31.919481 5.209447 33.485058 2.500548 C 33.761411 2.022378 33.597805 1.410715 33.119635 1.134362 C 32.641464 0.858008 32.029801 1.021614 31.753448 1.499785 Z" transform="scale(1.000000,1.000000) translate(346.436797,169.191519)" fill="#2e2f31" opacity="1.000000"></path>
        <path d="M 2.298584 37.681562 C 10.004670 35.273043 17.126659 31.654471 24.408471 26.681665 C 29.927198 22.912885 34.173304 19.484910 43.040318 11.910760 C 43.317640 11.673867 43.317640 11.673867 43.594895 11.437036 C 48.553964 7.201175 51.027345 5.130210 53.990318 2.784021 C 54.423299 2.441172 54.496365 1.812237 54.153515 1.379256 C 53.810666 0.946275 53.181730 0.873209 52.748750 1.216059 C 49.760313 3.582410 47.273345 5.664751 42.295925 9.916288 C 42.018606 10.153173 42.018606 10.153173 41.741323 10.390033 C 24.008039 25.537696 15.197110 31.554748 1.701951 35.772628 C 1.174813 35.937384 0.881045 36.498274 1.045800 37.025412 C 1.210556 37.552549 1.771446 37.846318 2.298584 37.681562 Z" transform="scale(1.000000,1.000000) translate(282.057883,223.533866)" fill="#2e2f31" opacity="1.000000"></path>
        <path d="M 2.295936 34.176078 C 14.869853 30.284355 23.026783 24.768106 39.315172 10.989997 C 39.566944 10.777021 39.566944 10.777021 39.818650 10.564105 C 44.319940 6.756659 46.564789 4.895327 49.253567 2.786965 C 49.688172 2.446177 49.764226 1.817596 49.423437 1.382991 C 49.082649 0.948386 48.454068 0.872333 48.019463 1.213121 C 45.305177 3.341484 43.046709 5.214109 38.527030 9.037108 C 38.275260 9.250078 38.275260 9.250078 38.023526 9.463022 C 21.933078 23.073697 13.941611 28.478048 1.704597 32.265497 C 1.177005 32.428791 0.881682 32.988865 1.044976 33.516457 C 1.208270 34.044049 1.768344 34.339372 2.295936 34.176078 Z" transform="scale(1.000000,1.000000) translate(282.057873,221.198230)" fill="#2e2f31" opacity="1.000000"></path>
        <path d="M 2.283546 30.578589 C 13.947037 27.133379 21.514126 22.249534 36.618836 10.055715 C 36.852218 9.867304 36.852218 9.867304 37.085535 9.678950 C 41.257264 6.311287 43.337566 4.665101 45.828917 2.800692 C 46.271094 2.469788 46.361299 1.843082 46.030394 1.400904 C 45.699490 0.958727 45.072783 0.868523 44.630606 1.199427 C 42.113584 3.083046 40.019534 4.740112 35.829269 8.122737 C 35.595888 8.311144 35.595888 8.311144 35.362545 8.499524 C 20.453672 20.535246 13.051995 25.312332 1.716978 28.660517 C 1.187317 28.816970 0.884772 29.373176 1.041226 29.902837 C 1.197679 30.432498 1.753885 30.735043 2.283546 30.578589 Z" transform="scale(1.000000,1.000000) translate(282.057878,217.174158)" fill="#2e2f31" opacity="1.000000"></path>
        <path d="M 4.600859 87.093967 C 34.497713 77.589182 34.442366 16.700448 56.029311 1.000000 C 52.208115 30.739886 55.115872 37.086585 83.525848 14.458136 C 94.168846 14.458136 102.816678 45.036818 104.460566 50.796371 C 91.346342 64.571923 71.383532 82.635436 83.525848 103.019175 C 72.116456 108.776621 60.963941 116.530220 55.534997 123.309645 C 50.065605 131.678243 32.442063 131.393590 6.318802 111.368218 C 4.183714 109.386190 2.818538 106.016313 1.000000 101.922262 C 3.499242 97.271147 12.391798 93.862042 4.600859 87.093967 Z" transform="scale(1.000000,1.000000) translate(122.862282,212.913413)" fill="#984202" opacity="1.000000"></path>
        <path d="M 63.200607 93.800762 C 52.844330 105.273927 43.104303 105.793138 25.813287 102.405553 C 20.007099 100.520470 2.739733 90.507689 1.000000 78.487915 C 1.000000 69.027558 15.421687 91.885591 12.928598 80.747565 C 25.813287 97.682918 39.346169 90.429342 50.216194 90.429342 C 54.016699 81.027752 65.351603 73.982132 77.759688 70.606744 C 58.786508 40.527320 120.695216 1.000000 133.726867 1.000000 C 133.726867 11.571332 119.715136 55.562496 85.721424 64.876815 C 84.183718 71.606048 121.247757 73.623737 122.069784 74.725037 C 113.702091 78.670722 80.643630 90.429342 63.200607 93.800762 Z" transform="scale(1.000000,1.000000) translate(128.181080,245.793714)" fill="#939293" opacity="1.000000"></path>
        <path d="M 15.836280 12.265189 C 8.516384 7.534754 6.550447 6.264280 1.000000 2.677340 C 8.033326 2.677340 13.764214 -1.096676 23.861146 2.677340 C 25.609774 6.136542 23.861146 10.495899 15.836280 12.265189 Z" transform="scale(1.000000,1.000000) translate(108.664227,300.142860)" fill="#96aaab" opacity="1.000000"></path>
        <path d="M 86.555030 83.450739 C 110.046222 62.092776 128.028800 40.919281 135.318391 25.737603 C 143.802934 8.067254 137.404845 -1.524229 116.442599 1.577002 C 116.205079 1.612142 115.975828 1.689764 115.765819 1.806152 C 104.171918 8.231567 96.013724 12.135564 78.281017 20.094892 C 78.222960 20.120950 78.222960 20.120950 78.164903 20.147010 C 57.322068 29.502383 47.263342 34.437423 32.579619 43.088570 C 32.456934 43.160852 32.342319 43.246029 32.237724 43.342652 C 30.279131 45.151980 22.537521 51.859030 21.389406 52.884538 C 13.284244 60.124156 8.123302 65.935470 4.732192 72.506649 C 0.367071 80.965234 -0.290083 89.796605 3.402912 99.312033 C 3.802558 100.341769 4.961302 100.852557 5.991038 100.452911 C 7.020774 100.053264 7.531562 98.894520 7.131916 97.864784 C 3.865221 89.447766 4.433760 81.807270 8.286778 74.341021 C 11.400962 68.306459 16.284034 62.808032 24.054056 55.867765 C 25.159133 54.880698 32.936967 48.142266 34.951975 46.280822 L 34.610081 46.534905 C 49.135933 37.976770 59.084614 33.095721 79.802880 23.796260 C 79.860932 23.770204 79.860932 23.770204 79.918985 23.744146 C 97.748113 15.741541 105.986016 11.799400 117.704783 5.304783 L 117.028002 5.533933 C 134.708071 2.918279 138.853857 9.133298 131.712519 24.006218 C 124.692783 38.625884 107.007084 59.449820 83.864178 80.491125 C 83.046903 81.234183 82.986739 82.499083 83.729797 83.316358 C 84.472856 84.133633 85.737755 84.193797 86.555030 83.450739 Z" transform="scale(1.000000,1.000000) translate(199.670818,216.194964)" fill="#2e2f31" opacity="1.000000"></path>
        <path d="M 3.887669 12.937804 C 3.887669 12.937804 3.887669 12.937804 3.887669 12.937804 C -4.580123 4.790008 7.993265 -0.125604 10.815863 1.221139 C 15.947858 2.988486 16.546591 6.317606 15.947858 9.330816 C 15.539826 12.937804 8.934131 14.361624 3.887669 12.937804 Z" transform="scale(1.000000,1.000000) translate(151.390455,319.489067)" fill="#2e2f31" opacity="1.000000"></path>
        <path d="M 7.677320 1.395551 C 4.749239 0.317418 1.821159 1.395551 1.029785 5.218023 C 0.422998 8.148911 9.306812 5.218023 7.677320 1.395551 Z" transform="scale(1.000000,1.000000) translate(155.930802,324.584635)" fill="#ffffff" opacity="1.000000"></path>
        <path d="M 104.122656 48.189139 C 105.485672 46.311608 107.074462 45.224102 109.137230 44.554107 C 110.157221 44.222809 110.826954 44.084556 112.984892 43.709594 C 116.085197 43.170886 117.526206 42.714232 118.968405 41.433074 L 115.735584 40.548310 C 115.923529 41.134671 115.910501 41.182866 115.726418 41.323183 C 115.325735 41.628600 114.553801 41.895849 112.922056 42.295251 C 112.809934 42.322695 112.221670 42.465454 112.051150 42.507318 C 111.699243 42.593712 111.409954 42.666933 111.129016 42.741524 C 105.563927 44.219096 102.782854 46.939461 103.548340 52.761772 L 103.581106 52.944735 C 105.054873 59.422758 108.102602 62.137174 115.337745 65.508090 C 115.398784 65.536529 116.079575 65.853150 116.279130 65.946327 C 116.635960 66.112939 116.929124 66.251144 117.209174 66.385174 C 120.240437 67.835912 122.138421 69.043611 123.796598 70.755356 C 124.690088 71.677710 126.208916 71.531024 126.909378 70.454727 C 127.297599 69.858206 133.461180 67.468009 139.759621 65.823667 C 147.048046 63.920868 153.204597 63.245044 154.786940 64.138126 C 155.087978 64.308033 155.427915 64.397015 155.773592 64.396391 C 157.222370 63.975564 157.222370 63.975564 157.720316 62.881249 C 157.798646 62.253500 157.798646 62.253500 157.749413 61.993886 C 157.714581 61.802281 157.664590 61.649749 157.595553 61.477421 C 157.523332 61.297145 157.423110 61.085360 157.287313 60.818687 C 157.065098 60.382309 156.734248 59.774717 156.288495 58.980600 C 155.603786 57.760780 154.969591 56.659202 153.194485 53.593492 C 153.189327 53.584584 153.189327 53.584584 153.184169 53.575675 C 151.555794 50.763365 150.798804 49.446216 150.117524 48.227068 C 149.698681 47.477548 149.391469 46.909336 149.202224 46.532924 C 149.119347 46.368080 149.065681 46.252469 149.050797 46.213957 C 149.076639 46.280819 149.099758 46.355751 149.122175 46.502837 C 149.162055 46.743607 149.162055 46.743607 149.052114 47.373543 C 148.495652 48.411265 148.495652 48.411265 147.161293 48.759280 C 148.972899 48.757590 149.849070 46.540781 148.528145 45.300991 C 146.785974 43.665828 144.037716 42.333372 139.491486 40.673067 C 137.970180 40.117479 132.356363 38.183456 131.483143 37.873070 C 120.026192 33.800700 114.958603 30.331032 115.158112 25.552371 L 112.104549 27.167865 C 113.677075 28.144657 118.575165 31.360129 119.557637 31.962634 C 122.090814 33.516113 123.957740 34.363708 125.888518 34.701510 C 127.748661 35.026954 129.573694 34.831587 131.491801 34.088847 L 129.031850 31.233736 C 129.508316 30.397440 130.424875 30.201724 131.063759 30.440451 C 131.156985 30.475286 131.099630 30.435643 130.983116 30.331230 C 130.533485 29.928294 129.880970 29.170969 129.137310 28.171255 C 127.449775 25.902675 125.572076 22.788034 124.064242 19.672640 C 120.414163 12.131070 119.700158 6.364851 122.294300 4.677499 L 119.307006 3.635138 C 119.214165 3.357458 121.583936 11.250804 122.637330 14.228787 C 124.478488 19.433808 126.314819 23.155979 128.409037 25.258783 C 131.667055 28.530157 135.444151 27.658731 138.318372 22.779700 L 134.643339 22.200932 C 136.698202 31.391893 139.073745 34.853513 145.334109 36.297151 C 145.497305 36.334785 145.664583 36.351770 145.832013 36.347709 C 147.060846 36.317901 147.765639 35.710619 149.220478 34.071146 C 149.343286 33.932752 151.510522 31.397468 152.239192 30.602461 C 155.655599 26.875036 158.245231 25.464255 160.399429 26.483203 L 160.646827 22.769837 C 151.816830 25.586351 149.984698 34.653831 153.556505 46.059193 C 156.451021 55.301856 162.580883 64.635087 167.273934 66.719820 L 167.180569 66.675421 C 191.330157 78.934455 203.085234 82.450201 215.226676 80.305914 C 224.838165 78.608439 231.114736 75.246921 255.556548 59.933741 L 254.997718 60.174610 C 270.454263 56.158058 280.937708 57.008757 282.241638 61.925864 L 282.854327 59.911121 C 277.233954 64.851990 274.145399 67.995810 265.981411 76.743179 C 265.092851 77.695234 264.435240 78.397474 263.785416 79.087076 C 254.940808 88.473100 248.154758 94.543088 237.722109 101.707646 C 237.407564 101.923658 237.161377 102.225142 237.012602 102.576519 C 221.023037 140.340776 195.928244 169.815932 164.378489 191.146073 C 138.853133 208.403241 110.117972 219.479575 84.009023 223.739449 C 83.228022 223.866876 82.595593 224.442804 82.395845 225.208507 C 81.947043 226.928921 78.612280 229.617644 73.818161 231.652830 C 68.141834 234.062529 61.369033 235.265771 54.786317 234.768264 C 37.637117 233.472168 24.335961 221.522888 18.381316 196.845438 C 18.279360 196.422906 18.042527 196.045090 17.706668 195.769179 C 16.100351 194.449578 13.909561 192.976906 10.714354 191.002215 C 10.241218 190.709809 9.742689 190.404199 9.180548 190.061595 C 8.601381 189.708614 6.648679 188.524262 6.534399 188.454808 C 5.511872 187.833369 4.757276 187.370436 4.060954 186.935557 L 3.303571 190.608968 C 5.580864 190.261051 12.892126 188.965545 14.208039 188.865003 C 15.585425 188.759766 16.991707 188.813003 19.384633 189.067444 C 19.993302 189.132164 20.598093 188.914596 21.026045 188.476962 C 22.137437 187.340426 23.527314 186.241306 25.554188 184.846468 C 25.832022 184.655271 30.309871 181.673449 31.691481 180.686501 C 38.699002 175.680705 43.012341 170.512641 45.379177 162.694745 C 45.872548 161.065089 46.378054 159.344200 46.983817 157.242063 C 52.177076 139.220245 52.388334 138.519466 54.955924 131.652026 C 65.446277 103.593856 82.192755 85.116892 113.863090 73.221405 C 114.561720 72.958997 115.056138 72.329447 115.145472 71.588528 C 115.284902 70.432114 115.111607 70.235793 112.387709 67.482991 C 110.715854 65.793396 108.664382 63.884943 106.469013 62.013991 C 100.444412 56.879668 94.321449 52.808050 88.680709 50.634791 C 88.451287 50.546399 88.207533 50.501067 87.961672 50.501067 C 86.870112 50.501067 86.026406 50.563236 83.926699 50.763133 C 83.345058 50.818507 83.035424 50.847141 82.689120 50.876697 C 80.041751 51.102638 78.404233 51.047982 77.088129 50.605389 L 77.906570 51.129849 C 78.244245 51.488387 78.356399 52.335202 77.837155 52.941286 C 77.735637 53.059781 77.678348 53.099959 77.664260 53.106844 C 77.751022 53.064440 77.897638 53.010442 78.094985 52.952861 C 78.920644 52.711954 79.996115 52.543207 82.466118 52.231462 C 82.531846 52.223167 82.531846 52.223167 82.597651 52.214863 C 85.305198 51.873170 86.424693 51.698372 87.514836 51.381396 C 88.470048 51.103653 89.160047 50.764877 89.670838 50.146908 C 90.609822 49.010899 90.356399 47.603853 89.373816 46.624139 C 88.084865 45.338953 86.631767 44.475832 84.345328 43.441946 C 84.161446 43.358797 83.973864 43.275039 83.730296 43.167056 C 83.428841 43.033605 83.262454 42.959955 83.134585 42.903121 C 80.924836 41.920955 79.947411 41.333139 79.325755 40.535205 C 79.250797 40.438992 79.167195 40.349837 79.075994 40.268855 C 78.622228 39.865931 78.257535 39.463489 77.973880 39.062352 C 76.709083 37.273710 76.967585 35.470071 78.461192 32.791223 C 78.651706 32.449528 79.355333 31.255114 79.495732 31.002782 L 75.748048 30.030361 C 75.748048 36.604649 79.981439 41.832639 87.414924 41.076719 C 88.577766 40.958468 89.391834 39.872511 89.179218 38.723173 C 86.222456 22.739835 86.258610 18.286436 88.988795 13.011250 L 85.220229 12.266661 C 86.931380 31.782254 92.916354 43.515616 101.463716 48.722236 C 102.353579 49.264296 103.510527 49.032336 104.122656 48.189139 Z M 100.885694 45.839228 L 103.544635 45.306131 C 96.205220 40.835331 90.813735 30.265483 89.204941 11.917276 C 89.030018 9.922283 86.356874 9.394126 85.436375 11.172687 C 82.180904 17.462815 82.138759 22.654263 85.245952 39.450788 L 87.010246 37.097242 C 82.264083 37.579885 79.748048 34.472729 79.748048 30.030361 C 79.748048 27.967315 77.003439 27.255164 76.000365 29.057940 C 75.891605 29.253408 75.189167 30.445805 74.967533 30.843314 C 72.804930 34.722036 72.333187 38.013508 74.707926 41.371797 C 75.173205 42.029783 75.743406 42.659006 76.420102 43.259881 L 76.170342 42.993531 C 77.333655 44.486715 78.706177 45.312140 81.509956 46.558333 C 81.641143 46.616642 81.811069 46.691859 82.109126 46.823805 C 82.344481 46.928146 82.523852 47.008238 82.697259 47.086650 C 84.579552 47.937788 85.684289 48.593988 86.549528 49.456700 C 86.445585 49.353060 86.329146 49.163029 86.272167 48.846672 C 86.187564 48.376938 86.325157 47.916156 86.587713 47.598509 C 86.700222 47.462393 86.771529 47.411671 86.801494 47.396958 C 86.723849 47.435080 86.586142 47.485769 86.398025 47.540467 C 85.597389 47.773265 84.551831 47.936518 82.096823 48.246340 C 82.031080 48.254636 82.031080 48.254636 81.965241 48.262945 C 79.244990 48.606275 78.090206 48.787467 76.974598 49.112974 C 76.016093 49.392643 75.317723 49.733961 74.799495 50.338860 C 73.853082 51.443552 74.040576 52.859219 74.994690 53.872285 C 75.220222 54.111751 75.501338 54.291892 75.813131 54.396745 C 77.792944 55.062538 79.869778 55.131856 83.029265 54.862208 C 83.392364 54.831220 83.711728 54.801685 84.305795 54.745129 C 86.271877 54.557952 87.043882 54.501067 87.961672 54.501067 L 87.242635 54.367343 C 92.384225 56.348290 98.163582 60.191418 103.874487 65.058401 C 105.982585 66.854979 107.951187 68.686340 109.544394 70.296452 C 110.183411 70.942249 110.721733 71.512921 111.094545 71.935269 C 111.250697 72.112170 111.367233 72.251318 111.431500 72.335296 C 111.035775 71.818202 111.080068 71.890701 111.174234 71.109709 L 113.159853 71.349118 L 112.456615 69.476832 C 79.631765 81.805959 62.082629 101.168524 51.209228 130.251216 C 48.588245 137.261464 48.373237 137.974681 43.140219 156.134473 C 42.539006 158.220822 42.038251 159.925535 41.550777 161.535714 C 39.475101 168.391878 35.716065 172.895800 29.366398 177.431660 C 28.049024 178.372721 23.613116 181.326614 23.286570 181.551334 C 21.064889 183.080232 19.493861 184.322607 18.166159 185.680348 L 19.807571 185.089866 C 17.193242 184.811884 15.559964 184.750053 13.903311 184.876628 C 12.354710 184.994947 4.785846 186.336099 2.699474 186.654848 C 0.865176 186.935085 0.368232 189.345327 1.942091 190.328258 C 2.654843 190.773397 3.421763 191.243891 4.456974 191.873039 C 4.574508 191.944471 6.524069 193.126919 7.098850 193.477226 C 7.654385 193.815804 8.146050 194.117206 8.611473 194.404845 C 11.662622 196.290505 13.738200 197.685731 15.167564 198.859965 L 14.492916 197.783705 C 20.844829 224.107530 35.559371 237.326544 54.484866 238.756889 C 68.694521 239.830822 84.461269 233.137564 86.266315 226.218191 L 84.653137 227.687248 C 111.320728 223.336227 140.601547 212.049563 166.618837 194.459808 C 198.790762 172.709031 224.395415 142.635017 240.696038 104.136103 L 239.986531 105.004977 C 250.681352 97.660375 257.671446 91.407873 266.696559 81.830294 C 267.351577 81.135180 268.013123 80.428739 268.905670 79.472412 C 276.981421 70.819584 280.005382 67.741514 285.495314 62.915316 C 286.065195 62.414334 286.302496 61.634004 286.108003 60.900573 C 283.948475 52.757011 271.519375 51.748428 253.991687 56.303189 C 253.794215 56.354504 253.605758 56.435734 253.432858 56.544059 C 229.539556 71.513589 223.403336 74.799940 214.531006 76.366873 C 203.502134 78.314670 192.412164 74.997847 168.991159 63.108663 L 168.897794 63.064265 C 165.501142 61.555415 159.957788 53.115191 157.373697 44.863767 C 154.372399 35.280133 155.735282 28.535035 161.862373 26.580670 C 163.592084 26.028942 163.751003 23.643616 162.109771 22.867304 C 157.770710 20.814903 153.802834 22.976522 149.290418 27.899735 C 148.504964 28.756693 146.308438 31.326244 146.228604 31.416210 C 145.815632 31.881592 145.511221 32.196212 145.292301 32.384844 C 145.218411 32.448511 145.172569 32.482082 145.169994 32.483528 C 145.292782 32.414576 145.470366 32.355304 145.735015 32.348885 L 145.783514 34.348297 L 146.232920 32.399442 C 141.812463 31.380086 140.302325 29.179526 138.546967 21.328182 C 138.151199 19.557999 135.792609 19.186554 134.871933 20.749414 C 133.235542 23.527212 132.499073 23.697125 131.243244 22.436147 C 129.699278 20.885851 128.058727 17.560520 126.408360 12.894870 C 125.394790 10.029472 123.038646 2.181514 123.100586 2.366771 C 122.685634 1.125683 121.210273 0.610883 120.113293 1.324410 C 115.040844 4.623769 115.970491 12.131487 120.463780 21.415245 C 122.079869 24.754309 124.087826 28.085017 125.927896 30.558652 C 126.817489 31.754545 127.629738 32.697261 128.313605 33.310107 C 128.769361 33.718531 129.193632 34.011781 129.663662 34.187413 C 130.688959 34.570528 131.879216 34.316369 132.507359 33.213848 C 133.438907 31.578786 131.802249 29.679218 130.047408 30.358736 C 128.797541 30.842716 127.708950 30.959248 126.577873 30.761359 C 125.251785 30.529351 123.788776 29.865137 121.648753 28.552761 C 120.733363 27.991395 115.848109 24.784349 114.215156 23.770022 C 112.914482 22.962094 111.225464 23.855673 111.161593 25.385517 C 110.989207 29.514553 113.224486 32.905554 117.378654 35.749822 C 120.463741 37.862115 124.332673 39.576613 130.143458 41.642055 C 131.048990 41.963926 136.639906 43.890059 138.119310 44.430345 C 142.162558 45.906958 144.575140 47.076666 145.790709 48.217571 L 147.159427 46.759281 L 147.157561 44.759282 C 145.804142 45.111134 145.804142 45.111134 145.238191 46.167725 C 145.123470 46.823925 145.123470 46.823925 145.167838 47.105513 C 145.199200 47.311294 145.249262 47.473550 145.319762 47.655961 C 145.391791 47.842329 145.492099 48.058421 145.628468 48.329663 C 145.849920 48.770136 146.180674 49.381889 146.625739 50.178333 C 147.320860 51.422250 148.082919 52.748219 149.722568 55.580000 C 149.727728 55.588912 149.727728 55.588912 149.732888 55.597824 C 151.497119 58.644753 152.128244 59.740997 152.800435 60.938516 C 153.221815 61.689212 153.530803 62.256655 153.722856 62.633804 C 153.808563 62.802112 153.864838 62.921029 153.882433 62.964949 C 153.859558 62.907850 153.838106 62.842396 153.813915 62.709326 C 153.770466 62.490421 153.770466 62.490421 153.845372 61.888872 C 154.335212 60.813383 154.335212 60.813383 155.766372 60.396398 L 155.769982 62.396394 L 156.753024 60.654663 C 153.851160 59.016836 147.201136 59.746831 138.749202 61.953389 C 131.128752 63.942869 124.770034 66.408739 123.556843 68.272869 L 126.669623 67.972241 C 124.614388 65.850611 122.358010 64.414864 118.935968 62.777102 C 118.642913 62.636848 118.338865 62.493512 117.971435 62.321950 C 117.768582 62.227233 117.085608 61.909598 117.027030 61.882305 C 110.803651 58.982779 108.613140 57.031832 107.481444 52.057398 L 107.514210 52.240361 C 107.066912 48.838191 108.301100 47.630945 112.155482 46.607578 C 112.408800 46.540320 112.675262 46.472876 113.004840 46.391964 C 113.168849 46.351699 113.755302 46.209379 113.873061 46.180555 C 116.064983 45.644039 117.148086 45.269061 118.151270 44.504392 C 119.736768 43.295858 120.230850 41.468076 119.544695 39.327380 C 119.103473 37.950836 117.392571 37.482594 116.311873 38.442616 C 115.623400 39.054213 114.666432 39.357475 112.300115 39.768645 C 109.942650 40.178277 109.169846 40.337807 107.901560 40.749751 C 105.068772 41.669851 102.770430 43.243037 100.885694 45.839228 Z" transform="scale(1.000000,1.000000) translate(106.662699,114.188293)" fill="#2e2f31" opacity="1.000000"></path>
    </g>
</svg>