<?xml version="1.0" encoding="UTF-8" standalone="yes"?>
<!DOCTYPE svg PUBLIC "-//W3C//DTD SVG 1.1//EN" "http://www.w3.org/Graphics/SVG/1.1/DTD/svg11.dtd">

<svg width="500" height="500" viewBox="0 0 500 500" xmlns="http://www.w3.org/2000/svg" xmlns:xlink="http://www.w3.org/1999/xlink" version="1.1" baseProfile="full">
    <g transform="scale(1.000000,-1.000000) translate(0,-500)">
        <path d="M 1.707239 30.510175 C 6.640487 34.863278 7.894285 42.132093 16.506981 43.569484 C 30.284200 33.487726 47.886365 17.935783 63.576057 5.118932 C 80.840113 -8.984011 -7.737610 16.533421 1.707239 30.510175 Z" transform="scale(1.000000,1.000000) translate(279.685662,321.368751)" fill="#ffebd3" opacity="1.000000"></path>
        <path d="M 1.000000 14.020020 C 4.752876 19.165927 12.399364 24.875752 19.491563 25.822695 C 29.614837 30.617930 44.918977 30.255319 55.234013 25.822695 C 58.339178 20.532263 48.070133 4.951949 39.881633 1.000000 C 19.491563 3.257373 8.615855 2.495197 1.000000 14.020020 Z" transform="scale(1.000000,1.000000) translate(243.096398,353.856477)" fill="#ff8b40" opacity="1.000000"></path>
        <path d="M 3.155280 25.159396 C 19.525216 27.440452 29.213947 20.056847 35.431322 4.424590 C 35.941591 3.141628 35.315200 1.687928 34.032238 1.177659 C 32.749276 0.667390 31.295575 1.293781 30.785306 2.576743 C 25.342740 16.260909 17.641751 22.129693 3.845335 20.207242 C 2.477835 20.016689 1.214784 20.970792 1.024231 22.338292 C 0.833678 23.705791 1.787781 24.968842 3.155280 25.159396 Z" transform="scale(1.000000,1.000000) translate(263.820468,117.436892)" fill="#f14670" opacity="1.000000"></path>
        <path d="M 1.000000 9.477958 L 24.866253 23.160149 C 31.389876 26.705871 39.654640 11.967075 47.188269 10.856903 C 51.388185 7.646476 20.902209 1.000000 15.116868 1.000000 C 8.489974 7.098728 1.044724 5.845162 1.000000 9.477958 Z" transform="scale(1.000000,1.000000) translate(194.107132,359.370115)" fill="#ff8b40" opacity="1.000000"></path>
        <path d="M 10.646836 43.360379 L 1.000000 44.739324 C 19.426008 94.274454 37.259903 86.239317 45.967744 91.285797 C 65.340796 96.729683 84.772881 97.008856 104.175449 96.729683 C 141.748745 91.285797 147.292929 34.584936 158.801418 1.000000 C 138.500556 19.590988 126.242673 28.777407 108.188812 38.859165 C 112.071563 43.511033 112.071563 48.090195 112.071563 53.003841 C 94.745762 59.402656 82.103524 56.491649 71.035461 51.458810 C 71.035461 55.799025 65.955546 61.749768 59.743272 61.749768 C 56.358781 62.691388 50.656697 59.575272 47.878865 56.592762 C 46.495148 55.107088 47.659959 52.810597 46.153789 51.696340 C 42.354406 54.191489 40.021982 55.667628 36.956078 57.653271 C 28.767488 56.592762 20.526741 44.739324 10.646836 43.360379 Z" transform="scale(1.000000,1.000000) translate(184.460297,325.487681)" fill="#55d1ff" opacity="1.000000"></path>
        <path d="M 4.109332 309.159197 C 15.462888 310.528920 24.462519 313.653084 30.297515 315.164655 C 32.218528 315.067451 33.767564 317.711081 34.223574 318.016263 C 34.589666 318.049329 36.882721 318.669689 38.517740 319.295011 C 40.159942 319.687035 41.063588 319.919898 41.350893 319.687035 C 41.828350 319.300052 37.240060 316.185458 37.477742 316.048080 C 40.235020 315.704230 40.691559 312.874095 42.982954 310.847345 C 46.951722 308.929999 49.985714 307.423233 53.756181 305.916374 C 61.456486 305.104443 69.392423 304.159457 76.805827 303.299160 C 76.724262 301.648355 75.277581 299.764732 74.513458 297.997518 C 81.894036 282.489501 119.807019 272.918284 139.439890 270.811433 C 155.501068 259.890036 171.007479 232.727350 181.458971 211.598755 C 196.204266 181.789864 198.512036 145.550326 199.387873 113.453469 C 203.342605 105.236635 208.403845 97.070161 209.434241 88.414829 C 209.768710 85.605295 203.870099 89.445226 201.088028 89.960424 C 199.387873 88.414829 195.523886 88.930027 192.741815 88.414829 C 188.304908 78.016215 189.289986 48.847595 185.941196 29.527657 C 187.112238 22.016634 189.393025 14.638425 191.814458 7.425648 C 191.597033 1.270507 182.154717 -3.259809 175.894829 7.425648 C 172.385717 13.415604 169.585628 20.100411 168.117884 26.745586 C 161.137880 47.877301 155.806653 69.398001 151.273912 91.419727 C 125.667769 112.157507 110.941315 144.534544 88.920303 170.164596 C 51.440708 184.920161 33.418698 227.442519 30.706536 266.746087 C 30.594412 268.370947 36.703141 275.040448 37.872727 275.974568 C 41.201548 278.633224 39.571784 278.075942 47.077595 275.974568 C 49.898065 275.184931 52.895858 275.361857 55.702093 275.974568 C 60.369205 276.993582 57.220223 285.932225 53.756181 289.114762 C 37.217948 298.866535 18.868505 301.506219 3.051800 298.866535 C -0.404841 298.289649 0.886032 309.267104 4.109332 309.159197 Z" transform="scale(1.000000,1.000000) translate(206.172208,51.557326)" fill="#55d1ff" opacity="1.000000"></path>
        <path d="M 1.058977 10.231242 C 7.264651 21.756064 22.040065 19.317414 25.881672 10.452166 C 25.408965 6.888522 18.169917 1.000000 11.758051 1.000000 C 7.280125 1.000000 0.286369 6.083921 1.058977 10.231242 Z" transform="scale(1.000000,1.000000) translate(229.614089,369.227007)" fill="#2f3031" opacity="1.000000"></path>
        <path d="M 1.000000 2.000750 L 3.905416 3.538122 L 3.905416 1.000000 Z" transform="scale(1.000000,1.000000) translate(243.096398,378.577717)" fill="#ffebd3" opacity="1.000000"></path>
        <path d="M 1.079541 2.140139 C 35.654009 19.379488 67.568902 34.845788 104.802945 43.219888 C 113.831745 43.219888 120.645414 37.767156 128.566649 34.487160 L 128.566649 23.416735 C 86.013457 14.907750 -2.015815 -3.786763 1.079541 2.140139 Z" transform="scale(1.000000,1.000000) translate(80.657356,327.007118)" fill="#2f3031" opacity="1.000000"></path>
        <path d="M 9.248250 259.318586 C -15.574445 176.871777 19.105101 111.815603 66.977442 66.602837 C 80.620949 53.717302 100.665385 42.962175 117.509357 41.780142 C 136.490693 35.415521 143.514085 14.593381 156.516449 1.000000 L 139.672477 66.602837 C 113.904029 86.853100 100.010900 120.317729 77.351109 145.296158 C 58.042427 154.121365 38.424045 172.935156 28.554200 198.890660 C 23.121947 213.176279 23.229658 228.752373 19.105101 241.929197 C 49.287371 257.474923 10.551449 254.836393 9.248250 259.318586 Z" transform="scale(1.000000,1.000000) translate(217.773639,76.374208)" fill="#ff8b40" opacity="1.000000"></path>
        <path d="M 1.033893 22.764617 L 18.669516 25.707864 C 34.135968 28.289093 50.324775 22.764617 64.509172 15.144206 C 71.564150 6.278958 71.601371 -2.586290 56.530449 2.479245 C 36.974360 6.278958 -0.280799 22.545205 1.033893 22.764617 Z" transform="scale(1.000000,1.000000) translate(195.419213,325.527874)" fill="#ffebd3" opacity="1.000000"></path>
        <path d="M 58.319302 182.166493 C 63.309704 134.194733 82.108399 100.970136 116.303902 89.178512 C 116.587218 89.080816 116.844957 88.920699 117.058069 88.709997 C 122.899369 82.934732 128.337642 75.857620 135.422916 65.286395 C 137.456842 62.251778 145.212734 50.383573 147.068240 47.603981 C 159.236123 29.376204 168.689474 18.034709 180.422678 9.179007 C 185.994206 4.973865 193.777155 4.106721 204.065094 5.856278 C 208.088311 6.540462 212.178820 7.543765 217.687789 9.109761 C 218.560454 9.357827 223.878018 10.899060 225.315275 11.300312 C 225.570358 11.371525 225.837043 11.391368 226.099856 11.358689 C 228.087024 11.111596 229.424080 10.703989 232.157792 9.666919 C 233.412633 9.190878 233.968301 8.990884 234.674853 8.775489 C 235.123716 8.638651 235.403132 8.604024 235.478190 8.616747 C 235.263691 8.580386 234.985804 8.379724 234.855856 8.103250 C 234.816357 8.019212 234.822069 8.091145 234.793915 8.299196 C 234.743726 8.670075 234.607633 9.174831 234.384637 9.793796 C 233.576770 12.036181 232.239467 14.555984 228.773126 20.634472 C 225.161973 26.966898 223.794298 29.543931 222.873105 32.100869 C 222.790184 32.331033 222.750194 32.574457 222.755123 32.819052 C 223.820511 85.692180 202.138441 142.716447 165.248012 186.359274 C 160.276219 192.241101 156.378519 199.209650 153.015485 207.743469 C 150.489551 214.153117 148.846004 219.507217 145.444668 231.671316 C 145.427412 231.733027 145.427412 231.733027 145.410158 231.794734 C 140.972939 247.663318 138.694055 254.596281 134.837060 262.438393 C 129.808600 272.662349 123.390303 280.322801 114.584518 285.880079 L 115.324317 285.598440 C 101.799249 287.844180 87.762860 287.262450 72.189704 284.167095 C 59.545591 281.653924 46.923452 277.825979 28.363177 271.253350 L 28.853270 271.507772 C 17.834190 263.685540 5.771230 245.514423 4.996751 232.065675 C 4.933246 230.962933 3.987817 230.120463 2.885074 230.183968 C 1.782332 230.247472 0.939863 231.192901 1.003367 232.295644 C 1.855518 247.093160 14.605214 266.298746 26.537841 274.769488 C 26.688655 274.876548 26.853591 274.962171 27.027934 275.023910 C 45.755226 281.655684 58.533745 285.531054 71.409909 288.090349 C 87.427651 291.274070 101.940233 291.875536 115.979517 289.544414 C 116.242418 289.500761 116.493944 289.405006 116.719317 289.262775 C 126.195655 283.282315 133.090207 275.053437 138.426420 264.203752 C 142.429453 256.064713 144.758096 248.980371 149.262391 232.871906 C 149.279647 232.810192 149.279647 232.810192 149.296903 232.748482 C 152.660983 220.717622 154.278385 215.448692 156.736936 209.210030 C 159.951268 201.053549 163.641249 194.456371 168.302873 188.941487 C 205.802119 144.578405 227.839986 86.618386 226.754311 32.738469 L 226.636329 33.456652 C 227.444197 31.214267 228.781499 28.694464 232.247840 22.615976 C 235.858994 16.283550 237.226669 13.706518 238.147861 11.149579 C 238.865564 9.157462 239.068008 7.661452 238.475926 6.401751 C 237.619563 4.579774 235.756610 4.263968 233.508434 4.949334 C 232.689324 5.199043 232.075935 5.419811 230.739001 5.926995 C 228.289163 6.856374 227.185161 7.192933 225.606280 7.389258 L 226.390861 7.447635 C 224.976630 7.052812 219.671789 5.515266 218.781510 5.262193 C 213.145051 3.659957 208.930852 2.626316 204.735702 1.912893 C 193.467127 -0.003430 184.646950 0.979278 178.012972 5.986310 C 165.837436 15.175865 156.138483 26.812015 143.741390 45.383155 C 141.870652 48.185566 134.117487 60.049598 132.100207 63.059378 C 125.151946 73.426179 119.853914 80.320788 114.245765 85.865537 L 114.999932 85.397022 C 79.054823 97.791963 59.475149 132.396854 54.340772 181.752615 C 54.226482 182.851256 55.024457 183.834530 56.123098 183.948820 C 57.221739 184.063109 58.205013 183.265134 58.319302 182.166493 Z" transform="scale(1.000000,1.000000) translate(181.528450,134.718370)" fill="#2f3031" opacity="1.000000"></path>
        <path d="M 2.847542 299.972171 C 15.807802 293.222943 25.284919 289.044273 35.385398 286.012613 C 36.388306 285.711590 36.989256 284.687965 36.763331 283.665518 C 28.459821 246.087155 28.923862 212.113984 37.018382 181.788664 C 43.951409 155.814763 56.329044 133.120467 72.809029 114.008822 C 86.288178 98.377212 102.013969 85.795766 117.343754 77.366946 C 129.325487 70.778995 139.975224 67.640005 142.292267 68.970103 C 142.565933 69.127201 142.872887 69.217315 143.188044 69.233081 C 148.485323 69.498081 153.439300 66.759567 158.568792 61.396916 C 162.289061 57.507545 165.111035 53.639952 171.367988 44.352410 C 177.488519 35.267366 180.237079 31.500389 183.740346 27.837882 C 183.804826 27.770472 183.864510 27.698633 183.918962 27.622891 C 186.634584 23.845530 188.154845 20.625957 191.077292 13.284263 C 192.493338 9.726911 193.143810 8.164212 194.040221 6.265814 L 193.790545 6.664846 C 196.643024 3.116118 204.537242 5.749793 203.600360 9.275431 C 201.422513 17.471010 200.489251 26.190260 200.514408 36.171618 C 200.533346 43.685622 200.936627 49.723139 202.132766 63.318062 C 203.318886 76.799114 203.717189 82.762103 203.735744 90.124005 L 207.735731 90.113923 C 207.716793 82.599920 207.313512 76.562403 206.117373 62.967480 C 203.755568 36.123983 203.725964 24.377797 207.466195 10.302716 C 209.641080 2.118281 195.977242 -2.440260 190.672862 4.158842 C 190.574220 4.281561 190.490414 4.415499 190.423186 4.557874 C 189.479478 6.556438 188.807661 8.170414 187.360906 11.804912 C 184.557754 18.846918 183.133825 21.862483 180.671163 25.287982 L 180.849779 25.072991 C 177.129511 28.962363 174.307536 32.829956 168.050584 42.117498 C 161.930053 51.202541 159.181492 54.969519 155.678225 58.632026 C 151.272650 63.237854 147.300193 65.433792 143.387897 65.238076 L 144.283674 65.501054 C 140.218368 63.167367 128.683386 66.567281 115.416529 73.861835 C 99.676209 82.516381 83.575768 95.397566 69.779737 111.396661 C 52.916589 130.952656 40.247237 154.181811 33.153689 180.757089 C 24.890978 211.712518 24.418070 246.334871 32.857546 284.528561 L 34.235479 282.181466 C 23.847356 285.299462 14.164208 289.568976 1.000000 296.424412 L 2.847542 299.972171 Z" transform="scale(1.000000,1.000000) translate(191.995025,50.918772)" fill="#2f3031" opacity="1.000000"></path>
    </g>
</svg>