<?xml version="1.0" encoding="UTF-8" standalone="yes"?>
<!DOCTYPE svg PUBLIC "-//W3C//DTD SVG 1.1//EN" "http://www.w3.org/Graphics/SVG/1.1/DTD/svg11.dtd">

<svg width="500" height="500" viewBox="0 0 500 500" xmlns="http://www.w3.org/2000/svg" xmlns:xlink="http://www.w3.org/1999/xlink" version="1.1" baseProfile="full">
    <g transform="scale(1.000000,-1.000000) translate(0,-500)">
        <path d="M 198.061606 107.822149 C 190.952421 108.288209 188.439380 93.904080 183.281921 92.514523 C 171.935475 105.347897 157.663866 91.148765 153.441562 84.636781 C 127.425128 100.744933 117.157893 51.073250 81.889571 48.970324 C 74.446276 42.250689 42.520935 -24.940521 1.000000 12.046487 C 9.549036 31.937364 63.716625 92.744250 64.408850 102.905321 C 68.457588 118.738475 88.260465 201.922186 151.116039 234.308176 C 164.700684 246.453876 167.925650 251.644829 172.018792 261.722585 C 180.199437 263.866149 231.359787 246.344236 243.184269 238.772285 C 254.238432 163.236490 202.269896 129.064423 198.061606 107.822149 Z" transform="scale(1.000000,1.000000) translate(98.883961,86.763510)" fill="#7d4d24" opacity="1.000000"></path>
        <path d="M 1.015154 1.000000 C 0.144802 7.248515 37.026847 44.697875 44.027535 48.767623 C 45.711496 49.576565 68.880853 46.239717 69.827823 44.697875 C 46.458521 41.547900 36.109311 2.816437 1.015154 1.000000 Z" transform="scale(1.000000,1.000000) translate(177.517850,135.234489)" fill="#2d0f07" opacity="1.000000"></path>
        <path d="M 1.000000 23.686351 C 6.785645 28.570928 65.611443 92.226407 78.865497 99.611524 C 84.355424 103.470349 120.298858 109.410891 121.245828 107.869050 C 117.782557 100.505857 87.909416 50.466181 78.865497 31.575063 C 78.833698 31.546894 96.359226 16.416473 90.177019 1.396605 C 91.502086 -1.932944 85.331708 16.842711 84.904291 15.214787 C 83.222317 9.298511 80.395091 5.851441 78.865497 4.749546 C 78.865497 22.985105 70.187791 25.319373 69.631564 24.305696 C 69.369797 18.304062 68.224103 12.212265 65.165407 10.433059 C 66.324416 16.487514 64.743980 28.669097 63.086110 26.669332 C 59.545170 22.398161 61.824756 7.112416 55.631564 4.851150 C 59.937465 27.881770 46.161038 23.686351 38.722473 16.487514 C 26.694587 23.686351 7.135751 24.231805 1.000000 23.686351 Z" transform="scale(1.000000,1.000000) translate(214.750979,154.665746)" fill="#2d0f07" opacity="1.000000"></path>
        <path d="M 10.495700 1.000000 C 11.738853 14.465544 6.632663 19.258617 1.000000 20.926073 C 2.868393 24.807330 2.086227 32.510628 1.000000 36.228911 C 1.649975 36.228911 3.004931 40.488052 6.385442 39.370331 C 8.250657 37.351514 9.585924 33.364126 10.388806 28.714364 C 19.266750 24.996030 22.016421 5.175593 22.148629 2.632920 C 22.249108 0.700488 17.178676 14.944626 16.318069 12.932131 C 17.096568 2.727196 12.954090 2.632920 10.495700 1.000000 Z" transform="scale(1.000000,1.000000) translate(283.120777,157.372208)" fill="#e3b84c" opacity="1.000000"></path>
        <path d="M 18.893502 1.000000 C 21.293897 7.641123 19.107746 16.137410 14.880242 17.179142 C 10.016349 18.377705 3.493597 11.770109 1.000000 10.562734 C 2.164927 18.805303 10.615613 22.788571 13.651654 23.746187 C 16.614726 29.013856 12.308877 32.244181 11.621831 34.595992 C 12.271806 34.595992 13.626762 38.855132 17.007273 37.737411 C 18.872488 35.718594 20.207756 31.731207 21.010637 27.081445 C 31.521501 27.935286 32.311668 17.830028 32.443877 15.287355 C 32.544355 13.354923 24.877044 21.093245 24.016437 19.080749 C 24.794936 8.875815 20.698724 2.922790 18.893502 1.000000 Z" transform="scale(1.000000,1.000000) translate(251.325524,159.815850)" fill="#e3b84c" opacity="1.000000"></path>
        <path d="M 80.767036 125.445958 C 202.007506 165.070780 37.915126 -5.180982 1.000000 1.173818 C 1.000000 7.699870 12.501984 97.546960 80.767036 125.445958 Z" transform="scale(1.000000,1.000000) translate(169.232964,193.411842)" fill="#2d0f07" opacity="1.000000"></path>
        <path d="M 70.133709 111.089317 C 83.653667 117.155110 92.039179 111.739042 90.515394 104.185302 C 73.977883 83.309063 24.697541 20.230383 9.310520 1.922435 C 5.719380 -1.119006 2.417198 4.278675 1.000000 4.940467 C 1.000000 11.466519 49.403330 70.073114 70.133709 111.089317 Z" transform="scale(1.000000,1.000000) translate(100.099255,92.215890)" fill="#2d0f07" opacity="1.000000"></path>
        <path d="M 82.382845 108.719879 C 95.902803 114.785673 90.405007 116.273619 88.881223 108.719879 C 72.343712 87.843640 22.553685 20.687488 7.166665 2.379540 C 3.575525 -0.661901 2.417198 2.178047 1.000000 2.839838 C 4.518012 10.303721 47.890445 65.170139 82.382845 108.719879 Z" transform="scale(1.000000,1.000000) translate(108.409775,91.298487)" fill="#d8d6a3" opacity="1.000000"></path>
        <path d="M 15.398594 29.844656 C 19.076126 22.565919 25.339460 -13.150303 10.973821 7.181648 C 10.297855 10.687530 6.272124 13.836046 1.000000 16.395513 C 6.126528 19.493853 13.959355 21.591768 15.398594 29.844656 Z" transform="scale(1.000000,1.000000) translate(329.243748,340.564347)" fill="#e0dd6e" opacity="1.000000"></path>
        <path d="M 1.000000 20.739696 C 26.023703 61.022517 58.758486 90.274497 78.765371 41.116458 C 74.905653 38.731748 72.000972 33.691237 62.516175 32.424064 C 67.853266 27.493633 74.520158 10.369630 73.999325 6.300613 C 75.475228 -12.947076 22.192611 26.880070 1.000000 20.739696 Z" transform="scale(1.000000,1.000000) translate(267.727573,324.535796)" fill="#bcbcbc" opacity="1.000000"></path>
        <path d="M 9.508367 10.904662 C 9.508367 10.904662 9.508367 10.904662 9.508367 10.904662 C 15.390183 4.144527 6.656577 0.066099 4.695972 1.183477 C 1.131235 2.649824 0.715349 5.411958 1.131235 7.911984 C 1.414658 10.904662 6.003042 12.085989 9.508367 10.904662 Z" transform="scale(1.000000,1.000000) translate(315.437390,366.835096)" fill="#2e2f31" opacity="1.000000"></path>
        <path d="M 1.138883 1.328185 C 3.172758 0.433670 5.206634 1.328185 5.756330 4.499646 C 6.177810 6.931371 0.007022 4.499646 1.138883 1.328185 Z" transform="scale(1.000000,1.000000) translate(318.020770,371.062815)" fill="#ffffff" opacity="1.000000"></path>
        <path d="M 170.078098 74.258225 C 171.582062 81.809287 171.118179 86.869738 169.197254 88.483181 C 167.351065 90.033851 163.092377 88.737380 156.629573 83.568940 C 155.892324 82.979347 154.843204 82.985541 154.112968 83.583798 C 146.202718 90.064399 140.859692 89.919832 134.297038 84.373672 C 131.356650 81.888722 119.802121 69.132844 119.407326 68.726496 C 108.884838 57.896084 98.632490 51.425720 84.895125 48.858766 C 84.244599 48.737209 83.576062 48.945318 83.109465 49.414623 C 83.104130 49.419989 83.240033 49.368720 83.354322 49.382812 C 83.291381 49.375051 83.066166 49.258054 82.723005 48.973190 C 81.803443 48.209848 80.598676 46.701530 78.962331 44.282930 C 79.467396 45.029442 70.288296 30.688632 66.874995 26.014469 C 58.843852 15.016650 50.738354 7.476974 41.339337 3.642081 C 29.459008 -1.205211 16.449428 0.485458 2.179755 9.807954 C 2.072754 9.877859 1.972700 9.957860 1.880966 10.046860 C -0.521036 12.377263 1.987901 17.210532 9.419498 28.128237 C 14.310470 35.313528 20.423058 43.635410 31.244983 58.019985 C 31.576208 58.460221 31.576208 58.460221 31.907463 58.900386 C 46.163791 77.842875 48.325762 80.738307 52.927367 87.190067 C 58.746588 95.349007 62.037455 100.749687 61.994770 101.713146 C 61.976979 102.114711 62.080600 102.512318 62.292122 102.854121 C 63.253463 104.407578 64.217181 106.602544 65.262154 109.580411 C 66.661050 113.566858 72.382300 133.615266 73.839550 138.261189 C 78.314379 152.527587 83.176373 164.708291 89.506854 176.392498 C 103.986062 203.116856 124.575668 223.767118 153.744933 237.335885 L 152.904387 236.601292 C 155.642281 240.875323 158.011811 243.921662 160.254536 246.226455 C 161.527047 247.534184 164.358039 249.967968 164.285654 249.897964 C 164.759883 250.356591 165.022695 250.721287 165.239501 251.236840 L 165.311547 251.389739 C 186.915716 292.623775 206.623928 310.243253 223.923712 308.426203 C 230.688702 307.715656 236.594789 303.997996 241.307543 298.230470 C 245.033668 293.670393 247.788220 287.990292 248.712657 283.534017 L 248.392554 284.275070 C 251.464416 279.888814 253.556226 269.240010 253.162321 261.613229 C 252.928988 257.095460 251.910264 254.163498 249.333070 253.520219 C 246.524347 252.819149 243.859661 255.434158 240.652567 261.084730 L 242.391937 262.071944 L 243.138267 260.216414 C 241.595522 259.595893 241.127156 259.020135 241.095100 257.253158 L 241.000650 257.897820 C 249.258343 232.037961 250.033887 209.850467 244.505959 189.287595 C 240.248326 173.449983 233.537929 160.900668 220.308701 141.193694 C 219.378033 139.807320 216.048664 134.875714 215.367010 133.861625 C 213.460240 131.024944 211.982587 128.794216 210.591263 126.639728 C 204.222497 116.777587 200.068622 109.027571 197.234410 101.126383 L 196.889552 103.080536 C 211.417471 85.612407 213.363835 80.398805 208.724894 68.677319 C 208.688601 68.585617 208.645576 68.496725 208.596169 68.411370 C 208.367056 68.045064 208.367056 68.045064 207.733329 67.608386 C 206.818741 67.344680 206.818741 67.344680 206.043251 67.579082 C 205.249807 68.143643 205.249807 68.143643 205.107107 68.423957 C 205.004627 68.601248 204.949610 68.742557 204.893302 68.919821 C 204.844297 69.074097 204.796332 69.259804 204.736936 69.513716 C 204.657498 69.853309 204.640068 69.933902 204.359572 71.244921 C 203.892819 73.426492 203.560855 74.879055 203.150360 76.439672 C 202.645166 78.360316 202.139517 79.935957 201.638741 81.088771 C 201.380753 81.682673 201.134423 82.137854 200.919997 82.429728 C 200.842299 82.535490 200.780922 82.603327 200.746405 82.632342 C 200.778560 82.605312 200.851254 82.564092 200.971926 82.529792 L 203.518692 84.440674 C 203.487707 79.643374 198.488483 72.037286 195.934028 70.202586 C 194.394276 69.096682 192.323362 70.553831 192.844301 72.376599 C 194.673975 78.778647 191.739031 90.896851 187.266214 91.096733 L 188.323498 91.344601 C 188.299815 91.331414 188.299815 91.331414 188.277599 91.318709 C 188.129767 91.233598 188.060632 91.178866 188.047403 91.163148 C 188.087445 91.210723 188.126247 91.289474 188.141862 91.358697 C 188.133075 91.319743 188.143830 91.175282 188.247373 90.400389 C 188.782822 86.393191 187.761291 82.824821 183.267044 77.169048 C 181.744060 75.252453 178.771726 77.225482 179.946595 79.373155 C 180.614993 80.594996 180.940300 85.267778 180.489442 89.224427 C 180.253079 91.298707 179.833735 92.977952 179.318797 93.936029 C 179.136012 94.276113 178.989055 94.441310 178.944697 94.463918 C 179.035736 94.417516 179.154118 94.419753 179.112120 94.399419 L 180.239057 96.122689 C 180.188552 94.808824 180.179584 93.747715 180.183602 91.395525 C 180.192981 85.904520 180.065005 83.602013 179.367376 80.867086 C 178.408214 77.106868 176.430696 74.231221 173.091381 72.166467 C 171.604431 71.247062 169.736605 72.543667 170.078098 74.258225 Z M 174.001044 73.476883 L 170.987761 75.568641 C 175.348853 78.265176 176.200323 81.603208 176.183608 91.388692 C 176.179499 93.794055 176.188774 94.891441 176.242009 96.276335 C 176.270398 97.014857 176.703752 97.677525 177.368946 97.999606 C 179.622197 99.090606 181.643135 98.060550 182.842140 95.829718 C 183.643994 94.337811 184.174928 92.211713 184.463723 89.677295 C 185.001000 84.962255 184.627345 79.594994 183.455832 77.453454 L 180.135382 79.657561 C 183.961669 84.472741 184.672224 86.954822 184.282611 89.870610 C 183.941237 92.425384 184.203685 93.588794 186.281806 94.785236 C 186.334369 94.815294 186.334369 94.815294 186.387505 94.844876 C 186.710327 95.023429 187.076245 95.109214 187.444788 95.092744 C 191.956990 94.891103 194.885031 90.872355 196.354972 84.803058 C 197.490319 80.115277 197.603594 74.473002 196.690314 71.277427 L 194.767308 71.827013 L 193.600587 73.451440 C 193.843976 73.626250 195.491691 75.610708 196.689984 77.433856 C 198.454749 80.118864 199.506867 82.622683 199.518776 84.466509 C 199.527316 85.788730 200.793671 86.738898 202.065541 86.377390 C 204.350544 85.727916 205.599661 82.852381 207.018777 77.457196 C 207.449085 75.821251 207.792201 74.319893 208.271048 72.081792 C 208.541584 70.817325 208.561305 70.726141 208.631793 70.424811 C 208.669052 70.265531 208.696287 70.160085 208.705592 70.130791 C 208.679929 70.211583 208.650959 70.285991 208.570181 70.425737 C 208.443426 70.681262 208.443426 70.681262 207.663815 71.236099 C 206.894844 71.468512 206.894844 71.468512 205.986241 71.206675 C 205.358233 70.773810 205.358233 70.773810 205.134304 70.415239 L 206.865236 69.413305 L 205.005579 70.149290 C 208.963683 80.150464 207.502680 84.063960 193.814170 100.522798 C 193.361395 101.067207 193.230232 101.810446 193.469312 102.476951 C 196.425090 110.717041 200.710805 118.713035 207.231023 128.809701 C 208.637799 130.988118 210.127982 133.237762 212.047286 136.093089 C 212.732194 137.112020 216.060644 142.042264 216.987614 143.423129 C 229.989955 162.792120 236.528277 175.019634 240.643108 190.326047 C 245.967397 210.131420 245.219167 231.537495 237.190207 256.681051 C 237.123698 256.889331 237.091792 257.107108 237.095758 257.325713 C 237.159484 260.838436 238.712721 262.747812 241.645608 263.927475 C 242.574713 264.301178 243.636988 263.930100 244.131308 263.059158 C 245.469718 260.701016 246.637845 259.057227 247.591527 258.121324 C 247.961539 257.758210 248.264706 257.536318 248.476633 257.440921 C 248.522972 257.420062 248.468099 257.427040 248.364372 257.401150 C 248.257415 257.374453 248.205600 257.338241 248.221504 257.358112 C 248.329987 257.493655 248.458537 257.744119 248.582418 258.100657 C 248.881697 258.962002 249.086122 260.241102 249.167645 261.819545 C 249.519727 268.636541 247.593308 278.443383 245.116146 281.980478 C 244.960186 282.203171 244.851267 282.455324 244.796043 282.721531 C 244.004303 286.538133 241.534511 291.631038 238.210101 295.699491 C 234.115882 300.710046 229.113037 303.859149 223.505878 304.448087 C 208.319397 306.043170 189.776959 289.465912 168.854683 249.533348 L 168.926730 249.686247 C 168.486170 248.638619 167.908590 247.837128 167.066384 247.022632 C 167.008125 246.966290 164.239994 244.586546 163.121301 243.436893 C 161.076405 241.335403 158.871299 238.500454 156.272573 234.443672 C 156.067791 234.123994 155.776251 233.869204 155.432027 233.709080 C 127.086107 220.523312 107.112870 200.491234 93.023829 174.487008 C 86.831098 163.057049 82.060124 151.104376 77.656205 137.064049 C 76.230689 132.519299 70.482646 112.377002 69.036511 108.255940 C 67.904077 105.028831 66.834842 102.593541 65.693498 100.749213 L 65.990850 101.890188 C 66.096609 99.503045 63.011811 94.440546 56.183923 84.867386 C 51.552620 78.373988 49.390261 75.478037 35.103453 56.495048 C 34.772398 56.055149 34.772398 56.055149 34.441407 55.615224 C 23.658050 41.281914 17.569322 32.992516 12.726140 25.877432 C 9.777680 21.545872 7.642117 18.126362 6.351949 15.640956 C 5.702584 14.390006 5.282953 13.402710 5.102420 12.725479 C 5.036649 12.478748 5.013818 12.314382 5.016776 12.259262 C 5.007745 12.427546 4.913326 12.678070 4.666281 12.917751 L 4.367491 13.156657 C 17.576442 4.527140 29.213657 3.014817 39.828235 7.345671 C 48.405202 10.845158 56.011100 17.920109 63.644630 28.373439 C 66.971366 32.929060 76.093486 47.180849 75.649346 46.524387 C 77.487191 49.240815 78.873130 50.975953 80.168117 52.050941 C 82.121226 53.672247 84.255343 53.935388 85.946064 52.234854 L 84.160405 52.790710 C 96.970167 55.184333 106.542778 61.225708 116.538410 71.513846 C 116.758747 71.740631 128.534793 84.741058 131.715129 87.428790 C 139.726606 94.199364 147.219826 94.402109 156.647929 86.677982 L 154.131324 86.692841 C 161.933126 92.932105 167.941903 94.761355 171.769897 91.546106 C 175.191163 88.672481 175.769975 82.358283 174.001044 73.476883 Z" transform="scale(1.000000,1.000000) translate(97.825632,85.674050)" fill="#2e2f31" opacity="1.000000"></path>
        <path d="M 26.018431 72.966949 C 23.265493 69.448245 17.313631 55.476117 12.443410 40.985598 C 6.968789 24.696792 4.051817 11.423418 5.243493 6.959519 L 5.163365 7.198221 C 6.172584 4.720892 9.240623 4.241399 14.840750 6.174676 C 20.671630 8.187612 28.471623 12.685405 37.524463 19.206716 C 55.361506 32.055822 76.566736 51.672031 93.422686 70.968620 C 111.662158 91.849057 122.880221 110.067710 123.585513 120.962888 C 124.323264 132.359470 112.549099 135.410561 84.769250 127.388066 C 83.708046 127.081602 82.599333 127.693440 82.292869 128.754645 C 81.986406 129.815849 82.598244 130.924562 83.659448 131.231025 C 98.919730 135.638016 110.045101 136.840432 117.304230 134.959342 C 124.586733 133.072195 128.051771 128.036190 127.577158 120.704491 C 126.795664 108.632174 115.238973 89.863571 96.435202 68.337129 C 79.385065 48.818236 57.956248 28.995194 39.862453 15.961134 C 30.520838 9.231801 22.415721 4.558061 16.146039 2.393641 C 8.797465 -0.143234 3.497518 0.685074 1.458962 5.689114 C 1.427266 5.766919 1.400504 5.846644 1.378834 5.927816 C -0.107787 11.496549 2.876617 25.076762 8.651832 42.259936 C 13.672317 57.197540 19.732521 71.424003 22.868050 75.431721 C 23.548678 76.301674 24.805673 76.455153 25.675627 75.774525 C 26.545580 75.093897 26.699059 73.836903 26.018431 72.966949 Z" transform="scale(1.000000,1.000000) translate(167.996022,191.586263)" fill="#2e2f31" opacity="1.000000"></path>
    </g>
</svg>