<?xml version="1.0" encoding="UTF-8" standalone="yes"?>
<!DOCTYPE svg PUBLIC "-//W3C//DTD SVG 1.1//EN" "http://www.w3.org/Graphics/SVG/1.1/DTD/svg11.dtd">

<svg width="500" height="500" viewBox="0 0 500 500" xmlns="http://www.w3.org/2000/svg" xmlns:xlink="http://www.w3.org/1999/xlink" version="1.1" baseProfile="full">
    <g transform="scale(1.000000,-1.000000) translate(0,-500)">
        <path d="M 177.476343 46.580913 C 173.845637 59.354838 155.049319 82.853698 153.086152 88.574657 C 132.705115 91.836789 128.913775 81.118584 112.662493 76.105798 C 95.747880 70.888410 87.690063 18.681527 61.038297 35.587160 C 51.652487 27.037567 39.666516 7.240206 26.264097 18.681527 C 18.303678 26.688147 12.529072 4.597592 1.122205 18.681527 C -3.743928 23.402609 138.774150 155.927516 61.038297 102.149922 C 68.733107 111.857130 118.101263 181.643660 132.705115 185.493108 C 152.967838 207.546006 174.164871 227.399368 191.810515 235.441893 C 199.806761 241.523409 201.536322 254.518899 220.564258 268.908892 C 246.564846 288.253782 277.292739 277.874337 285.896530 264.727606 C 296.327248 258.925363 362.092737 267.023628 284.644965 244.230556 C 277.182517 237.575446 276.942998 227.396909 276.613965 213.466951 C 295.537957 190.951623 279.873744 117.804818 219.983106 82.877396 C 219.197856 80.141496 206.885427 78.461946 217.759986 68.343079 C 234.224771 52.989684 274.481461 29.739745 270.089296 22.810202 C 254.170778 25.564239 236.198312 69.203281 223.528878 1.000000 C 216.314913 16.559608 229.029955 30.867020 226.221666 39.654283 C 224.554590 44.870637 214.921753 42.617424 207.290130 44.062997 C 208.914096 50.625753 230.668954 45.831130 227.777682 48.471710 C 225.791377 51.863709 217.801437 62.562899 206.885427 72.036513 C 191.302788 80.063965 180.853037 93.835633 162.743179 87.028980 C 158.609120 85.870095 177.476343 61.801828 187.321251 50.989627 C 192.173718 48.471710 201.978697 53.865682 199.275550 48.471710 C 198.659065 47.241547 190.785238 48.524149 188.617931 44.062997 C 186.753037 40.224324 190.709082 30.625269 188.617931 29.021503 C 186.102125 27.092056 184.016715 35.975823 182.134529 33.430217 C 178.587907 28.633506 178.802162 20.202390 179.281832 18.920160 C 183.587638 7.410013 173.166249 35.587162 170.561313 35.587160 C 165.944013 35.587160 162.743179 30.141102 156.392220 26.481449 C 161.138168 35.587160 170.325800 42.560910 177.476343 46.580913 Z" transform="scale(1.000000,1.000000) translate(76.154363,94.072484)" fill="#000000" opacity="1.000000"></path>
        <path d="M 88.300724 99.275918 C 110.363537 108.805250 136.052595 96.346968 154.833470 86.849017 C 157.127733 60.201853 35.413011 -16.090844 1.792778 4.475937 C -7.557164 10.195654 68.487856 95.620947 88.300724 99.275918 Z" transform="scale(1.000000,1.000000) translate(170.409685,191.982170)" fill="#424242" opacity="1.000000"></path>
        <path d="M 76.115700 85.496255 C 83.897358 64.638603 21.757053 15.130633 1.147717 1.000000 C -2.683955 7.231858 69.238706 78.964931 76.115700 85.496255 Z" transform="scale(1.000000,1.000000) translate(80.202535,113.676059)" fill="#424242" opacity="1.000000"></path>
        <path d="M 27.652795 1.000000 C 24.307492 7.393674 22.681199 10.501910 17.597784 20.217534 C -0.168794 7.586551 1.000000 14.120992 25.576480 32.225279 C 20.882108 39.420707 1.381679 66.521999 1.000000 71.694409 C 3.710065 71.659354 2.798521 74.030424 9.779649 71.659354 C 13.158699 57.693176 25.089131 50.448504 34.357721 35.620001 C 45.844297 38.213016 55.414766 33.214985 35.654402 28.693371 C 33.454521 19.866695 38.680462 6.818178 29.865302 16.647515 C 25.733071 12.202706 27.692339 9.628629 27.652795 1.000000 Z" transform="scale(1.000000,1.000000) translate(229.117892,109.442109)" fill="#fc403f" opacity="1.000000"></path>
        <path d="M 18.253734 1.000000 C 12.704574 11.250423 22.502538 30.520188 19.632321 41.613222 C 2.652893 43.293618 -5.249856 45.754809 22.502538 48.471710 C 17.808166 55.667139 1.381679 68.453550 1.000000 73.625960 C 3.710065 73.590905 2.798521 75.961975 9.779649 73.590905 C 15.913520 60.175691 108.332853 -3.841323 37.436154 38.592413 C 18.575654 34.555453 22.700992 9.815427 18.253734 1.000000 Z" transform="scale(1.000000,1.000000) translate(281.429507,94.072484)" fill="#fc403f" opacity="1.000000"></path>
        <path d="M 2.479884 14.277696 C 28.418403 62.519825 71.859531 83.931614 107.376614 101.221707 C 114.449864 107.467202 155.797001 113.125609 159.363547 101.221707 C 138.224837 47.635372 -15.640638 -30.404316 2.479884 14.277696 Z" transform="scale(1.000000,1.000000) translate(187.050323,193.450942)" fill="#030021" opacity="1.000000"></path>
        <path d="M 2.706554 1.206090 C 29.439041 30.642663 153.659704 134.741778 171.419910 146.293930 C 178.105283 147.161105 130.235882 129.338928 133.606849 127.686095 C 112.569653 120.448851 -15.152510 -4.753222 2.706554 1.206090 Z" transform="scale(1.000000,1.000000) translate(141.970645,203.720278)" fill="#03001e" opacity="1.000000"></path>
        <path d="M 13.897174 14.495483 C 13.897174 14.495483 13.897174 14.495483 13.897174 14.495483 C 22.812963 5.284540 9.574367 -0.272476 6.602437 1.249994 C 1.198929 3.247949 0.568519 7.011463 1.198929 10.417845 C 1.628548 14.495483 8.583724 16.105087 13.897174 14.495483 Z" transform="scale(1.000000,1.000000) translate(323.033915,341.958524)" fill="#ec964f" opacity="1.000000"></path>
        <path d="M 11.702770 12.500583 C 11.702770 12.500583 11.702770 12.500583 11.702770 12.500583 C 19.101573 4.651199 8.115472 -0.084379 5.649204 1.213040 C 1.165082 2.915657 0.641934 6.122849 1.165082 9.025700 C 1.521603 12.500583 7.293383 13.872255 11.702770 12.500583 Z" transform="scale(1.000000,1.000000) translate(324.494073,343.001494)" fill="#2e2f31" opacity="1.000000"></path>
        <path d="M 1.138883 1.328185 C 3.172758 0.433670 5.206634 1.328185 5.756330 4.499646 C 6.177810 6.931371 0.007022 4.499646 1.138883 1.328185 Z" transform="scale(1.000000,1.000000) translate(327.412347,348.164538)" fill="#ffffff" opacity="1.000000"></path>
        <path d="M 11.403153 20.871161 C 46.969501 21.999552 61.868544 16.257701 2.413203 1.000000 C -3.340431 8.690451 10.258713 15.617941 11.403153 20.871161 Z" transform="scale(1.000000,1.000000) translate(354.617830,336.260069)" fill="#de8417" opacity="1.000000"></path>
        <path d="M 177.601659 48.034825 C 176.440123 52.121463 173.530460 57.724991 168.994457 64.977622 C 168.037008 66.508492 167.009405 68.110011 165.876438 69.841932 C 164.223029 72.369431 158.777559 80.492553 157.924136 81.791966 C 155.216163 85.915095 153.789129 88.336319 153.243550 89.926217 L 154.819179 88.600504 C 145.233860 90.134703 139.700318 88.835577 132.037124 84.419417 C 131.206186 83.940563 128.105199 82.096068 127.414097 81.694365 C 123.040411 79.152161 119.555975 77.507793 115.301114 76.195361 C 111.219568 74.936390 107.434543 70.488911 101.898880 61.253107 C 101.386910 60.398927 100.858338 59.504913 100.175811 58.341514 C 100.011949 58.062202 98.791930 55.978473 98.431023 55.364326 C 92.396371 45.095295 88.708164 39.947216 83.891780 36.217633 C 77.331000 31.137270 70.096994 30.773162 62.016127 35.898982 L 64.434230 36.109327 C 63.356646 35.127750 62.187358 33.943127 60.689143 32.336206 C 59.937386 31.529904 57.148767 28.480614 56.575469 27.861809 C 51.197792 22.057259 47.469206 18.779635 43.318396 16.811509 C 37.682823 14.139378 32.200807 14.733845 27.014675 19.161121 L 26.894915 19.272121 C 25.505094 20.670009 24.472001 20.792154 22.866253 19.996304 C 21.977254 19.555694 21.439940 19.181684 19.283866 17.572781 C 16.020180 15.137355 14.123362 14.101181 11.573554 13.893677 C 8.149293 13.615011 4.883448 15.390586 1.617134 19.423468 L 1.778665 19.246791 C -0.621034 21.574959 2.312068 25.374705 13.570536 37.742924 C 19.903505 44.700136 21.151277 46.013403 43.247476 69.124897 C 43.734170 69.633987 43.734170 69.633987 44.220764 70.143123 C 66.080644 93.017534 76.980957 104.959536 82.090403 112.187725 C 83.481580 114.155784 84.250786 115.572221 84.336916 116.140604 C 84.297859 115.882857 84.480777 115.361626 85.036850 115.074995 C 85.205602 114.988010 85.315574 114.968118 85.359332 114.969212 C 85.261802 114.966773 85.087879 114.938173 84.850296 114.875198 C 82.005658 114.121181 75.144103 110.059496 64.225270 102.505857 C 62.334313 101.197695 60.091759 103.591128 61.520105 105.393024 C 61.296344 105.110745 82.996822 134.260149 92.652521 146.580156 C 94.788475 149.305487 96.866976 151.923918 98.889012 154.434292 C 115.768710 175.390575 127.691380 187.700426 134.244462 189.427761 L 133.281508 188.846993 C 156.974554 214.633276 176.796972 231.863730 193.030166 239.262489 L 192.648915 239.034508 C 194.378320 240.349801 195.882724 242.094194 197.695431 244.777130 C 197.048324 243.819365 203.433123 253.841537 205.889761 257.104233 C 210.071234 262.657707 214.971480 267.637899 221.406998 272.504799 C 233.848245 281.761379 248.225763 285.084238 262.103045 282.980729 C 274.181179 281.149935 284.786459 275.207912 289.619129 267.823515 L 288.917881 268.476104 C 290.988033 267.324551 295.817740 266.710219 305.381026 266.143038 C 305.750881 266.121103 306.136411 266.098520 306.604771 266.071299 C 307.216185 266.035830 307.216185 266.035830 307.825968 266.000496 C 314.183182 265.631651 317.068017 265.404149 319.718213 264.979163 C 321.492160 264.694692 322.828546 264.347151 323.801160 263.869129 C 325.407916 263.079438 326.339717 261.709864 325.762604 259.990906 C 324.560900 256.411573 313.609294 252.067664 287.258742 244.312631 L 288.025247 244.738617 C 282.309894 239.641589 281.097870 233.792017 280.674578 215.930161 C 280.668559 215.675912 280.668559 215.675912 280.662525 215.420433 L 280.194120 216.754489 C 290.325657 204.700220 290.927995 179.916238 281.787990 154.158587 C 271.582720 125.398885 251.086819 99.507099 223.039777 83.150438 L 223.954609 84.326348 C 223.750035 83.613590 223.326041 83.040873 222.725116 82.502082 C 222.342367 82.158907 221.905993 81.843347 221.282107 81.436218 C 221.188671 81.375245 220.125539 80.696202 219.818831 80.491325 C 218.211797 79.417852 217.475813 78.600814 217.361581 77.746704 C 217.191450 76.474651 218.243882 74.532160 221.171527 71.807962 C 225.691482 67.593110 231.612678 63.024841 242.306276 55.264163 C 242.799096 54.906508 243.315431 54.532207 243.903455 54.106276 C 257.326012 44.383730 261.140008 41.537158 265.863668 37.477569 C 273.021873 31.325692 276.006179 27.177251 273.827671 23.740207 C 273.394967 23.057528 272.593890 22.702400 271.797462 22.840189 C 267.753756 23.539783 264.720544 25.575231 257.775875 31.344114 C 257.492013 31.579911 257.492013 31.579911 257.208853 31.814886 C 249.275593 38.394906 245.529171 40.259019 241.860874 38.506161 C 236.510541 35.949559 231.675148 24.872701 227.544357 2.635439 C 227.188550 0.720026 224.582980 0.392003 223.763526 2.159460 C 220.105046 10.050339 220.662665 16.864234 224.097822 27.890224 C 226.770740 36.469620 227.187860 38.473603 226.365706 41.046157 C 225.826672 42.732820 223.736404 43.255211 217.162039 43.439629 C 215.540672 43.485110 214.882102 43.507202 213.995473 43.552508 C 212.060690 43.651374 210.459248 43.815995 208.967029 44.098649 C 207.839013 44.312316 207.122029 45.429660 207.397805 46.544121 C 208.360024 50.432633 212.570939 51.637215 219.639467 51.735914 C 221.070199 51.755891 222.376500 51.732218 224.520425 51.664982 C 227.373852 51.575495 228.107821 51.564449 228.826378 51.625549 C 228.989235 51.639397 229.102643 51.656006 229.153206 51.668483 C 229.043772 51.641479 228.898586 51.578688 228.687334 51.393755 C 228.192867 50.960892 227.966420 50.244943 228.158744 49.578440 C 228.252699 49.252833 228.372010 49.092488 228.478060 48.995634 C 228.329642 49.131182 228.202506 49.288330 228.100936 49.461780 C 225.057014 54.659862 216.462580 64.855750 207.623650 72.526741 L 208.018628 72.259276 C 204.988914 73.820044 202.186718 75.539460 198.225641 78.174470 C 197.606011 78.586664 195.085522 80.276102 194.445440 80.701590 C 193.011691 81.654660 191.870886 82.394300 190.775411 83.074715 C 181.234016 89.001010 174.344077 90.483159 165.495944 87.157558 L 165.332139 87.103926 C 165.703203 87.207945 166.032803 87.516720 166.162708 87.881027 C 166.211428 88.017658 166.211631 88.027805 166.227209 87.939558 C 166.320455 87.411351 166.676150 86.515299 167.279860 85.350300 C 168.500952 82.993914 170.632779 79.713318 173.460140 75.801595 C 178.525354 68.793749 185.595823 60.106373 190.849184 54.336853 L 190.291528 54.765574 C 191.123610 54.333811 192.391151 54.194330 194.147773 54.325125 C 194.842230 54.376833 195.529092 54.459034 196.589147 54.607645 C 199.743976 55.049927 200.324615 55.102656 201.422602 54.842049 C 203.899786 54.254089 204.348332 52.041983 203.112704 49.576360 C 202.472647 48.299159 201.817016 48.128663 199.351765 47.829320 C 199.184450 47.809004 198.575296 47.737404 198.574912 47.737358 C 198.259455 47.699900 198.013988 47.669350 197.772952 47.636971 C 197.164539 47.555242 196.645296 47.468982 196.160257 47.364876 C 194.177793 46.939373 192.981274 46.250397 192.465992 45.189749 C 192.033467 44.299445 192.050200 42.495872 192.493257 39.514919 C 192.549957 39.133438 192.609687 38.751513 192.698411 38.197694 C 193.126945 35.522761 193.231017 34.778192 193.281961 33.669097 C 193.371391 31.722120 193.072243 30.346367 191.884175 29.435202 C 190.469768 28.350451 188.869130 28.596007 187.594694 29.701902 C 186.922031 30.285607 186.424910 30.953476 185.597339 32.233634 C 184.773736 33.507653 184.553630 33.822039 184.317389 34.041465 C 184.375100 33.987861 184.546887 33.897712 184.894975 33.893433 C 185.355462 33.887772 185.674371 34.083057 185.791802 34.241879 C 184.449736 32.426771 183.589133 29.714358 183.234341 26.629457 C 182.976914 24.391134 183.049275 22.035673 183.204167 21.621624 C 183.268062 21.450822 184.094444 19.245061 184.175911 19.024028 C 184.214967 18.918064 184.237385 18.855910 184.254725 18.803691 C 184.267298 18.766580 184.267298 18.766580 184.298443 18.655309 C 184.328173 18.577701 184.328173 18.577701 184.357357 18.037898 L 184.351742 17.966278 L 184.325990 17.785831 L 184.202658 17.378395 L 183.536360 16.540046 L 182.170630 16.167226 C 180.819323 16.822526 180.819323 16.822526 180.730418 16.999675 C 180.513371 17.372919 180.513371 17.372919 180.511004 17.394702 C 180.477903 17.471673 180.427882 17.594793 180.296132 17.921768 C 180.123735 18.349927 180.015062 18.619541 179.886984 18.936135 C 179.692043 19.418002 179.499995 19.890058 179.300082 20.377989 C 178.779330 21.648999 178.255298 22.905370 177.722786 24.152897 C 176.310444 27.461621 175.010317 30.306158 173.901839 32.444644 C 173.266972 33.669437 172.714885 34.621547 172.273508 35.249376 C 172.077761 35.527814 171.918388 35.720704 171.821201 35.811302 C 171.822768 35.809840 171.847422 35.791153 171.910612 35.756285 C 172.088901 35.657907 172.319423 35.587870 172.610432 35.587870 C 171.698383 35.587870 170.779373 35.263093 169.667026 34.548851 C 168.527171 33.816946 163.437488 29.485165 163.896883 29.856500 C 162.373126 28.624830 160.958429 27.624310 159.439889 26.749273 C 157.706983 25.750709 155.743381 27.632969 156.667780 29.406547 C 161.013809 37.744962 169.214753 45.079387 178.545341 50.325001 L 177.601659 48.034825 Z M 181.449262 49.128421 C 181.702158 48.238656 181.311899 47.291555 180.505580 46.838246 C 171.792401 41.939736 164.147133 35.102274 160.214895 27.557771 L 157.442786 30.215045 C 158.760724 30.974489 160.009959 31.857988 161.382370 32.967324 C 161.864939 33.357389 162.347959 33.762467 162.954961 34.282679 C 163.062769 34.375072 164.151435 35.313154 164.465457 35.580414 C 165.709478 36.639189 166.593949 37.329222 167.505791 37.914718 C 169.213879 39.011488 170.844847 39.587870 172.610431 39.587870 C 175.135240 39.587872 177.108134 35.781746 181.401650 25.723235 C 181.942376 24.456466 182.473755 23.182479 183.001460 21.894499 C 183.203754 21.400756 183.397997 20.923305 183.595041 20.436239 C 183.724239 20.116877 183.833999 19.844566 184.006267 19.416725 C 184.117709 19.140151 184.171224 19.008430 184.185615 18.974965 C 184.200575 18.957078 184.200575 18.957078 183.990430 19.317501 C 183.902014 19.494009 183.902014 19.494009 183.055132 20.033780 L 182.551095 20.149091 L 181.185475 19.776299 L 180.519256 18.938060 L 180.395965 18.530751 L 180.370230 18.350419 C 180.393703 17.740572 180.393703 17.740572 180.422661 17.666213 C 180.451252 17.564055 180.451252 17.564055 180.458557 17.543092 C 180.460198 17.538152 180.445377 17.579244 180.422729 17.640691 C 180.345570 17.850033 179.528799 20.030142 179.457730 20.220122 C 178.294291 23.330166 179.315688 32.211180 182.575491 36.619975 C 183.798047 38.273450 185.663389 38.250517 187.039588 36.972272 C 187.640324 36.414296 187.867710 36.089512 188.956537 34.405221 C 189.572684 33.452111 189.931271 32.970360 190.216289 32.723034 C 190.251667 32.692335 190.212992 32.713155 190.071696 32.734831 C 189.819143 32.773576 189.573629 32.704098 189.449923 32.609224 C 189.282767 32.481027 189.236058 32.393463 189.242006 32.420819 C 189.289905 32.641100 189.308412 33.001413 189.286174 33.485559 C 189.245257 34.376355 189.147135 35.078360 188.748774 37.564947 C 188.657862 38.132428 188.596111 38.527268 188.536720 38.926861 C 187.971761 42.727985 187.950234 45.048331 188.868106 46.937665 C 190.034750 49.339070 192.255686 50.617922 195.320840 51.275807 C 195.919407 51.404280 196.536814 51.506847 197.240407 51.601362 C 197.504987 51.636904 197.769202 51.669787 198.103250 51.709453 C 198.110474 51.710311 198.711285 51.780930 198.869607 51.800154 C 199.492067 51.875737 199.854350 51.932875 200.081424 51.991925 C 200.135687 52.006036 200.149026 52.010881 200.107654 51.988367 C 199.905761 51.878502 199.696276 51.687045 199.536629 51.368479 C 199.668661 51.631939 199.748146 51.834169 199.781301 51.965968 C 199.783836 51.976047 199.780295 51.918405 199.805984 51.791713 C 199.856503 51.542567 200.001284 51.295836 200.207319 51.121402 C 200.337935 51.010821 200.440573 50.964007 200.498864 50.950172 C 200.144439 51.034294 199.483068 50.974233 197.144484 50.646383 C 196.004990 50.486635 195.246497 50.395861 194.444784 50.336167 C 192.014233 50.155192 190.082092 50.367807 188.449209 51.215101 C 188.239455 51.323940 188.050651 51.469092 187.891553 51.643821 C 182.537763 57.523638 175.372325 66.327701 170.218300 73.458420 C 167.285218 77.516410 165.058785 80.942593 163.728388 83.509906 C 162.953951 85.004364 162.466936 86.231234 162.288117 87.244177 C 161.988191 88.943154 162.533960 90.473717 164.252454 90.955455 L 164.088649 90.901823 C 174.287497 94.735095 182.389214 92.992271 192.885903 86.472629 C 194.021774 85.767125 195.194654 85.006688 196.659794 84.032752 C 197.308212 83.601723 199.829449 81.911783 200.441119 81.504885 C 204.288788 78.945316 206.981018 77.293374 209.850460 75.815171 C 209.992318 75.742092 210.124920 75.652299 210.245438 75.547706 C 219.406370 67.597261 228.283090 57.066487 231.552664 51.483061 L 231.175540 51.949208 C 232.212174 51.002457 232.635853 49.534182 231.322058 48.384067 C 230.741163 47.875542 230.112890 47.720508 229.165278 47.639932 C 228.213441 47.558996 227.490169 47.569880 224.395042 47.666947 C 222.307891 47.732403 221.049369 47.755210 219.695314 47.736303 C 214.527373 47.664143 211.587498 46.823157 211.280692 45.583293 L 209.711467 48.028765 C 210.999029 47.784877 212.431124 47.637664 214.199602 47.547296 C 215.044829 47.504106 215.684269 47.482655 217.274199 47.438056 C 221.260689 47.326231 222.939142 47.201162 224.783582 46.740207 C 227.535628 46.052427 229.414063 44.647528 230.175860 42.263830 C 230.868993 40.094986 230.828902 37.685257 230.213157 34.727009 C 229.970284 33.560167 229.641325 32.314066 229.187331 30.791509 C 229.010374 30.198051 228.820968 29.583099 228.564944 28.766049 C 228.548537 28.713688 228.059390 27.158196 227.916772 26.700427 C 224.753203 16.546166 224.265487 10.586455 227.392465 3.841960 L 223.611634 3.365981 C 227.971394 26.835848 233.193039 38.797528 240.136289 42.115289 C 243.368195 43.659623 246.791362 43.322445 250.503914 41.475184 C 253.169052 40.149088 255.496060 38.432346 259.762477 34.893685 C 260.047507 34.657159 260.047507 34.657159 260.331814 34.420992 C 266.656467 29.167152 269.423496 27.310327 272.479365 26.781636 L 270.449156 25.881617 C 270.928636 26.638095 268.644117 29.813773 263.256529 34.443953 C 258.655372 38.398261 254.863176 41.228563 241.556978 50.866824 C 240.968039 51.293419 240.450752 51.668409 239.956854 52.026847 C 229.127755 59.885862 223.125194 64.516905 218.445119 68.881070 C 214.666099 72.397478 213.017498 75.440328 213.396883 78.276962 C 213.707393 80.598624 215.111190 82.157023 217.596998 83.817503 C 217.944793 84.049824 219.033786 84.745386 219.096108 84.786056 C 219.562340 85.090304 219.859858 85.305451 220.054850 85.480282 C 220.129004 85.546769 220.174715 85.595419 220.192736 85.619761 C 220.170048 85.589115 220.137786 85.527233 220.109839 85.429863 C 220.251959 85.925025 220.579663 86.346252 221.024671 86.605774 C 248.226050 102.469256 268.119327 127.599768 278.018288 155.496251 C 286.733319 180.056275 286.165172 203.433428 277.132045 214.180834 C 276.818690 214.553656 276.652140 215.028006 276.663640 215.514889 C 276.669676 215.770417 276.669676 215.770417 276.675700 216.024927 C 276.904535 225.681178 277.166628 229.745679 278.083518 234.170848 C 279.280512 239.947886 281.530278 244.305916 285.362919 247.723915 C 285.583761 247.920866 285.845555 248.066358 286.129424 248.149901 C 299.044277 251.950774 308.283079 254.983146 314.262022 257.354668 C 317.045734 258.458816 319.104048 259.412743 320.465915 260.215130 C 321.067641 260.569657 321.511966 260.882443 321.796803 261.140010 C 321.951369 261.279778 321.995944 261.339464 321.970611 261.264007 C 321.869018 260.961408 321.921720 260.575150 322.108150 260.301134 C 322.171405 260.208160 322.153219 260.222060 322.036810 260.279273 C 321.503002 260.541630 320.497793 260.803044 319.084864 261.029622 C 316.621553 261.424639 313.799756 261.647170 307.594278 262.007212 C 306.985024 262.042515 306.985024 262.042515 306.372686 262.078038 C 305.902876 262.105342 305.515856 262.128013 305.144209 262.150055 C 294.713890 262.768658 289.833795 263.389399 286.973414 264.980529 C 286.690253 265.138042 286.449601 265.361995 286.272166 265.633118 C 282.116364 271.983250 272.529652 277.354580 261.503576 279.025905 C 248.657812 280.973057 235.358559 277.899401 223.807223 269.305006 C 217.688186 264.677370 213.048852 259.962346 209.085235 254.698210 C 206.740211 251.583750 200.440213 241.694690 201.009837 242.537774 C 198.974259 239.524973 197.206812 237.475576 195.070351 235.850698 C 194.952127 235.760783 194.824255 235.684318 194.689100 235.622717 C 179.084867 228.510625 159.576879 211.553488 136.226958 186.140644 C 135.968123 185.858942 135.633926 185.657384 135.264003 185.559876 C 129.973857 184.165440 118.089147 171.894780 102.004155 151.925131 C 99.993671 149.429100 97.926159 146.824513 95.800809 144.112712 C 86.188437 131.847986 64.479123 102.686713 64.654726 102.908240 L 61.949561 105.795408 C 73.296474 113.645193 80.349825 117.820411 83.825426 118.741674 C 86.507651 119.452640 88.712269 118.316256 88.291767 115.541306 C 88.081023 114.150576 87.102028 112.347829 85.356742 109.878822 C 80.078583 102.411961 69.165100 90.455530 47.112594 67.379553 C 46.625674 66.870076 46.625674 66.870076 46.138696 66.360689 C 24.081294 43.289775 22.827858 41.970546 16.528553 35.050317 C 12.371033 30.482989 9.323354 26.954771 7.362624 24.414703 C 6.350996 23.104169 5.645224 22.076166 5.266206 21.369730 C 5.121620 21.100243 5.045917 20.915620 5.034876 20.862904 C 5.103336 21.189783 5.028769 21.666748 4.563980 22.117683 C 4.621303 22.062068 4.675243 22.003070 4.725511 21.941006 C 7.229480 18.849383 9.302884 17.722114 11.249107 17.880497 C 12.794268 18.006243 14.220549 18.785377 16.891630 20.778589 C 19.286344 22.565571 19.888887 22.984984 21.089953 23.580263 C 24.175327 25.109452 27.072372 24.766928 29.731515 22.092352 L 29.611755 22.203353 C 36.728074 16.128324 43.012879 19.108292 53.641206 30.580283 C 54.201002 31.184515 56.995426 34.240152 57.763490 35.063944 C 59.329531 36.743611 60.567627 37.997945 61.740601 39.066414 C 62.407096 39.673528 63.397390 39.759671 64.158703 39.276758 C 70.811816 35.056584 76.210030 35.328292 81.442771 39.380283 C 85.712416 42.686497 89.211189 47.570159 94.982413 57.390921 C 95.341342 58.001703 96.560321 60.083657 96.725710 60.365570 C 97.414036 61.538854 97.948452 62.442752 98.467955 63.309501 C 104.527847 73.419937 108.726408 78.353329 114.122109 80.017657 C 118.043908 81.227355 121.270680 82.750126 125.403991 85.152612 C 126.069324 85.539337 129.178946 87.388968 130.039901 87.885121 C 138.448110 92.730619 144.884054 94.241605 155.451361 92.550231 C 156.181186 92.433417 156.787091 91.923617 157.026990 91.224518 C 157.417781 90.085694 158.775110 87.782736 161.267520 83.987821 C 162.106398 82.710555 167.554588 74.583376 169.223823 72.031684 C 170.370829 70.278304 171.412843 68.654322 172.385797 67.098663 C 177.110781 59.543868 180.155515 53.680217 181.449262 49.128421 Z" transform="scale(1.000000,1.000000) translate(74.105245,92.071773)" fill="#2e2f31" opacity="1.000000"></path>
    </g>
</svg>