<?xml version="1.0" encoding="UTF-8" standalone="yes"?>
<!DOCTYPE svg PUBLIC "-//W3C//DTD SVG 1.1//EN" "http://www.w3.org/Graphics/SVG/1.1/DTD/svg11.dtd">

<svg width="500" height="500" viewBox="0 0 500 500" xmlns="http://www.w3.org/2000/svg" xmlns:xlink="http://www.w3.org/1999/xlink" version="1.1" baseProfile="full">
    <g transform="scale(1.000000,-1.000000) translate(0,-500)">
        <path d="M 25.796440 21.363317 C 17.199165 13.996010 22.784638 83.412725 14.170737 75.597694 C 11.986250 48.473051 12.888503 29.861193 21.490639 21.363317 C 19.732194 19.794850 66.568542 21.363317 75.551187 13.691088 C 76.452818 15.259555 61.805658 10.641341 58.972866 11.851706 C 53.926941 10.712145 68.151764 -1.104922 64.235187 1.414796 C 55.253557 -0.132236 43.644043 2.945790 37.303539 5.742073 C 34.098778 8.907992 22.942822 10.603848 12.888503 16.416819 C 9.365108 15.937348 3.396675 73.301182 1.000000 75.597694 C 12.372742 83.985413 33.807384 78.282299 31.508000 76.912330 C 26.236361 61.238751 32.726714 23.037207 31.508000 19.941661 C 28.918597 21.363317 27.825840 20.464231 25.796440 21.363317 Z" transform="scale(1.000000,1.000000) translate(232.108630,100.709604)" fill="#413838" opacity="1.000000"></path>
        <path d="M 6.385993 53.885803 C 3.201140 36.369109 5.614082 19.555525 12.525553 3.889523 L 11.904196 4.675849 C 11.132255 5.261234 10.007043 5.021837 9.517710 4.320050 C 9.457334 4.233461 9.440905 4.197679 9.441008 4.197994 C 9.466440 4.275385 9.496484 4.397549 9.526679 4.557594 C 9.677464 5.356834 9.769535 6.733788 9.785789 8.545358 C 9.819510 12.303710 9.530563 17.623635 8.976648 23.272663 C 7.676877 36.528208 5.315068 48.334219 2.655294 53.299131 C 2.133692 54.272787 2.500155 55.484932 3.473811 56.006534 C 4.447467 56.528135 5.659612 56.161672 6.181214 55.188016 C 9.173084 49.603191 11.606950 37.436989 12.957556 23.663010 C 13.524365 17.882489 13.820763 12.425380 13.785628 8.509469 C 13.767422 6.480429 13.661694 4.899226 13.457339 3.816034 C 13.317810 3.076458 13.131379 2.509135 12.798845 2.032223 C 12.040735 0.944964 10.606549 0.639831 9.487239 1.488637 C 9.216742 1.693763 9.002909 1.964367 8.865882 2.274962 C 1.644300 18.643881 -0.884018 36.261418 2.450514 54.601344 C 2.648105 55.688097 3.689272 56.408905 4.776024 56.211313 C 5.862777 56.013722 6.583585 54.972555 6.385993 53.885803 Z" transform="scale(1.000000,1.000000) translate(242.788544,120.392937)" fill="#2e2f31" opacity="1.000000"></path>
        <path d="M 274.802262 184.201619 C 266.204987 176.834312 256.506176 163.631339 283.292845 126.852783 C 306.438504 94.596175 304.338306 13.830644 184.831452 1.667079 C 177.526805 0.166151 163.380614 1.667079 158.934759 1.667079 C 139.714695 3.218707 79.203370 28.835812 75.577217 38.751465 C 64.407238 20.631930 12.319779 25.901998 11.049978 25.752609 C 10.622874 26.919287 36.978955 52.973878 37.187999 55.627266 C 37.646945 61.452642 0.290347 44.868327 5.857702 55.627266 C -5.490138 54.318901 2.291136 74.659907 37.187999 80.946717 C 49.179850 95.498262 65.184858 107.267817 81.967436 110.926650 C 155.688212 157.705829 233.052073 124.431275 244.589262 122.933441 C 223.944163 218.546183 279.103753 253.631302 311.694966 208.795928 C 332.716053 198.526965 333.396658 195.430980 339.277944 193.135434 C 351.888542 171.382416 293.189815 197.612293 274.802262 184.201619 Z" transform="scale(1.000000,1.000000) translate(78.979253,173.985852)" fill="#7d583f" opacity="1.000000"></path>
        <path d="M 10.305175 26.358677 C 22.963567 21.166280 44.107579 7.167046 41.099267 3.168066 C 38.475184 1.407286 21.403335 -1.865777 1.005356 6.211410 C 0.711187 9.393898 12.641543 16.138340 10.305175 26.358677 Z" transform="scale(1.000000,1.000000) translate(378.917010,357.247508)" fill="#737373" opacity="1.000000"></path>
        <path d="M 130.085564 1.203767 C 130.304248 13.532101 123.001882 12.858811 121.513021 20.270349 C 96.900634 29.014822 81.047643 38.578113 76.117141 55.065117 C 52.060536 49.755149 45.076411 55.065117 19.533941 53.422080 C 11.838443 51.057647 9.415560 42.950232 1.000000 35.939971 C 15.254817 34.581342 28.728146 32.685191 46.831736 39.495593 C 72.673114 9.879561 123.206464 -0.641345 130.085564 1.203767 Z" transform="scale(1.000000,1.000000) translate(107.724734,175.306133)" fill="#e1dbcd" opacity="1.000000"></path>
        <path d="M 1.000000 1.000000 C 76.807634 21.779119 84.159682 89.212797 59.379838 120.626537 C 38.027169 117.065590 36.935748 112.721717 30.028036 107.351729 C 56.124309 85.351462 17.094735 25.000453 1.000000 1.000000 Z" transform="scale(1.000000,1.000000) translate(301.949487,181.470908)" fill="#e1dbcd" opacity="1.000000"></path>
        <path d="M 75.862202 16.654308 C 60.939580 11.583773 41.693569 9.863398 30.030466 13.098686 C 31.545731 14.598726 44.131918 30.512801 51.596635 30.577437 C 71.942089 30.195612 91.382145 25.398091 105.147606 32.223832 C 94.661741 50.999563 64.736732 42.278629 54.460323 50.241431 C 55.599675 63.106971 93.317290 69.591076 82.252421 86.765084 C 77.637423 86.424347 51.919355 74.360861 37.611910 56.897424 C 26.684987 57.569776 -13.004278 34.050670 6.142686 31.465700 C 4.076179 21.967735 34.538231 36.264745 36.451520 32.012238 C 35.340221 25.422798 13.172597 6.653382 12.498260 2.920644 C 61.543222 -4.494064 74.311049 11.599400 75.862202 16.654308 Z" transform="scale(1.000000,1.000000) translate(78.694268,198.147418)" fill="#17140f" opacity="1.000000"></path>
        <path d="M 36.365807 70.364834 C 27.768532 62.997527 18.069721 49.794554 44.856391 13.015998 C 35.865807 12.927359 24.603997 8.396655 14.561816 1.000000 C 12.189412 4.549369 6.898730 6.860993 5.093783 7.741622 C -14.466220 108.650740 40.667299 139.794517 73.258511 94.959143 C 77.504202 88.651037 66.177474 80.397674 65.302004 74.374262 C 62.677648 74.010629 44.856391 76.785759 36.365807 70.364834 Z" transform="scale(1.000000,1.000000) translate(317.415707,287.822637)" fill="#19181b" opacity="1.000000"></path>
        <path d="M 2.586987 8.542642 C 2.586987 8.542642 2.586987 8.542642 2.586987 8.542642 C -2.066689 3.394634 4.843315 0.288811 6.394540 1.139722 C 9.214950 2.256381 9.543997 4.359814 9.214950 6.263645 C 8.990706 8.542642 5.360390 9.442252 2.586987 8.542642 Z" transform="scale(1.000000,1.000000) translate(368.997189,384.279748)" fill="#606139" opacity="1.000000"></path>
        <path d="M 2.197057 6.879586 C 2.197057 6.879586 2.197057 6.879586 2.197057 6.879586 C -1.313189 2.866648 3.898995 0.445619 5.069077 1.108915 C 7.196499 1.979365 7.444698 3.619018 7.196499 5.103078 C 7.027353 6.879586 4.289022 7.580843 2.197057 6.879586 Z" transform="scale(1.000000,1.000000) translate(368.997189,386.018700)" fill="#2e2f31" opacity="1.000000"></path>
        <path d="M 4.669679 1.249921 C 3.060483 0.568726 1.451287 1.249921 1.016369 3.665066 C 0.682895 5.516884 5.565205 3.665066 4.669679 1.249921 Z" transform="scale(1.000000,1.000000) translate(371.492445,387.499259)" fill="#ffffff" opacity="1.000000"></path>
        <path d="M 2.923938 41.105016 C 13.943487 38.180077 28.230250 13.499445 31.599483 2.597217 C 24.720359 2.280658 14.827754 4.245200 7.281880 1.000000 C 6.575345 15.980484 -2.997918 34.015859 2.923938 41.105016 Z" transform="scale(1.000000,1.000000) translate(349.436222,359.366622)" fill="#e1dbcd" opacity="1.000000"></path>
        <path d="M 278.104162 261.767096 C 272.660363 257.102113 269.896324 252.469987 269.778781 245.606319 C 269.617912 236.212734 274.853776 223.667797 286.910009 207.114383 C 300.374359 188.350074 303.197898 159.186974 291.354542 134.931651 C 276.618476 104.752027 241.923070 84.348139 187.034469 78.761505 L 188.163241 79.258687 C 188.408730 79.477654 188.405663 79.471267 188.389726 79.421450 C 188.295429 79.126683 188.187159 78.685856 188.073487 78.122533 C 187.831868 76.925132 187.580444 75.251934 187.342203 73.242050 C 186.828213 68.905848 186.417528 63.395754 186.213880 57.794373 C 185.709281 43.915307 186.495402 31.908424 188.723082 25.435773 L 186.831952 24.784906 L 185.098026 25.781652 C 186.185214 27.672909 188.440647 27.547745 209.641519 25.746689 C 210.357659 25.685852 211.103524 25.622069 211.908655 25.552861 C 212.828026 25.473833 218.467999 24.985559 219.990721 24.855477 C 222.880540 24.608608 224.998369 24.434994 226.734310 24.305129 C 228.738873 24.155167 230.169047 24.069296 231.038858 24.049005 C 231.408322 24.040386 231.657143 24.046157 231.670133 24.048241 C 231.570429 24.032242 231.462456 24.005324 231.312637 23.942333 C 230.752532 23.706836 230.266837 23.276324 230.144946 22.411050 C 230.019829 21.522874 230.391256 20.958420 230.888452 20.580989 C 231.021874 20.479705 231.122275 20.426024 231.216976 20.385561 L 232.443370 20.273848 C 231.097539 19.969908 230.160455 19.575733 225.619462 17.509815 C 225.019657 17.236935 224.536152 17.019459 224.068402 16.813086 C 218.151663 14.202591 214.732503 13.416669 212.035968 15.151476 L 213.457555 14.862482 C 213.166908 14.812419 212.963523 14.750070 212.847230 14.691157 C 212.836618 14.685781 212.876154 14.718826 212.929122 14.797119 C 213.005426 14.909905 213.044577 15.038346 213.047163 15.137266 C 213.047364 15.144971 213.056431 15.097308 213.091365 15.001023 C 213.369528 14.234346 214.384307 12.967044 215.982213 11.418500 C 216.593730 10.825874 217.280413 10.199656 218.051745 9.526711 C 219.180493 8.541941 222.558529 5.755220 222.916430 5.442295 C 223.235271 5.163520 223.477215 4.938324 223.665772 4.739274 C 223.804854 4.592453 223.922075 4.453221 224.027106 4.299350 C 224.304094 3.893563 224.472094 3.493108 224.418918 2.877210 C 224.317433 1.701782 223.417322 1.070234 222.496227 1.005969 C 222.180710 0.983955 221.921080 1.024378 221.635092 1.101734 C 221.334523 1.183033 220.980844 1.319239 220.519407 1.522741 L 221.601293 1.371658 C 215.775944 0.563453 170.353377 16.511629 166.512137 20.908953 L 168.288058 20.242982 C 166.958975 20.062117 166.141295 20.805530 165.585194 21.903560 C 165.297994 22.470642 165.056304 23.209023 164.828682 24.152481 C 164.440836 25.760047 164.080368 28.038896 163.728425 31.006463 C 163.160184 35.797841 162.670618 41.697800 161.982664 51.380557 C 161.883616 52.774640 161.541752 57.639818 161.545989 57.579740 C 161.373958 60.019089 161.244473 61.820619 161.118055 63.518503 C 160.732392 68.698228 160.412018 72.369632 160.092078 75.091299 C 159.913552 76.609980 159.738483 77.793296 159.567825 78.627769 C 159.487092 79.022534 159.410018 79.324916 159.343587 79.520394 C 159.323111 79.580645 159.308973 79.615262 159.307697 79.617753 C 159.350344 79.534477 159.419747 79.433446 159.551543 79.307158 L 160.811763 78.755041 C 144.649469 79.754930 126.017209 85.938392 107.528505 95.437280 C 93.122104 102.838814 79.919958 111.870289 76.037170 116.560184 L 79.280216 116.786087 C 74.417094 108.897309 62.864194 104.658866 46.551745 103.003400 C 37.491097 102.083882 28.097100 102.050419 18.449996 102.540069 C 17.143080 102.606403 16.346030 102.653034 14.558596 102.762806 C 13.963257 102.799367 13.684750 102.815829 13.455933 102.827439 C 13.329772 102.833840 13.235628 102.837753 13.173545 102.839294 C 13.181987 102.839084 13.188065 102.839149 13.284160 102.850454 C 12.364443 102.742252 11.490728 103.279588 11.172373 104.149208 C 10.924357 104.826688 11.025892 105.311450 11.265403 105.842658 C 11.356017 106.043630 11.470187 106.239321 11.613648 106.454406 C 11.828239 106.776133 12.128200 107.167686 12.522311 107.646930 C 13.209437 108.482485 14.202784 109.607951 15.535117 111.067786 C 16.658977 112.299198 17.993710 113.736143 19.784161 115.646705 C 20.699020 116.622937 24.056061 120.194524 24.659006 120.837162 C 24.843557 121.033882 24.843557 121.033882 25.028041 121.230617 C 29.001486 125.468432 31.629577 128.324740 33.679604 130.665552 C 34.892563 132.050564 35.824544 133.169734 36.461010 134.010033 C 36.776924 134.427121 37.012110 134.765438 37.158858 135.010340 C 37.214384 135.103005 37.249916 135.170179 37.263821 135.202275 C 37.236924 135.140188 37.208491 135.043831 37.194677 134.868493 C 37.174788 134.616038 37.288763 134.289399 37.523591 134.060117 C 37.642323 133.944189 37.684041 133.925521 37.627399 133.936871 C 37.144152 134.033700 36.222297 134.003729 34.943847 133.824961 C 32.733680 133.515909 30.834081 133.080683 24.651860 131.548854 C 24.299996 131.461669 24.004378 131.388573 23.721129 131.318758 C 17.337899 129.745435 13.868436 129.057923 11.046307 128.993842 C 6.360708 128.887449 3.868537 131.353183 6.081927 135.630569 L 8.087277 132.724574 C 4.388972 132.298173 1.629827 133.817282 1.089186 136.884332 C 0.631227 139.482329 1.954084 142.661944 4.662647 145.824032 C 10.818808 153.010988 22.859321 159.121292 38.833899 161.999177 L 37.645067 161.302797 C 50.640004 177.071540 67.107095 188.381878 83.541915 191.964896 L 82.896371 191.699509 C 86.761248 194.151948 90.682690 196.416658 94.658475 198.497854 C 117.405110 210.404991 141.504429 216.147830 166.547515 216.819446 C 185.763548 217.334788 204.140262 214.920437 222.875909 210.369316 C 229.313531 208.805537 245.424512 204.185652 246.847254 204.000942 L 244.634816 201.595467 C 235.005411 246.191703 241.137248 281.593570 258.772466 299.038729 C 275.462416 315.548807 298.791556 311.784702 315.313218 289.056032 L 314.573333 289.677113 C 322.021205 286.038770 327.428303 283.064252 331.806911 280.316796 C 333.766030 279.087503 338.338630 275.973350 339.144043 275.491382 C 340.098102 274.920464 340.977990 274.483797 342.005641 274.082691 C 342.427777 273.917926 342.781447 273.614689 343.008718 273.222650 C 346.954542 266.416187 344.939542 262.129880 338.115420 261.357120 C 333.798595 260.868285 330.464542 261.222185 315.894204 263.280372 C 312.182758 263.804646 309.602427 264.146985 307.010952 264.445334 C 292.527839 266.112734 283.223290 265.493055 277.981282 261.669879 L 278.104162 261.767096 Z M 275.501360 264.804434 L 275.624240 264.901651 C 281.974372 269.533021 291.995604 270.200430 307.468439 268.419086 C 310.101331 268.115969 312.711073 267.769727 316.453685 267.241051 C 330.490101 265.258285 333.858985 264.900688 337.665339 265.331718 C 341.565068 265.773321 342.074930 266.857899 339.548169 271.216510 L 340.551246 270.356469 C 339.309349 270.841198 338.230102 271.376802 337.090074 272.059005 C 336.160344 272.615365 331.539974 275.762053 329.680895 276.928573 C 325.427431 279.597505 320.143356 282.504346 312.817598 286.083035 C 312.523926 286.226496 312.269888 286.439743 312.077713 286.704116 C 296.915680 307.562359 276.419718 310.869337 261.585528 296.195019 C 245.071300 279.858770 239.176582 245.825896 248.544708 202.439707 C 248.836392 201.088841 247.702765 199.856305 246.332270 200.034231 C 244.557718 200.264615 228.098444 204.984375 221.931716 206.482350 C 203.514992 210.956002 185.478173 213.325697 166.654750 212.820883 C 142.195907 212.164937 118.692856 206.564187 96.513553 194.954031 C 92.635917 192.924212 88.810580 190.715005 85.039500 188.322084 C 84.841538 188.196468 84.623030 188.106637 84.393957 188.056696 C 68.920071 184.683176 53.195409 173.882771 40.731931 158.758929 C 40.430639 158.393325 40.009347 158.146546 39.543099 158.062549 C 24.416407 155.337415 13.204777 149.647751 7.700527 143.221862 C 5.693626 140.878924 4.817795 138.773780 5.028453 137.578722 C 5.153749 136.867914 5.837167 136.491643 7.629126 136.698250 C 9.219883 136.881659 10.370396 135.214425 9.634476 133.792256 C 9.397154 133.333630 9.297084 133.012550 9.292373 132.854538 C 9.294215 132.916318 9.235949 133.070837 9.130165 133.175499 C 9.198581 133.107809 9.836933 132.967413 10.955505 132.992811 C 13.369136 133.047616 16.694734 133.706621 22.763868 135.202526 C 23.045328 135.271900 23.339434 135.344622 23.689833 135.431444 C 30.048407 137.006970 31.979006 137.449298 34.389908 137.786419 C 36.078564 138.022547 37.384686 138.065011 38.413265 137.858913 C 40.128208 137.515287 41.323640 136.348086 41.182321 134.554331 C 41.035157 132.686387 37.958525 129.173350 27.946020 118.494672 C 27.761063 118.297432 27.761063 118.297432 27.576085 118.100257 C 26.971143 117.455490 23.615206 113.885078 22.702844 112.911510 C 20.923411 111.012707 19.599186 109.587073 18.489623 108.371327 C 17.199909 106.958190 16.245527 105.876870 15.611806 105.106256 C 15.295151 104.721200 15.067753 104.424367 14.941341 104.234844 C 14.909345 104.186873 14.897396 104.166392 14.911888 104.198533 C 15.073978 104.558030 15.149799 104.920028 14.928583 105.524302 L 13.050478 104.836755 L 12.816795 106.823056 C 13.155381 106.862890 17.747499 106.580874 18.652760 106.534926 C 28.114972 106.054661 37.323952 106.087465 46.147880 106.982959 C 61.302756 108.520949 71.877781 112.400636 75.875219 118.885134 C 76.593825 120.050831 78.244982 120.165848 79.118264 119.111038 C 82.570626 114.941040 95.394346 106.168444 109.356437 98.995181 C 127.396091 89.727001 145.533048 83.707915 161.058753 82.747409 C 161.530903 82.718199 161.977415 82.522577 162.318974 82.195292 C 163.651948 80.918027 164.147499 76.702475 165.107014 63.815506 C 165.233894 62.111413 165.363712 60.305243 165.536079 57.861135 C 165.531940 57.919829 165.873688 53.056284 165.972606 51.664039 C 166.656123 42.043733 167.142193 36.185903 167.700588 31.477548 C 168.035413 28.654320 168.374471 26.510820 168.717114 25.090615 C 168.878344 24.422343 169.033767 23.947512 169.153644 23.710813 C 169.157414 23.703369 169.131475 23.740712 169.032402 23.830786 C 168.733307 24.102716 168.276017 24.278210 167.748701 24.206452 C 168.414989 24.297122 169.082244 24.046900 169.524622 23.540480 C 172.458370 20.182023 216.533647 4.706890 221.051600 5.333708 C 221.419262 5.384717 221.793864 5.332405 222.133486 5.182625 C 222.424648 5.054217 222.619234 4.979280 222.679502 4.962978 C 222.571143 4.992288 222.444152 5.012060 222.217823 4.996269 C 221.384501 4.938127 220.530224 4.338737 220.433744 3.221285 C 220.403290 2.868561 220.464701 2.581035 220.570933 2.327814 C 220.620310 2.210115 220.671200 2.120713 220.723389 2.044255 C 220.757513 1.994264 220.767145 1.982823 220.761844 1.988420 C 220.677779 2.077162 220.515827 2.227904 220.283544 2.430998 C 219.982699 2.694037 216.606870 5.478937 215.422091 6.512591 C 214.601576 7.228445 213.864670 7.900464 213.198501 8.546053 C 211.187152 10.495269 209.877657 12.130625 209.331202 13.636775 C 208.395476 16.215839 209.799625 18.291328 212.778577 18.804434 C 213.271908 18.889407 213.779168 18.786287 214.200164 18.515440 C 215.228866 17.853628 217.919073 18.471995 222.453754 20.472719 C 222.905430 20.672000 223.375960 20.883640 223.963034 21.150729 C 228.891061 23.392726 229.813086 23.780567 231.562210 24.175586 C 231.972583 24.268263 232.401731 24.229172 232.788605 24.063873 C 232.969165 23.986725 233.132794 23.899236 233.307007 23.766988 C 233.844691 23.358821 234.234502 22.766430 234.105839 21.853082 C 233.980430 20.962831 233.469626 20.510063 232.862980 20.254998 C 232.666999 20.172598 232.491778 20.128915 232.303881 20.098765 C 231.972014 20.045512 231.555758 20.035858 230.945570 20.050093 C 229.988299 20.072425 228.505037 20.161483 226.435904 20.316275 C 224.682840 20.447422 222.552955 20.622024 219.650252 20.869993 C 218.124775 21.000311 212.483330 21.488712 211.566082 21.567557 C 210.762212 21.636657 210.017655 21.700328 209.302931 21.761045 C 202.509363 22.338172 197.731105 22.704009 194.039953 22.908846 C 191.869609 23.029288 190.182053 23.085904 189.010257 23.074543 C 188.432820 23.068945 187.996991 23.046610 187.729496 23.012123 C 187.657060 23.002785 187.624112 22.996199 187.653242 23.005657 C 187.975303 23.110221 188.282330 23.294905 188.565878 23.788161 C 187.710091 22.299444 185.499644 22.510351 184.940822 24.134040 C 182.505622 31.209652 181.694896 43.592341 182.216521 57.939704 C 182.668722 70.377570 183.906757 80.822058 185.500664 82.243764 C 185.815146 82.524270 186.210196 82.698275 186.629436 82.740945 C 240.239329 88.197431 273.688894 107.868657 287.760139 136.686721 C 298.949424 159.602498 296.277633 187.198257 283.668389 204.770945 C 271.155464 221.951320 265.601003 235.259605 265.779367 245.674811 C 265.919400 253.851731 269.267211 259.462172 275.501360 264.804434 Z" transform="scale(1.000000,1.000000) translate(76.978753,94.901706)" fill="#2e2f31" opacity="1.000000"></path>
        <path d="M 51.951952 60.726515 C 38.759635 55.420888 26.448521 48.933408 17.450915 41.330322 C 5.016137 30.822785 1.449823 20.200618 8.930855 9.184051 L 7.715053 10.011760 C 25.810130 5.942896 42.237454 4.446077 55.047992 5.179000 C 60.257873 5.477071 64.547424 6.143697 67.429203 7.037255 C 68.661115 7.419237 69.559036 7.822409 70.052293 8.180012 C 70.189489 8.279476 70.248873 8.339974 70.241946 8.328204 C 70.144539 8.162710 70.094886 7.903213 70.154404 7.631913 C 69.887091 8.850406 70.788282 10.013599 72.034920 10.059148 C 128.020498 12.104736 184.878368 26.457511 197.111936 45.176051 L 197.058248 45.089134 C 200.330202 50.701956 198.026559 58.300083 191.407620 66.440400 C 186.118715 72.944971 178.375395 79.059968 174.682618 80.203142 C 173.627452 80.529789 173.036871 81.649971 173.363519 82.705137 C 173.690167 83.760302 174.810348 84.350883 175.865514 84.024235 C 180.430971 82.610906 188.768194 76.026895 194.511155 68.963903 C 202.063744 59.675336 204.844522 50.503467 200.513951 43.074657 L 200.460263 42.987740 C 193.413747 32.205891 174.899194 23.277640 148.299571 16.563030 C 125.263054 10.747864 97.251499 6.977836 72.180974 6.061816 L 74.061489 8.489051 C 74.992216 4.246529 67.347607 1.876151 55.276468 1.185531 C 42.082225 0.430654 25.284413 1.961232 6.837523 6.109204 C 6.341834 6.220665 5.907144 6.516598 5.621720 6.936913 C -3.227203 19.967837 1.050397 32.708549 14.869179 44.385587 C 24.266809 52.326697 36.903688 58.985842 50.459432 64.437631 C 51.484229 64.849779 52.649102 64.353129 53.061250 63.328333 C 53.473398 62.303536 52.976749 61.138663 51.951952 60.726515 Z" transform="scale(1.000000,1.000000) translate(110.872653,223.817622)" fill="#2e2f31" opacity="1.000000"></path>
    </g>
</svg>